Merriweather-LightDisplayWideItalic.ufo
<glyph name="numbersign" format="2">
  <advance width="1245"/>
  <unicode hex="0023"/>
  <outline>
    <contour>
      <point x="331" y="413" type="line"/>
      <point x="267" y="0" type="line"/>
      <point x="335" y="0" type="line"/>
      <point x="400" y="413" type="line"/>
      <point x="795" y="413" type="line"/>
      <point x="732" y="0" type="line"/>
      <point x="800" y="0" type="line"/>
      <point x="863" y="413" type="line"/>
      <point x="1111" y="413" type="line"/>
      <point x="1129" y="546" type="line"/>
      <point x="885" y="546" type="line"/>
      <point x="956" y="977" type="line"/>
      <point x="1189" y="977" type="line"/>
      <point x="1207" y="1108" type="line"/>
      <point x="974" y="1108" type="line"/>
      <point x="1044" y="1539" type="line"/>
      <point x="975" y="1539" type="line"/>
      <point x="905" y="1108" type="line"/>
      <point x="511" y="1108" type="line"/>
      <point x="579" y="1539" type="line"/>
      <point x="511" y="1539" type="line"/>
      <point x="443" y="1108" type="line"/>
      <point x="204" y="1108" type="line"/>
      <point x="186" y="977" type="line"/>
      <point x="422" y="977" type="line"/>
      <point x="352" y="546" type="line"/>
      <point x="127" y="546" type="line"/>
      <point x="109" y="413" type="line"/>
    </contour>
    <contour>
      <point x="817" y="546" type="line"/>
      <point x="419" y="546" type="line"/>
      <point x="491" y="977" type="line"/>
      <point x="887" y="977" type="line"/>
    </contour>
  </outline>
</glyph>
<glyph name="quotesingle" format="2">
  <advance width="466"/>
  <unicode hex="0027"/>
  <outline>
    <contour>
      <point x="318" y="1644" type="line"/>
      <point x="236" y="944" type="line"/>
      <point x="292" y="944" type="line"/>
      <point x="467" y="1644" type="line"/>
    </contour>
  </outline>
</glyph>
<glyph name="asterisk" format="2">
  <advance width="964"/>
  <unicode hex="002A"/>
  <outline>
    <contour>
      <point x="192" y="1085" type="line"/>
      <point x="239" y="980" type="line"/>
      <point x="457" y="1124" type="line"/>
      <point x="571" y="1216" type="line"/>
      <point x="526" y="1081" type="line"/>
      <point x="472" y="838" type="line"/>
      <point x="593" y="838" type="line"/>
      <point x="601" y="1082" type="line"/>
      <point x="589" y="1216" type="line"/>
      <point x="680" y="1125" type="line"/>
      <point x="861" y="986" type="line"/>
      <point x="936" y="1091" type="line"/>
      <point x="726" y="1190" type="line"/>
      <point x="600" y="1232" type="line"/>
      <point x="736" y="1275" type="line"/>
      <point x="972" y="1379" type="line"/>
      <point x="925" y="1484" type="line"/>
      <point x="707" y="1340" type="line"/>
      <point x="593" y="1248" type="line"/>
      <point x="638" y="1383" type="line"/>
      <point x="691" y="1626" type="line"/>
      <point x="570" y="1626" type="line"/>
      <point x="563" y="1382" type="line"/>
      <point x="575" y="1248" type="line"/>
      <point x="484" y="1339" type="line"/>
      <point x="303" y="1478" type="line"/>
      <point x="228" y="1373" type="line"/>
      <point x="438" y="1274" type="line"/>
      <point x="563" y="1232" type="line"/>
      <point x="428" y="1189" type="line"/>
    </contour>
  </outline>
</glyph>
<glyph name="comma" format="2">
  <advance width="371"/>
  <unicode hex="002C"/>
  <outline>
    <contour>
      <point x="45" y="104" type="line"/>
      <point x="42" y="70" type="line"/>
      <point x="87" y="44"/>
      <point x="120" y="-27"/>
      <point x="120" y="-113" type="curve" smooth="yes"/>
      <point x="120" y="-204"/>
      <point x="84" y="-344"/>
      <point x="-15" y="-403" type="curve"/>
      <point x="-18" y="-420" type="line"/>
      <point x="1" y="-438" type="line"/>
      <point x="150" y="-385"/>
      <point x="241" y="-191"/>
      <point x="241" y="-58" type="curve" smooth="yes"/>
      <point x="241" y="45"/>
      <point x="215" y="120"/>
      <point x="147" y="186" type="curve"/>
    </contour>
  </outline>
</glyph>
<glyph name="zero" format="2">
  <advance width="1311"/>
  <unicode hex="0030"/>
  <outline>
    <contour>
      <point x="568" y="-20" type="curve" smooth="yes"/>
      <point x="969" y="-20"/>
      <point x="1275" y="379"/>
      <point x="1275" y="885" type="curve" smooth="yes"/>
      <point x="1275" y="1258"/>
      <point x="1090" y="1503"/>
      <point x="812" y="1503" type="curve" smooth="yes"/>
      <point x="410" y="1503"/>
      <point x="102" y="1105"/>
      <point x="102" y="599" type="curve" smooth="yes"/>
      <point x="102" y="227"/>
      <point x="286" y="-20"/>
    </contour>
    <contour>
      <point x="598" y="31" type="curve" smooth="yes"/>
      <point x="407" y="31"/>
      <point x="272" y="223"/>
      <point x="272" y="610" type="curve" smooth="yes"/>
      <point x="272" y="1062"/>
      <point x="501" y="1452"/>
      <point x="772" y="1452" type="curve" smooth="yes"/>
      <point x="966" y="1452"/>
      <point x="1103" y="1262"/>
      <point x="1103" y="874" type="curve" smooth="yes"/>
      <point x="1103" y="420"/>
      <point x="872" y="31"/>
    </contour>
  </outline>
</glyph>
<glyph name="four" format="2">
  <advance width="1187"/>
  <unicode hex="0034"/>
  <outline>
    <contour>
      <point x="697" y="0" type="line"/>
      <point x="843" y="0" type="line"/>
      <point x="894" y="353" type="line"/>
      <point x="1127" y="353" type="line"/>
      <point x="1145" y="486" type="line"/>
      <point x="903" y="466" type="line"/>
      <point x="960" y="878" type="line"/>
      <point x="814" y="833" type="line"/>
      <point x="753" y="458" type="line"/>
      <point x="95" y="405" type="line"/>
      <point x="144" y="451"/>
      <point x="214" y="535"/>
      <point x="272" y="604" type="curve"/>
      <point x="451" y="817"/>
      <point x="684" y="1164"/>
      <point x="824" y="1414" type="curve"/>
      <point x="716" y="1487" type="line"/>
      <point x="677" y="1487" type="line"/>
      <point x="435" y="1029"/>
      <point x="199" y="653"/>
      <point x="43" y="419" type="curve"/>
      <point x="69" y="353" type="line"/>
      <point x="745" y="353" type="line"/>
    </contour>
  </outline>
</glyph>
<glyph name="five" format="2">
  <advance width="1021"/>
  <unicode hex="0035"/>
  <outline>
    <contour>
      <point x="59" y="53" type="curve"/>
      <point x="54" y="1" type="line"/>
      <point x="91" y="-8"/>
      <point x="148" y="-14"/>
      <point x="200" y="-14" type="curve" smooth="yes"/>
      <point x="637" y="-14"/>
      <point x="945" y="240"/>
      <point x="945" y="565" type="curve" smooth="yes"/>
      <point x="945" y="813"/>
      <point x="770" y="932"/>
      <point x="562" y="932" type="curve" smooth="yes"/>
      <point x="423" y="932"/>
      <point x="300" y="883"/>
      <point x="173" y="800" type="curve"/>
      <point x="378" y="1360" type="line"/>
      <point x="1000" y="1360" type="line"/>
      <point x="1048" y="1512" type="line"/>
      <point x="990" y="1512" type="line"/>
      <point x="958" y="1486" type="line"/>
      <point x="282" y="1486" type="line"/>
      <point x="118" y="801" type="line"/>
      <point x="176" y="754" type="line"/>
      <point x="297" y="817"/>
      <point x="397" y="847"/>
      <point x="486" y="847" type="curve" smooth="yes"/>
      <point x="657" y="847"/>
      <point x="789" y="741"/>
      <point x="779" y="543" type="curve" smooth="yes"/>
      <point x="764" y="247"/>
      <point x="517" y="42"/>
      <point x="187" y="42" type="curve" smooth="yes"/>
      <point x="145" y="42"/>
      <point x="91" y="47"/>
    </contour>
  </outline>
</glyph>
<glyph name="six" format="2">
  <advance width="1143"/>
  <unicode hex="0036"/>
  <outline>
    <contour>
      <point x="533" y="-20" type="curve" smooth="yes"/>
      <point x="869" y="-20"/>
      <point x="1091" y="287"/>
      <point x="1091" y="559" type="curve" smooth="yes"/>
      <point x="1091" y="815"/>
      <point x="944" y="954"/>
      <point x="709" y="954" type="curve" smooth="yes"/>
      <point x="546" y="954"/>
      <point x="398" y="884"/>
      <point x="296" y="760" type="curve"/>
      <point x="387" y="1080"/>
      <point x="620" y="1382"/>
      <point x="1004" y="1486" type="curve"/>
      <point x="985" y="1534" type="line"/>
      <point x="476" y="1445"/>
      <point x="86" y="985"/>
      <point x="86" y="509" type="curve" smooth="yes"/>
      <point x="86" y="267"/>
      <point x="206" y="-20"/>
    </contour>
    <contour>
      <point x="538" y="26" type="curve" smooth="yes"/>
      <point x="342" y="26"/>
      <point x="247" y="245"/>
      <point x="247" y="497" type="curve" smooth="yes"/>
      <point x="247" y="569"/>
      <point x="262" y="629"/>
      <point x="275" y="669" type="curve"/>
      <point x="371" y="816"/>
      <point x="527" y="885"/>
      <point x="651" y="885" type="curve" smooth="yes"/>
      <point x="806" y="885"/>
      <point x="927" y="764"/>
      <point x="927" y="522" type="curve" smooth="yes"/>
      <point x="927" y="286"/>
      <point x="770" y="26"/>
    </contour>
  </outline>
</glyph>
<glyph name="eight" format="2">
  <advance width="1104"/>
  <unicode hex="0038"/>
  <outline>
    <contour>
      <point x="479" y="-18" type="curve" smooth="yes"/>
      <point x="849" y="-18"/>
      <point x="1023" y="181"/>
      <point x="1025" y="380" type="curve" smooth="yes"/>
      <point x="1027" y="568"/>
      <point x="860" y="684"/>
      <point x="699" y="794" type="curve"/>
      <point x="953" y="876"/>
      <point x="1087" y="1038"/>
      <point x="1088" y="1191" type="curve" smooth="yes"/>
      <point x="1089" y="1403"/>
      <point x="889" y="1507"/>
      <point x="703" y="1507" type="curve" smooth="yes"/>
      <point x="477" y="1507"/>
      <point x="232" y="1382"/>
      <point x="228" y="1132" type="curve" smooth="yes"/>
      <point x="226" y="997"/>
      <point x="321" y="870"/>
      <point x="480" y="755" type="curve"/>
      <point x="159" y="685"/>
      <point x="42" y="507"/>
      <point x="40" y="341" type="curve" smooth="yes"/>
      <point x="38" y="151"/>
      <point x="231" y="-18"/>
    </contour>
    <contour>
      <point x="672" y="813" type="curve"/>
      <point x="465" y="926"/>
      <point x="379" y="1021"/>
      <point x="381" y="1169" type="curve" smooth="yes"/>
      <point x="384" y="1364"/>
      <point x="537" y="1461"/>
      <point x="691" y="1461" type="curve" smooth="yes"/>
      <point x="840" y="1461"/>
      <point x="940" y="1340"/>
      <point x="939" y="1195" type="curve" smooth="yes"/>
      <point x="938" y="1049"/>
      <point x="846" y="893"/>
    </contour>
    <contour>
      <point x="499" y="28" type="curve" smooth="yes"/>
      <point x="331" y="28"/>
      <point x="200" y="179"/>
      <point x="201" y="350" type="curve" smooth="yes"/>
      <point x="202" y="502"/>
      <point x="267" y="668"/>
      <point x="509" y="733" type="curve"/>
      <point x="666" y="633"/>
      <point x="864" y="531"/>
      <point x="862" y="321" type="curve" smooth="yes"/>
      <point x="860" y="117"/>
      <point x="719" y="28"/>
    </contour>
  </outline>
</glyph>
<glyph name="question" format="2">
  <advance width="947"/>
  <unicode hex="003F"/>
  <outline>
    <contour>
      <point x="281" y="390" type="curve"/>
      <point x="294" y="388" type="line"/>
      <point x="357" y="417" type="line"/>
      <point x="342" y="457"/>
      <point x="330" y="519"/>
      <point x="330" y="587" type="curve" smooth="yes"/>
      <point x="330" y="746"/>
      <point x="482" y="837"/>
      <point x="596" y="901" type="curve" smooth="yes"/>
      <point x="705" y="962"/>
      <point x="811" y="1022"/>
      <point x="884" y="1141" type="curve" smooth="yes"/>
      <point x="920" y="1201"/>
      <point x="947" y="1276"/>
      <point x="947" y="1362" type="curve" smooth="yes"/>
      <point x="947" y="1564"/>
      <point x="850" y="1771"/>
      <point x="475" y="1771" type="curve" smooth="yes"/>
      <point x="381" y="1771"/>
      <point x="273" y="1747"/>
      <point x="239" y="1717" type="curve"/>
      <point x="217" y="1654" type="line"/>
      <point x="269" y="1678"/>
      <point x="351" y="1690"/>
      <point x="429" y="1690" type="curve" smooth="yes"/>
      <point x="673" y="1690"/>
      <point x="797" y="1540"/>
      <point x="797" y="1353" type="curve" smooth="yes"/>
      <point x="797" y="1315"/>
      <point x="784" y="1219"/>
      <point x="767" y="1185" type="curve"/>
      <point x="702" y="1087"/>
      <point x="631" y="1010"/>
      <point x="548" y="960" type="curve" smooth="yes"/>
      <point x="382" y="860"/>
      <point x="226" y="762"/>
      <point x="226" y="601" type="curve" smooth="yes"/>
      <point x="226" y="509"/>
      <point x="260" y="448"/>
    </contour>
    <contour>
      <point x="296" y="59" type="curve" smooth="yes"/>
      <point x="296" y="10"/>
      <point x="322" y="-22"/>
      <point x="367" y="-22" type="curve" smooth="yes"/>
      <point x="424" y="-22"/>
      <point x="475" y="27"/>
      <point x="475" y="96" type="curve" smooth="yes"/>
      <point x="475" y="138"/>
      <point x="456" y="176"/>
      <point x="401" y="176" type="curve" smooth="yes"/>
      <point x="343" y="176"/>
      <point x="296" y="125"/>
    </contour>
  </outline>
</glyph>
<glyph name="C" format="2">
  <advance width="1276"/>
  <unicode hex="0043"/>
  <anchor x="647" y="0" name="bottom"/>
  <anchor x="808" y="1486" name="top"/>
  <outline>
    <contour>
      <point x="692" y="-22" type="curve" smooth="yes"/>
      <point x="889" y="-22"/>
      <point x="1045" y="45"/>
      <point x="1127" y="73" type="curve"/>
      <point x="1164" y="390" type="line"/>
      <point x="1096" y="390" type="line"/>
      <point x="1077" y="318"/>
      <point x="1056" y="227"/>
      <point x="1034" y="156" type="curve"/>
      <point x="989" y="88"/>
      <point x="818" y="29"/>
      <point x="721" y="29" type="curve" smooth="yes"/>
      <point x="431" y="29"/>
      <point x="250" y="244"/>
      <point x="250" y="633" type="curve" smooth="yes"/>
      <point x="250" y="1026"/>
      <point x="429" y="1451"/>
      <point x="849" y="1451" type="curve" smooth="yes"/>
      <point x="1013" y="1451"/>
      <point x="1077" y="1402"/>
      <point x="1126" y="1374" type="curve"/>
      <point x="1145" y="1090" type="line"/>
      <point x="1216" y="1090" type="line"/>
      <point x="1277" y="1442" type="line"/>
      <point x="1210" y="1452"/>
      <point x="1067" y="1502"/>
      <point x="869" y="1502" type="curve" smooth="yes"/>
      <point x="441" y="1502"/>
      <point x="82" y="1155"/>
      <point x="81" y="614" type="curve" smooth="yes"/>
      <point x="80" y="214"/>
      <point x="315" y="-22"/>
    </contour>
  </outline>
</glyph>
<glyph name="F" format="2">
  <advance width="1064"/>
  <unicode hex="0046"/>
  <anchor x="700" y="1486" name="top"/>
  <outline>
    <contour>
      <point x="-42" y="0" type="line"/>
      <point x="495" y="0" type="line"/>
      <point x="500" y="36" type="line"/>
      <point x="255" y="66" type="line"/>
      <point x="347" y="733" type="line"/>
      <point x="835" y="719" type="line"/>
      <point x="848" y="808" type="line"/>
      <point x="356" y="798" type="line"/>
      <point x="441" y="1419" type="line"/>
      <point x="986" y="1399" type="line"/>
      <point x="1035" y="1184" type="line"/>
      <point x="1086" y="1184" type="line"/>
      <point x="1090" y="1486" type="line"/>
      <point x="164" y="1486" type="line"/>
      <point x="159" y="1450" type="line"/>
      <point x="285" y="1420" type="line"/>
      <point x="99" y="67" type="line"/>
      <point x="-37" y="36" type="line"/>
    </contour>
  </outline>
</glyph>
<glyph name="I" format="2">
  <advance width="542"/>
  <unicode hex="0049"/>
  <anchor x="209" y="0" name="bottom"/>
  <anchor x="406" y="-164" name="btm"/>
  <anchor x="222" y="0" name="ogonek"/>
  <anchor x="408" y="1486" name="top"/>
  <anchor x="153" y="1486" name="topleft"/>
  <outline>
    <contour>
      <point x="-34" y="0" type="line"/>
      <point x="447" y="0" type="line"/>
      <point x="453" y="36" type="line"/>
      <point x="294" y="67" type="line"/>
      <point x="481" y="1420" type="line"/>
      <point x="635" y="1450" type="line"/>
      <point x="640" y="1486" type="line"/>
      <point x="184" y="1486" type="line"/>
      <point x="179" y="1450" type="line"/>
      <point x="325" y="1420" type="line"/>
      <point x="138" y="67" type="line"/>
      <point x="-29" y="36" type="line"/>
    </contour>
  </outline>
</glyph>
<glyph name="J" format="2">
  <advance width="566"/>
  <unicode hex="004A"/>
  <anchor x="342" y="-164" name="btm"/>
  <anchor x="469" y="1486" name="top"/>
  <outline>
    <contour>
      <point x="-197" y="-309" type="line"/>
      <point x="11" y="-276"/>
      <point x="260" y="-169"/>
      <point x="315" y="70" type="curve" smooth="yes"/>
      <point x="353" y="232"/>
      <point x="436" y="764"/>
      <point x="516" y="1419" type="curve"/>
      <point x="670" y="1450" type="line"/>
      <point x="676" y="1486" type="line"/>
      <point x="215" y="1486" type="line"/>
      <point x="210" y="1450" type="line"/>
      <point x="361" y="1419" type="line"/>
      <point x="303" y="993"/>
      <point x="231" y="400"/>
      <point x="163" y="85" type="curve" smooth="yes"/>
      <point x="129" y="-72"/>
      <point x="18" y="-210"/>
      <point x="-219" y="-266" type="curve"/>
    </contour>
  </outline>
</glyph>
<glyph name="L" format="2">
  <advance width="1158"/>
  <unicode hex="004C"/>
  <anchor x="527" y="0" name="bottom"/>
  <anchor x="871" y="1110" name="car"/>
  <anchor x="952" y="1618" name="caron"/>
  <anchor x="278" y="743" name="center"/>
  <anchor x="392" y="1486" name="top"/>
  <anchor x="1279.841" y="1486" name="topright"/>
  <outline>
    <contour>
      <point x="-42" y="0" type="line"/>
      <point x="942" y="0" type="line"/>
      <point x="1041" y="423" type="line"/>
      <point x="978" y="435" type="line"/>
      <point x="838" y="95" type="line"/>
      <point x="257" y="68" type="line"/>
      <point x="441" y="1420" type="line"/>
      <point x="606" y="1450" type="line"/>
      <point x="611" y="1486" type="line"/>
      <point x="164" y="1486" type="line"/>
      <point x="159" y="1450" type="line"/>
      <point x="285" y="1420" type="line"/>
      <point x="99" y="67" type="line"/>
      <point x="-37" y="36" type="line"/>
    </contour>
  </outline>
</glyph>
<glyph name="N" format="2">
  <advance width="1383"/>
  <unicode hex="004E"/>
  <anchor x="740" y="0" name="bottom"/>
  <anchor x="888" y="1486" name="top"/>
  <outline>
    <contour>
      <point x="-42" y="0" type="line"/>
      <point x="375" y="0" type="line"/>
      <point x="380" y="36" type="line"/>
      <point x="224" y="65" type="line"/>
      <point x="377" y="1416" type="line"/>
      <point x="350" y="1413" type="line"/>
      <point x="472" y="1104" type="line"/>
      <point x="1012" y="0" type="line"/>
      <point x="1140" y="0" type="line"/>
      <point x="1338" y="1421" type="line"/>
      <point x="1493" y="1450" type="line"/>
      <point x="1498" y="1486" type="line"/>
      <point x="1081" y="1486" type="line"/>
      <point x="1076" y="1450" type="line"/>
      <point x="1233" y="1421" type="line"/>
      <point x="1077" y="64" type="line"/>
      <point x="1112" y="64" type="line"/>
      <point x="997" y="365" type="line"/>
      <point x="451" y="1486" type="line"/>
      <point x="166" y="1486" type="line"/>
      <point x="161" y="1450" type="line"/>
      <point x="308" y="1420" type="line"/>
      <point x="119" y="65" type="line"/>
      <point x="-36" y="36" type="line"/>
    </contour>
  </outline>
</glyph>
<glyph name="P" format="2">
  <advance width="1110"/>
  <unicode hex="0050"/>
  <anchor x="745.092" y="641" name="tick"/>
  <anchor x="720" y="1486" name="top"/>
  <outline>
    <contour>
      <point x="-42" y="0" type="line"/>
      <point x="503" y="0" type="line"/>
      <point x="508" y="36" type="line"/>
      <point x="256" y="69" type="line"/>
      <point x="445" y="1449" type="line"/>
      <point x="401" y="1422" type="line"/>
      <point x="467" y="1432"/>
      <point x="575" y="1450"/>
      <point x="641" y="1450" type="curve" smooth="yes"/>
      <point x="842" y="1450"/>
      <point x="949" y="1347"/>
      <point x="949" y="1109" type="curve" smooth="yes"/>
      <point x="949" y="793"/>
      <point x="804" y="630"/>
      <point x="519" y="630" type="curve" smooth="yes"/>
      <point x="456" y="630"/>
      <point x="383" y="647"/>
      <point x="318" y="661" type="curve"/>
      <point x="306" y="594" type="line"/>
      <point x="370" y="585"/>
      <point x="414" y="576"/>
      <point x="510" y="576" type="curve" smooth="yes"/>
      <point x="830" y="576"/>
      <point x="1116" y="721"/>
      <point x="1116" y="1124" type="curve" smooth="yes"/>
      <point x="1116" y="1372"/>
      <point x="946" y="1502"/>
      <point x="666" y="1502" type="curve" smooth="yes"/>
      <point x="555" y="1502"/>
      <point x="492" y="1486"/>
      <point x="378" y="1486" type="curve" smooth="yes"/>
      <point x="164" y="1486" type="line"/>
      <point x="159" y="1450" type="line"/>
      <point x="285" y="1420" type="line"/>
      <point x="99" y="67" type="line"/>
      <point x="-37" y="36" type="line"/>
    </contour>
  </outline>
</glyph>
<glyph name="S" format="2">
  <advance width="1064"/>
  <unicode hex="0053"/>
  <anchor x="448" y="0" name="bottom"/>
  <anchor x="654" y="1486" name="top"/>
  <outline>
    <contour>
      <point x="431" y="-22" type="curve" smooth="yes"/>
      <point x="755" y="-22"/>
      <point x="956" y="138"/>
      <point x="956" y="408" type="curve" smooth="yes"/>
      <point x="956" y="618"/>
      <point x="771" y="719"/>
      <point x="610" y="814" type="curve" smooth="yes"/>
      <point x="475" y="895"/>
      <point x="319" y="982"/>
      <point x="319" y="1165" type="curve" smooth="yes"/>
      <point x="319" y="1349"/>
      <point x="460" y="1450"/>
      <point x="640" y="1450" type="curve" smooth="yes"/>
      <point x="774" y="1450"/>
      <point x="853" y="1409"/>
      <point x="900" y="1375" type="curve"/>
      <point x="910" y="1168" type="line"/>
      <point x="969" y="1168" type="line"/>
      <point x="1013" y="1421" type="line"/>
      <point x="955" y="1452"/>
      <point x="798" y="1502"/>
      <point x="646" y="1502" type="curve" smooth="yes"/>
      <point x="347" y="1502"/>
      <point x="177" y="1338"/>
      <point x="177" y="1106" type="curve" smooth="yes"/>
      <point x="177" y="901"/>
      <point x="380" y="782"/>
      <point x="533" y="688" type="curve" smooth="yes"/>
      <point x="662" y="610"/>
      <point x="811" y="530"/>
      <point x="806" y="350" type="curve" smooth="yes"/>
      <point x="806" y="177"/>
      <point x="694" y="30"/>
      <point x="437" y="30" type="curve" smooth="yes"/>
      <point x="320" y="30"/>
      <point x="228" y="71"/>
      <point x="165" y="113" type="curve"/>
      <point x="155" y="336" type="line"/>
      <point x="89" y="336" type="line"/>
      <point x="43" y="63" type="line"/>
      <point x="95" y="27"/>
      <point x="281" y="-22"/>
    </contour>
  </outline>
</glyph>
<glyph name="T" format="2">
  <advance width="1298"/>
  <unicode hex="0054"/>
  <anchor x="595" y="0" name="bottom"/>
  <anchor x="890" y="0" name="bottomright"/>
  <anchor x="684.516" y="743" name="center"/>
  <anchor x="789" y="1486" name="top"/>
  <outline>
    <contour>
      <point x="282" y="0" type="line"/>
      <point x="886" y="0" type="line"/>
      <point x="892" y="36" type="line"/>
      <point x="666" y="66" type="line"/>
      <point x="853" y="1420" type="line"/>
      <point x="1241" y="1404" type="line"/>
      <point x="1274" y="1067" type="line"/>
      <point x="1333" y="1069" type="line"/>
      <point x="1360" y="1486" type="line"/>
      <point x="202" y="1486" type="line"/>
      <point x="121" y="1069" type="line"/>
      <point x="182" y="1071" type="line"/>
      <point x="312" y="1404" type="line"/>
      <point x="697" y="1420" type="line"/>
      <point x="510" y="66" type="line"/>
      <point x="287" y="36" type="line"/>
    </contour>
  </outline>
</glyph>
<glyph name="U" format="2">
  <advance width="1424"/>
  <unicode hex="0055"/>
  <anchor x="642" y="0" name="bottom"/>
  <anchor x="808" y="20" name="ogonek"/>
  <anchor x="844" y="1486" name="top"/>
  <anchor x="1319" y="1486" name="topright"/>
  <outline>
    <contour>
      <point x="1345" y="1421" type="line"/>
      <point x="1489" y="1450" type="line"/>
      <point x="1494" y="1486" type="line"/>
      <point x="1089" y="1486" type="line"/>
      <point x="1084" y="1450" type="line"/>
      <point x="1243" y="1420" type="line"/>
      <point x="1156" y="638" type="line" smooth="yes"/>
      <point x="1109" y="216"/>
      <point x="923" y="52"/>
      <point x="663" y="52" type="curve" smooth="yes"/>
      <point x="375" y="52"/>
      <point x="302" y="248"/>
      <point x="302" y="451" type="curve" smooth="yes"/>
      <point x="302" y="498"/>
      <point x="306" y="546"/>
      <point x="312" y="592" type="curve" smooth="yes"/>
      <point x="426" y="1420" type="line"/>
      <point x="587" y="1450" type="line"/>
      <point x="592" y="1486" type="line"/>
      <point x="149" y="1486" type="line"/>
      <point x="144" y="1450" type="line"/>
      <point x="270" y="1420" type="line"/>
      <point x="154" y="578" type="line" smooth="yes"/>
      <point x="149" y="538"/>
      <point x="145" y="499"/>
      <point x="145" y="459" type="curve" smooth="yes"/>
      <point x="145" y="211"/>
      <point x="265" y="-20"/>
      <point x="642" y="-20" type="curve" smooth="yes"/>
      <point x="977" y="-20"/>
      <point x="1178" y="170"/>
      <point x="1233" y="612" type="curve"/>
    </contour>
  </outline>
</glyph>
<glyph name="V" format="2">
  <advance width="1301"/>
  <unicode hex="0056"/>
  <anchor x="824" y="1660" name="top"/>
  <outline>
    <contour>
      <point x="484" y="-20" type="line"/>
      <point x="608" y="-12" type="line"/>
      <point x="1316" y="1429" type="line"/>
      <point x="1440" y="1450" type="line"/>
      <point x="1445" y="1486" type="line"/>
      <point x="1019" y="1486" type="line"/>
      <point x="1014" y="1450" type="line"/>
      <point x="1208" y="1426" type="line"/>
      <point x="669" y="283" type="line"/>
      <point x="560" y="53" type="line"/>
      <point x="600" y="44" type="line"/>
      <point x="577" y="227" type="line"/>
      <point x="349" y="1420" type="line"/>
      <point x="557" y="1450" type="line"/>
      <point x="562" y="1486" type="line"/>
      <point x="76" y="1486" type="line"/>
      <point x="72" y="1450" type="line"/>
      <point x="190" y="1425" type="line"/>
    </contour>
  </outline>
</glyph>
<glyph name="asciicircum" format="2">
  <advance width="1262"/>
  <unicode hex="005E"/>
  <outline>
    <contour>
      <point x="712" y="1496" type="line"/>
      <point x="127" y="404" type="line"/>
      <point x="215" y="404" type="line"/>
      <point x="741" y="1370" type="line"/>
      <point x="1013" y="404" type="line"/>
      <point x="1109" y="404" type="line"/>
      <point x="796" y="1496" type="line"/>
    </contour>
  </outline>
</glyph>
<glyph name="grave" format="2">
  <advance width="751"/>
  <unicode hex="0060"/>
  <anchor x="565" y="1108" name="_top"/>
  <anchor x="641" y="1657" name="top"/>
  <outline>
    <contour>
      <point x="678" y="1129" type="curve"/>
      <point x="699" y="1147" type="line"/>
      <point x="398" y="1566" type="line"/>
      <point x="273" y="1472" type="line"/>
      <point x="360" y="1368"/>
      <point x="517" y="1236"/>
    </contour>
  </outline>
</glyph>
<glyph name="b" format="2">
  <advance width="1025"/>
  <unicode hex="0062"/>
  <guideline x="432" y="1618" angle="81.5958"/>
  <anchor x="413" y="0" name="bottom"/>
  <anchor x="771" y="1110" name="top"/>
  <outline>
    <contour>
      <point x="306" y="755" type="curve"/>
      <point x="435" y="1618" type="line"/>
      <point x="416" y="1634" type="line"/>
      <point x="133" y="1597" type="line"/>
      <point x="128" y="1571" type="line"/>
      <point x="286" y="1545" type="line"/>
      <point x="50" y="-5" type="line"/>
      <point x="133" y="34" type="line"/>
      <point x="191" y="1"/>
      <point x="266" y="-19"/>
      <point x="389" y="-19" type="curve" smooth="yes"/>
      <point x="775" y="-19"/>
      <point x="1003" y="346"/>
      <point x="1003" y="689" type="curve" smooth="yes"/>
      <point x="1003" y="865"/>
      <point x="904" y="1036"/>
      <point x="685" y="1036" type="curve" smooth="yes"/>
      <point x="534" y="1036"/>
      <point x="383" y="930"/>
    </contour>
    <contour>
      <point x="207" y="108" type="curve"/>
      <point x="287" y="627" type="line"/>
      <point x="339" y="828"/>
      <point x="499" y="972"/>
      <point x="650" y="972" type="curve" smooth="yes"/>
      <point x="774" y="972"/>
      <point x="849" y="865"/>
      <point x="849" y="692" type="curve" smooth="yes"/>
      <point x="849" y="350"/>
      <point x="657" y="23"/>
      <point x="391" y="23" type="curve" smooth="yes"/>
      <point x="297" y="23"/>
      <point x="231" y="63"/>
    </contour>
  </outline>
</glyph>
<glyph name="d" format="2">
  <advance width="1050"/>
  <unicode hex="0064"/>
  <guideline x="959" y="880" angle="81.3005"/>
  <guideline x="1045" y="1633" angle="0"/>
  <anchor x="486" y="0" name="bottom"/>
  <anchor x="1158" y="1622" name="caron"/>
  <anchor x="351" y="1110" name="top"/>
  <outline>
    <contour>
      <point x="844" y="141" type="curve"/>
      <point x="1070" y="1618" type="line"/>
      <point x="1051" y="1634" type="line"/>
      <point x="756" y="1597" type="line"/>
      <point x="751" y="1571" type="line"/>
      <point x="920" y="1544" type="line"/>
      <point x="839" y="996" type="line"/>
      <point x="819" y="1011"/>
      <point x="758" y="1035"/>
      <point x="640" y="1035" type="curve" smooth="yes"/>
      <point x="299" y="1035"/>
      <point x="24" y="725"/>
      <point x="24" y="325" type="curve" smooth="yes"/>
      <point x="24" y="133"/>
      <point x="146" y="-21"/>
      <point x="344" y="-21" type="curve" smooth="yes"/>
      <point x="498" y="-21"/>
      <point x="667" y="100"/>
      <point x="726" y="261" type="curve"/>
      <point x="703" y="132" type="line" smooth="yes"/>
      <point x="687" y="42"/>
      <point x="713" y="-21"/>
      <point x="803" y="-21" type="curve" smooth="yes"/>
      <point x="902" y="-21"/>
      <point x="981" y="41"/>
      <point x="1014" y="95" type="curve"/>
      <point x="996" y="124" type="line"/>
      <point x="959" y="78"/>
      <point x="913" y="58"/>
      <point x="887" y="58" type="curve" smooth="yes"/>
      <point x="841" y="58"/>
      <point x="838" y="98"/>
    </contour>
    <contour>
      <point x="822" y="904" type="curve"/>
      <point x="742" y="393" type="line"/>
      <point x="692" y="172"/>
      <point x="504" y="43"/>
      <point x="377" y="43" type="curve" smooth="yes"/>
      <point x="258" y="43"/>
      <point x="179" y="162"/>
      <point x="179" y="324" type="curve" smooth="yes"/>
      <point x="179" y="674"/>
      <point x="383" y="993"/>
      <point x="632" y="993" type="curve" smooth="yes"/>
      <point x="716" y="993"/>
      <point x="801" y="954"/>
    </contour>
  </outline>
</glyph>
<glyph name="f" format="2">
  <advance width="624"/>
  <unicode hex="0066"/>
  <anchor x="261" y="1544" name="top"/>
  <outline>
    <contour>
      <point x="263" y="1150" type="curve" smooth="yes"/>
      <point x="243" y="1005" type="line"/>
      <point x="61" y="941" type="line"/>
      <point x="56" y="917" type="line"/>
      <point x="231" y="917" type="line"/>
      <point x="127" y="156" type="line" smooth="yes"/>
      <point x="60" y="-334"/>
      <point x="-12" y="-458"/>
      <point x="-126" y="-458" type="curve" smooth="yes"/>
      <point x="-178" y="-458"/>
      <point x="-233" y="-390"/>
      <point x="-252" y="-349" type="curve"/>
      <point x="-288" y="-474" type="line"/>
      <point x="-243" y="-493"/>
      <point x="-188" y="-504"/>
      <point x="-135" y="-504" type="curve" smooth="yes"/>
      <point x="77" y="-504"/>
      <point x="199" y="-327"/>
      <point x="261" y="126" type="curve" smooth="yes"/>
      <point x="369" y="917" type="line"/>
      <point x="633" y="917" type="line"/>
      <point x="644" y="1005" type="line"/>
      <point x="382" y="1005" type="line"/>
      <point x="403" y="1163" type="line" smooth="yes"/>
      <point x="443" y="1462"/>
      <point x="519" y="1583"/>
      <point x="646" y="1583" type="curve" smooth="yes"/>
      <point x="717" y="1583"/>
      <point x="776" y="1509"/>
      <point x="793" y="1455" type="curve"/>
      <point x="839" y="1595" type="line"/>
      <point x="789" y="1617"/>
      <point x="730" y="1629"/>
      <point x="647" y="1629" type="curve" smooth="yes"/>
      <point x="457" y="1629"/>
      <point x="310" y="1488"/>
    </contour>
  </outline>
</glyph>
<glyph name="u" format="2">
  <advance width="1054"/>
  <unicode hex="0075"/>
  <anchor x="480" y="0" name="bottom"/>
  <anchor x="941" y="0" name="bottomright"/>
  <anchor x="882" y="0" name="ogonek"/>
  <anchor x="599" y="1110" name="top"/>
  <anchor x="878" y="1005" name="topright"/>
  <outline>
    <contour>
      <point x="273" y="-21" type="curve" smooth="yes"/>
      <point x="470" y="-21"/>
      <point x="637" y="163"/>
      <point x="748" y="406" type="curve"/>
      <point x="750" y="406" type="line"/>
      <point x="738" y="321"/>
      <point x="703" y="124"/>
      <point x="703" y="91" type="curve" smooth="yes"/>
      <point x="703" y="42"/>
      <point x="723" y="-21"/>
      <point x="807" y="-21" type="curve" smooth="yes"/>
      <point x="906" y="-21"/>
      <point x="985" y="41"/>
      <point x="1018" y="95" type="curve"/>
      <point x="1000" y="124" type="line"/>
      <point x="961" y="77"/>
      <point x="917" y="58"/>
      <point x="890" y="58" type="curve" smooth="yes"/>
      <point x="843" y="58"/>
      <point x="843" y="93"/>
      <point x="848" y="141" type="curve"/>
      <point x="980" y="1005" type="line"/>
      <point x="841" y="1005" type="line"/>
      <point x="769" y="526" type="line"/>
      <point x="671" y="256"/>
      <point x="485" y="67"/>
      <point x="333" y="67" type="curve" smooth="yes"/>
      <point x="262" y="67"/>
      <point x="235" y="106"/>
      <point x="235" y="187" type="curve" smooth="yes"/>
      <point x="235" y="221"/>
      <point x="272" y="464"/>
      <point x="283" y="540" type="curve" smooth="yes"/>
      <point x="352" y="1005" type="line"/>
      <point x="321" y="1025" type="line"/>
      <point x="64" y="979" type="line"/>
      <point x="60" y="954" type="line"/>
      <point x="197" y="923" type="line"/>
      <point x="143" y="558" type="line" smooth="yes"/>
      <point x="132" y="484"/>
      <point x="90" y="221"/>
      <point x="90" y="172" type="curve" smooth="yes"/>
      <point x="90" y="50"/>
      <point x="151" y="-21"/>
    </contour>
  </outline>
</glyph>
<glyph name="y" format="2">
  <advance width="936"/>
  <unicode hex="0079"/>
  <anchor x="827" y="0" name="bottom"/>
  <anchor x="564" y="1110" name="top"/>
  <outline>
    <contour>
      <point x="166" y="868" type="curve" smooth="yes"/>
      <point x="337" y="-50" type="line"/>
      <point x="426" y="-50" type="line"/>
      <point x="296" y="-278"/>
      <point x="194" y="-403"/>
      <point x="96" y="-403" type="curve" smooth="yes"/>
      <point x="37" y="-403"/>
      <point x="-16" y="-364"/>
      <point x="-57" y="-324" type="curve"/>
      <point x="-94" y="-450" type="line"/>
      <point x="-47" y="-480"/>
      <point x="2" y="-495"/>
      <point x="68" y="-495" type="curve" smooth="yes"/>
      <point x="161" y="-495"/>
      <point x="242" y="-423"/>
      <point x="378" y="-212" type="curve" smooth="yes"/>
      <point x="492" y="-36"/>
      <point x="684" y="297"/>
      <point x="760" y="426" type="curve" smooth="yes"/>
      <point x="899" y="662"/>
      <point x="933" y="775"/>
      <point x="933" y="886" type="curve" smooth="yes"/>
      <point x="933" y="981"/>
      <point x="895" y="1038"/>
      <point x="840" y="1038" type="curve" smooth="yes"/>
      <point x="799" y="1038"/>
      <point x="764" y="1006"/>
      <point x="764" y="961" type="curve" smooth="yes"/>
      <point x="764" y="889"/>
      <point x="825" y="860"/>
      <point x="825" y="786" type="curve" smooth="yes"/>
      <point x="825" y="688"/>
      <point x="753" y="540"/>
      <point x="590" y="245" type="curve" smooth="yes"/>
      <point x="451" y="-7" type="line"/>
      <point x="410" y="226" type="line"/>
      <point x="366" y="494"/>
      <point x="336" y="703"/>
      <point x="307" y="911" type="curve" smooth="yes"/>
      <point x="296" y="988"/>
      <point x="276" y="1037"/>
      <point x="194" y="1037" type="curve" smooth="yes"/>
      <point x="114" y="1037"/>
      <point x="43" y="981"/>
      <point x="3" y="924" type="curve"/>
      <point x="19" y="897" type="line"/>
      <point x="50" y="929"/>
      <point x="85" y="948"/>
      <point x="114" y="948" type="curve" smooth="yes"/>
      <point x="146" y="948"/>
      <point x="154" y="930"/>
    </contour>
  </outline>
</glyph>
<glyph name="braceleft" format="2">
  <advance width="883"/>
  <unicode hex="007B"/>
  <outline>
    <contour>
      <point x="474" y="-238" type="curve" smooth="yes"/>
      <point x="545" y="-238"/>
      <point x="623" y="-224"/>
      <point x="691" y="-204" type="curve"/>
      <point x="697" y="-159" type="line"/>
      <point x="681" y="-163"/>
      <point x="591" y="-167"/>
      <point x="571" y="-167" type="curve" smooth="yes"/>
      <point x="451" y="-167"/>
      <point x="309" y="-130"/>
      <point x="333" y="46" type="curve" smooth="yes"/>
      <point x="351" y="176"/>
      <point x="437" y="349"/>
      <point x="457" y="493" type="curve" smooth="yes"/>
      <point x="474" y="618"/>
      <point x="397" y="691"/>
      <point x="239" y="712" type="curve"/>
      <point x="403" y="735"/>
      <point x="500" y="794"/>
      <point x="518" y="923" type="curve" smooth="yes"/>
      <point x="538" y="1067"/>
      <point x="505" y="1236"/>
      <point x="523" y="1366" type="curve" smooth="yes"/>
      <point x="547" y="1538"/>
      <point x="704" y="1578"/>
      <point x="822" y="1578" type="curve" smooth="yes"/>
      <point x="837" y="1578"/>
      <point x="931" y="1576"/>
      <point x="946" y="1572" type="curve"/>
      <point x="952" y="1617" type="line"/>
      <point x="881" y="1637"/>
      <point x="831" y="1649"/>
      <point x="755" y="1649" type="curve" smooth="yes"/>
      <point x="552" y="1649"/>
      <point x="432" y="1556"/>
      <point x="409" y="1394" type="curve" smooth="yes"/>
      <point x="383" y="1208"/>
      <point x="460" y="1073"/>
      <point x="441" y="933" type="curve" smooth="yes"/>
      <point x="424" y="809"/>
      <point x="326" y="746"/>
      <point x="74" y="748" type="curve"/>
      <point x="65" y="686" type="line"/>
      <point x="318" y="688"/>
      <point x="395" y="613"/>
      <point x="377" y="485" type="curve" smooth="yes"/>
      <point x="357" y="345"/>
      <point x="237" y="204"/>
      <point x="210" y="16" type="curve" smooth="yes"/>
      <point x="187" y="-144"/>
      <point x="286" y="-238"/>
    </contour>
  </outline>
</glyph>
<glyph name="cent" format="2">
  <advance width="1071"/>
  <unicode hex="00A2"/>
  <outline>
    <contour>
      <point x="374" y="-238" type="line"/>
      <point x="449" y="-238" type="line"/>
      <point x="496" y="-18" type="line"/>
      <point x="667" y="-8"/>
      <point x="787" y="60"/>
      <point x="861" y="150" type="curve"/>
      <point x="845" y="188" type="line"/>
      <point x="753" y="95"/>
      <point x="639" y="44"/>
      <point x="526" y="44" type="curve" smooth="yes"/>
      <point x="348" y="44"/>
      <point x="290" y="168"/>
      <point x="290" y="338" type="curve" smooth="yes"/>
      <point x="290" y="693"/>
      <point x="513" y="988"/>
      <point x="716" y="988" type="curve" smooth="yes"/>
      <point x="820" y="988"/>
      <point x="837" y="957"/>
      <point x="882" y="773" type="curve"/>
      <point x="905" y="773" type="line"/>
      <point x="966" y="985" type="line"/>
      <point x="909" y="1016"/>
      <point x="820" y="1031"/>
      <point x="735" y="1031" type="curve"/>
      <point x="791" y="1284" type="line"/>
      <point x="716" y="1284" type="line"/>
      <point x="659" y="1025" type="line"/>
      <point x="344" y="979"/>
      <point x="134" y="641"/>
      <point x="134" y="347" type="curve" smooth="yes"/>
      <point x="134" y="134"/>
      <point x="239" y="-4"/>
      <point x="422" y="-16" type="curve"/>
    </contour>
  </outline>
</glyph>
<glyph name="sterling" format="2">
  <advance width="1445"/>
  <unicode hex="00A3"/>
  <outline>
    <contour>
      <point x="890" y="-14" type="curve" smooth="yes"/>
      <point x="1125" y="-14"/>
      <point x="1326" y="159"/>
      <point x="1326" y="350" type="curve" smooth="yes"/>
      <point x="1326" y="415"/>
      <point x="1303" y="464"/>
      <point x="1263" y="496" type="curve"/>
      <point x="1107" y="496" type="line"/>
      <point x="1156" y="457"/>
      <point x="1180" y="402"/>
      <point x="1180" y="338" type="curve" smooth="yes"/>
      <point x="1180" y="185"/>
      <point x="1094" y="62"/>
      <point x="907" y="62" type="curve" smooth="yes"/>
      <point x="746" y="62"/>
      <point x="557" y="149"/>
      <point x="395" y="163" type="curve"/>
      <point x="431" y="214"/>
      <point x="511" y="349"/>
      <point x="540" y="544" type="curve" smooth="yes"/>
      <point x="552" y="622"/>
      <point x="563" y="700"/>
      <point x="575" y="778" type="curve"/>
      <point x="899" y="778" type="line"/>
      <point x="908" y="846" type="line"/>
      <point x="585" y="846" type="line"/>
      <point x="594" y="908"/>
      <point x="603" y="971"/>
      <point x="612" y="1033" type="curve" smooth="yes"/>
      <point x="665" y="1386"/>
      <point x="846" y="1452"/>
      <point x="952" y="1452" type="curve" smooth="yes"/>
      <point x="1058" y="1452"/>
      <point x="1118" y="1389"/>
      <point x="1156" y="1315" type="curve"/>
      <point x="1272" y="1408" type="line"/>
      <point x="1225" y="1460"/>
      <point x="1142" y="1502"/>
      <point x="1025" y="1502" type="curve" smooth="yes"/>
      <point x="773" y="1502"/>
      <point x="516" y="1309"/>
      <point x="467" y="997" type="curve" smooth="yes"/>
      <point x="460" y="953"/>
      <point x="452" y="897"/>
      <point x="444" y="846" type="curve"/>
      <point x="246" y="846" type="line"/>
      <point x="237" y="778" type="line"/>
      <point x="434" y="778" type="line"/>
      <point x="423" y="704"/>
      <point x="401" y="554"/>
      <point x="397" y="526" type="curve" smooth="yes"/>
      <point x="376" y="393"/>
      <point x="327" y="230"/>
      <point x="302" y="172" type="curve"/>
      <point x="160" y="175"/>
      <point x="47" y="121"/>
      <point x="47" y="59" type="curve" smooth="yes"/>
      <point x="47" y="25"/>
      <point x="88" y="0"/>
      <point x="137" y="0" type="curve" smooth="yes"/>
      <point x="215" y="0"/>
      <point x="288" y="51"/>
      <point x="348" y="114" type="curve"/>
      <point x="532" y="112"/>
      <point x="689" y="-14"/>
    </contour>
  </outline>
</glyph>
<glyph name="section" format="2">
  <advance width="1168"/>
  <unicode hex="00A7"/>
  <outline>
    <contour>
      <point x="1011" y="161" type="curve" smooth="yes"/>
      <point x="1011" y="253"/>
      <point x="972" y="324"/>
      <point x="907" y="374" type="curve"/>
      <point x="999" y="430"/>
      <point x="1115" y="525"/>
      <point x="1115" y="682" type="curve" smooth="yes"/>
      <point x="1115" y="1068"/>
      <point x="418" y="1005"/>
      <point x="418" y="1333" type="curve" smooth="yes"/>
      <point x="418" y="1483"/>
      <point x="564" y="1595"/>
      <point x="767" y="1595" type="curve" smooth="yes"/>
      <point x="889" y="1595"/>
      <point x="968" y="1555"/>
      <point x="1002" y="1528" type="curve"/>
      <point x="1036" y="1264" type="line"/>
      <point x="1098" y="1264" type="line"/>
      <point x="1144" y="1572" type="line"/>
      <point x="1097" y="1572"/>
      <point x="983" y="1644"/>
      <point x="785" y="1644" type="curve" smooth="yes"/>
      <point x="490" y="1644"/>
      <point x="271" y="1484"/>
      <point x="271" y="1281" type="curve" smooth="yes"/>
      <point x="271" y="1189"/>
      <point x="315" y="1125"/>
      <point x="384" y="1074" type="curve"/>
      <point x="316" y="1032"/>
      <point x="173" y="939"/>
      <point x="173" y="761" type="curve" smooth="yes"/>
      <point x="173" y="373"/>
      <point x="858" y="432"/>
      <point x="858" y="108" type="curve" smooth="yes"/>
      <point x="858" y="-38"/>
      <point x="719" y="-149"/>
      <point x="499" y="-149" type="curve" smooth="yes"/>
      <point x="355" y="-149"/>
      <point x="256" y="-101"/>
      <point x="223" y="-63" type="curve"/>
      <point x="191" y="223" type="line"/>
      <point x="111" y="223" type="line"/>
      <point x="71" y="-106" type="line"/>
      <point x="130" y="-112"/>
      <point x="236" y="-198"/>
      <point x="483" y="-198" type="curve" smooth="yes"/>
      <point x="807" y="-198"/>
      <point x="1011" y="-49"/>
    </contour>
    <contour>
      <point x="961" y="627" type="curve" smooth="yes"/>
      <point x="961" y="548"/>
      <point x="921" y="456"/>
      <point x="858" y="411" type="curve"/>
      <point x="539" y="576"/>
      <point x="317" y="617"/>
      <point x="317" y="818" type="curve" smooth="yes"/>
      <point x="317" y="905"/>
      <point x="359" y="987"/>
      <point x="427" y="1038" type="curve"/>
      <point x="620" y="913"/>
      <point x="961" y="858"/>
    </contour>
  </outline>
</glyph>
<glyph name="guillemetleft" format="2">
  <advance width="1161"/>
  <unicode hex="00AB"/>
  <outline>
    <contour>
      <point x="663" y="1116" type="line"/>
      <point x="128" y="686" type="line"/>
      <point x="99" y="571" type="line"/>
      <point x="485" y="131" type="line"/>
      <point x="514" y="152" type="line"/>
      <point x="262" y="622" type="line"/>
      <point x="687" y="1091" type="line"/>
    </contour>
    <contour>
      <point x="1125" y="1096" type="line"/>
      <point x="610" y="686" type="line"/>
      <point x="581" y="571" type="line"/>
      <point x="947" y="151" type="line"/>
      <point x="976" y="172" type="line"/>
      <point x="744" y="622" type="line"/>
      <point x="1149" y="1071" type="line"/>
    </contour>
  </outline>
</glyph>
<glyph name="macron" format="2">
  <advance width="792"/>
  <unicode hex="00AF"/>
  <anchor x="480" y="1110" name="_top"/>
  <anchor x="513" y="1370" name="top"/>
  <outline>
    <contour>
      <point x="250" y="1298" type="line"/>
      <point x="235" y="1197" type="line"/>
      <point x="747" y="1197" type="line"/>
      <point x="761" y="1298" type="line"/>
    </contour>
  </outline>
</glyph>
<glyph name="degree" format="2">
  <advance width="773"/>
  <unicode hex="00B0"/>
  <outline>
    <contour>
      <point x="498" y="1053" type="curve" smooth="yes"/>
      <point x="643" y="1053"/>
      <point x="762" y="1174"/>
      <point x="762" y="1317" type="curve" smooth="yes"/>
      <point x="762" y="1469"/>
      <point x="644" y="1581"/>
      <point x="499" y="1581" type="curve" smooth="yes"/>
      <point x="354" y="1581"/>
      <point x="234" y="1469"/>
      <point x="234" y="1317" type="curve" smooth="yes"/>
      <point x="234" y="1174"/>
      <point x="353" y="1053"/>
    </contour>
    <contour>
      <point x="498" y="1119" type="curve" smooth="yes"/>
      <point x="396" y="1119"/>
      <point x="315" y="1212"/>
      <point x="315" y="1317" type="curve" smooth="yes"/>
      <point x="315" y="1429"/>
      <point x="391" y="1515"/>
      <point x="499" y="1515" type="curve" smooth="yes"/>
      <point x="607" y="1515"/>
      <point x="681" y="1429"/>
      <point x="681" y="1317" type="curve" smooth="yes"/>
      <point x="681" y="1212"/>
      <point x="600" y="1119"/>
    </contour>
  </outline>
</glyph>
<glyph name="acute" format="2">
  <advance width="630"/>
  <unicode hex="00B4"/>
  <anchor x="358" y="1110" name="_top"/>
  <anchor x="297" y="1517" name="top"/>
  <outline>
    <contour>
      <point x="231" y="1167" type="line"/>
      <point x="251" y="1149" type="line"/>
      <point x="403" y="1256"/>
      <point x="541" y="1368"/>
      <point x="623" y="1472" type="curve"/>
      <point x="505" y="1566" type="line"/>
    </contour>
  </outline>
</glyph>
<glyph name="guillemetright" format="2">
  <advance width="1161"/>
  <unicode hex="00BB"/>
  <outline>
    <contour>
      <point x="531" y="131" type="line"/>
      <point x="1066" y="561" type="line"/>
      <point x="1095" y="676" type="line"/>
      <point x="709" y="1116" type="line"/>
      <point x="680" y="1095" type="line"/>
      <point x="932" y="625" type="line"/>
      <point x="507" y="156" type="line"/>
    </contour>
    <contour>
      <point x="69" y="151" type="line"/>
      <point x="584" y="561" type="line"/>
      <point x="613" y="676" type="line"/>
      <point x="247" y="1096" type="line"/>
      <point x="218" y="1075" type="line"/>
      <point x="450" y="625" type="line"/>
      <point x="45" y="176" type="line"/>
    </contour>
  </outline>
</glyph>
<glyph name="AE" format="2">
  <advance width="1936"/>
  <unicode hex="00C6"/>
  <anchor x="1182" y="1486" name="top"/>
  <outline>
    <contour>
      <point x="-161" y="0" type="line"/>
      <point x="318" y="0" type="line"/>
      <point x="323" y="36" type="line"/>
      <point x="147" y="59" type="line"/>
      <point x="358" y="482" type="line"/>
      <point x="881" y="482" type="line"/>
      <point x="822" y="67" type="line"/>
      <point x="664" y="36" type="line"/>
      <point x="659" y="0" type="line"/>
      <point x="1769" y="0" type="line"/>
      <point x="1855" y="308" type="line"/>
      <point x="1791" y="325" type="line"/>
      <point x="1677" y="95" type="line"/>
      <point x="979" y="69" type="line"/>
      <point x="1072" y="733" type="line"/>
      <point x="1581" y="718" type="line"/>
      <point x="1595" y="809" type="line"/>
      <point x="1081" y="799" type="line"/>
      <point x="1164" y="1420" type="line"/>
      <point x="1736" y="1400" type="line"/>
      <point x="1781" y="1184" type="line"/>
      <point x="1832" y="1184" type="line"/>
      <point x="1836" y="1486" type="line"/>
      <point x="540" y="1486" type="line"/>
      <point x="536" y="1450" type="line"/>
      <point x="774" y="1421" type="line"/>
      <point x="-15" y="58" type="line"/>
      <point x="-156" y="36" type="line"/>
    </contour>
    <contour>
      <point x="389" y="548" type="line"/>
      <point x="859" y="1421" type="line"/>
      <point x="1009" y="1421" type="line"/>
      <point x="889" y="548" type="line"/>
    </contour>
  </outline>
</glyph>
<glyph name="Thorn" format="2">
  <advance width="1093"/>
  <unicode hex="00DE"/>
  <outline>
    <contour>
      <point x="-42" y="0" type="line"/>
      <point x="430" y="0" type="line"/>
      <point x="436" y="36" type="line"/>
      <point x="277" y="67" type="line"/>
      <point x="315" y="339" type="line"/>
      <point x="370" y="335"/>
      <point x="449" y="331"/>
      <point x="513" y="331" type="curve" smooth="yes"/>
      <point x="847" y="331"/>
      <point x="1123" y="502"/>
      <point x="1123" y="798" type="curve" smooth="yes"/>
      <point x="1123" y="1044"/>
      <point x="965" y="1153"/>
      <point x="639" y="1153" type="curve" smooth="yes"/>
      <point x="562" y="1153"/>
      <point x="496" y="1151"/>
      <point x="426" y="1143" type="curve"/>
      <point x="464" y="1420" type="line"/>
      <point x="618" y="1450" type="line"/>
      <point x="623" y="1486" type="line"/>
      <point x="165" y="1486" type="line"/>
      <point x="160" y="1450" type="line"/>
      <point x="308" y="1420" type="line"/>
      <point x="121" y="67" type="line"/>
      <point x="-37" y="36" type="line"/>
    </contour>
    <contour>
      <point x="419" y="1092" type="line"/>
      <point x="477" y="1099"/>
      <point x="556" y="1103"/>
      <point x="610" y="1103" type="curve" smooth="yes"/>
      <point x="856" y="1103"/>
      <point x="950" y="992"/>
      <point x="950" y="821" type="curve" smooth="yes"/>
      <point x="950" y="557"/>
      <point x="809" y="385"/>
      <point x="518" y="385" type="curve" smooth="yes"/>
      <point x="475" y="385"/>
      <point x="385" y="390"/>
      <point x="323" y="398" type="curve"/>
    </contour>
  </outline>
</glyph>
<glyph name="ae" format="2">
  <advance width="1580"/>
  <unicode hex="00E6"/>
  <anchor x="970" y="1110" name="top"/>
  <outline>
    <contour>
      <point x="956" y="1018" type="line"/>
      <point x="868" y="976" type="line"/>
      <point x="822" y="1003"/>
      <point x="750" y="1031"/>
      <point x="631" y="1031" type="curve" smooth="yes"/>
      <point x="291" y="1031"/>
      <point x="22" y="693"/>
      <point x="22" y="322" type="curve" smooth="yes"/>
      <point x="22" y="135"/>
      <point x="134" y="-21"/>
      <point x="335" y="-21" type="curve" smooth="yes"/>
      <point x="463" y="-21"/>
      <point x="640" y="70"/>
      <point x="719" y="290" type="curve"/>
      <point x="745" y="90"/>
      <point x="877" y="-19"/>
      <point x="1082" y="-19" type="curve" smooth="yes"/>
      <point x="1261" y="-19"/>
      <point x="1413" y="66"/>
      <point x="1485" y="157" type="curve"/>
      <point x="1468" y="193" type="line"/>
      <point x="1367" y="100"/>
      <point x="1259" y="49"/>
      <point x="1133" y="49" type="curve" smooth="yes"/>
      <point x="921" y="49"/>
      <point x="858" y="236"/>
      <point x="871" y="441" type="curve"/>
      <point x="1287" y="448"/>
      <point x="1552" y="598"/>
      <point x="1552" y="842" type="curve" smooth="yes"/>
      <point x="1552" y="969"/>
      <point x="1463" y="1031"/>
      <point x="1311" y="1031" type="curve" smooth="yes"/>
      <point x="1155" y="1031"/>
      <point x="1029" y="969"/>
      <point x="931" y="878" type="curve"/>
    </contour>
    <contour>
      <point x="711" y="374" type="line"/>
      <point x="665" y="171"/>
      <point x="497" y="43"/>
      <point x="367" y="43" type="curve" smooth="yes"/>
      <point x="245" y="43"/>
      <point x="177" y="163"/>
      <point x="177" y="315" type="curve" smooth="yes"/>
      <point x="177" y="643"/>
      <point x="375" y="989"/>
      <point x="631" y="989" type="curve" smooth="yes"/>
      <point x="707" y="989"/>
      <point x="772" y="965"/>
      <point x="793" y="912" type="curve"/>
    </contour>
    <contour>
      <point x="1304" y="990" type="curve" smooth="yes"/>
      <point x="1377" y="990"/>
      <point x="1409" y="950"/>
      <point x="1409" y="886" type="curve" smooth="yes"/>
      <point x="1409" y="695"/>
      <point x="1247" y="500"/>
      <point x="872" y="471" type="curve"/>
      <point x="906" y="759"/>
      <point x="1095" y="990"/>
    </contour>
  </outline>
</glyph>
<glyph name="OE" format="2">
  <advance width="2293"/>
  <unicode hex="0152"/>
  <outline>
    <contour>
      <point x="1189" y="0" type="line"/>
      <point x="2127" y="0" type="line"/>
      <point x="2212" y="308" type="line"/>
      <point x="2146" y="327" type="line"/>
      <point x="2033" y="95" type="line"/>
      <point x="1353" y="68" type="line"/>
      <point x="1445" y="733" type="line"/>
      <point x="1949" y="716" type="line"/>
      <point x="1961" y="816" type="line"/>
      <point x="1454" y="796" type="line"/>
      <point x="1540" y="1423" type="line"/>
      <point x="2095" y="1400" type="line"/>
      <point x="2141" y="1184" type="line"/>
      <point x="2195" y="1184" type="line"/>
      <point x="2199" y="1486" type="line"/>
      <point x="1393" y="1486" type="line"/>
      <point x="1348" y="1155" type="line"/>
      <point x="1264" y="1376"/>
      <point x="1077" y="1503"/>
      <point x="860" y="1503" type="curve" smooth="yes"/>
      <point x="399" y="1503"/>
      <point x="80" y="1129"/>
      <point x="80" y="603" type="curve" smooth="yes"/>
      <point x="80" y="214"/>
      <point x="321" y="-22"/>
      <point x="653" y="-22" type="curve" smooth="yes"/>
      <point x="891" y="-22"/>
      <point x="1095" y="96"/>
      <point x="1229" y="293" type="curve"/>
    </contour>
    <contour>
      <point x="676" y="29" type="curve" smooth="yes"/>
      <point x="437" y="29"/>
      <point x="249" y="244"/>
      <point x="249" y="611" type="curve" smooth="yes"/>
      <point x="249" y="1099"/>
      <point x="505" y="1452"/>
      <point x="837" y="1452" type="curve" smooth="yes"/>
      <point x="1076" y="1452"/>
      <point x="1264" y="1237"/>
      <point x="1264" y="870" type="curve" smooth="yes"/>
      <point x="1264" y="382"/>
      <point x="1008" y="29"/>
    </contour>
  </outline>
</glyph>
<glyph name="florin" format="2">
  <advance width="824"/>
  <unicode hex="0192"/>
  <outline>
    <contour>
      <point x="343" y="1082" type="curve" smooth="yes"/>
      <point x="339" y="1047" type="line"/>
      <point x="152" y="1014" type="line"/>
      <point x="150" y="978" type="line"/>
      <point x="329" y="978" type="line"/>
      <point x="174" y="-348" type="line"/>
      <point x="308" y="-348" type="line"/>
      <point x="468" y="978" type="line"/>
      <point x="755" y="978" type="line"/>
      <point x="761" y="1044" type="line"/>
      <point x="475" y="1044" type="line"/>
      <point x="486" y="1148" type="line" smooth="yes"/>
      <point x="517" y="1443"/>
      <point x="573" y="1555"/>
      <point x="672" y="1555" type="curve" smooth="yes"/>
      <point x="733" y="1555"/>
      <point x="791" y="1530"/>
      <point x="835" y="1493" type="curve"/>
      <point x="839" y="1625" type="line"/>
      <point x="820" y="1639"/>
      <point x="795" y="1646"/>
      <point x="768" y="1646" type="curve" smooth="yes"/>
      <point x="555" y="1646"/>
      <point x="374" y="1356"/>
    </contour>
  </outline>
</glyph>
<glyph name="Ezh" format="2">
  <advance width="1223"/>
  <unicode hex="01B7"/>
  <anchor x="738" y="1486" name="top"/>
  <outline>
    <contour>
      <point x="759" y="809" type="line"/>
      <point x="1268" y="1450" type="line"/>
      <point x="1241" y="1486" type="line"/>
      <point x="255" y="1486" type="line"/>
      <point x="197" y="1150" type="line"/>
      <point x="251" y="1141" type="line"/>
      <point x="365" y="1406" type="line"/>
      <point x="1081" y="1424" type="line"/>
      <point x="877" y="1191" type="line"/>
      <point x="577" y="811" type="line"/>
      <point x="607" y="778" type="line"/>
      <point x="627" y="785"/>
      <point x="673" y="791"/>
      <point x="704" y="791" type="curve" smooth="yes"/>
      <point x="900" y="789"/>
      <point x="967" y="630"/>
      <point x="967" y="478" type="curve" smooth="yes"/>
      <point x="967" y="194"/>
      <point x="802" y="37"/>
      <point x="484" y="36" type="curve" smooth="yes"/>
      <point x="341" y="37"/>
      <point x="269" y="73"/>
      <point x="219" y="96" type="curve"/>
      <point x="210" y="388" type="line"/>
      <point x="125" y="388" type="line"/>
      <point x="64" y="51" type="line"/>
      <point x="116" y="52"/>
      <point x="287" y="-16"/>
      <point x="481" y="-16" type="curve" smooth="yes"/>
      <point x="858" y="-16"/>
      <point x="1131" y="150"/>
      <point x="1131" y="482" type="curve" smooth="yes"/>
      <point x="1131" y="625"/>
      <point x="1030" y="835"/>
      <point x="768" y="845" type="curve"/>
    </contour>
  </outline>
</glyph>
<glyph name="circumflex" format="2">
  <advance width="803"/>
  <unicode hex="02C6"/>
  <anchor x="501" y="1110" name="_top"/>
  <anchor x="569" y="1612" name="top"/>
  <outline>
    <contour>
      <point x="252" y="1129" type="line"/>
      <point x="384" y="1245"/>
      <point x="464" y="1344"/>
      <point x="550" y="1440" type="curve"/>
      <point x="621" y="1315"/>
      <point x="671" y="1214"/>
      <point x="724" y="1129" type="curve"/>
      <point x="750" y="1136" type="line"/>
      <point x="642" y="1566" type="line"/>
      <point x="501" y="1566" type="line"/>
      <point x="228" y="1143" type="line"/>
    </contour>
  </outline>
</glyph>
<glyph name="caron" format="2">
  <advance width="833"/>
  <unicode hex="02C7"/>
  <anchor x="496" y="1110" name="_top"/>
  <anchor x="549" y="1499" name="top"/>
  <outline>
    <contour>
      <point x="285" y="1558" type="line"/>
      <point x="433" y="1128" type="line"/>
      <point x="574" y="1128" type="line"/>
      <point x="837" y="1551" type="line"/>
      <point x="813" y="1565" type="line"/>
      <point x="681" y="1449"/>
      <point x="603" y="1350"/>
      <point x="517" y="1254" type="curve"/>
      <point x="446" y="1379"/>
      <point x="364" y="1480"/>
      <point x="311" y="1565" type="curve"/>
    </contour>
  </outline>
</glyph>
<glyph name="dotaccentcomb" format="2">
  <unicode hex="0307"/>
  <anchor x="201" y="1110" name="_top"/>
  <anchor x="240" y="1411" name="top"/>
  <outline>
    <contour>
      <point x="205" y="1157" type="curve" smooth="yes"/>
      <point x="278" y="1157"/>
      <point x="324" y="1209"/>
      <point x="324" y="1299" type="curve" smooth="yes"/>
      <point x="324" y="1355"/>
      <point x="291" y="1391"/>
      <point x="236" y="1391" type="curve" smooth="yes"/>
      <point x="165" y="1391"/>
      <point x="120" y="1339"/>
      <point x="120" y="1249" type="curve" smooth="yes"/>
      <point x="120" y="1198"/>
      <point x="153" y="1157"/>
    </contour>
  </outline>
</glyph>
<glyph name="caroncomb" format="2">
  <unicode hex="030C"/>
  <anchor x="366" y="1110" name="_top"/>
  <anchor x="419" y="1499" name="top"/>
  <outline>
    <contour>
      <point x="155" y="1558" type="line"/>
      <point x="303" y="1128" type="line"/>
      <point x="444" y="1128" type="line"/>
      <point x="707" y="1551" type="line"/>
      <point x="683" y="1565" type="line"/>
      <point x="551" y="1449"/>
      <point x="473" y="1350"/>
      <point x="387" y="1254" type="curve"/>
      <point x="316" y="1379"/>
      <point x="234" y="1480"/>
      <point x="181" y="1565" type="curve"/>
    </contour>
  </outline>
</glyph>
<glyph name="dblgravecomb" format="2">
  <unicode hex="030F"/>
  <anchor x="525" y="1110" name="_top"/>
  <outline>
    <contour>
      <point x="433" y="1131" type="line"/>
      <point x="246" y="1569" type="line"/>
      <point x="117" y="1506" type="line"/>
      <point x="189" y="1388"/>
      <point x="288" y="1239"/>
      <point x="409" y="1119" type="curve"/>
    </contour>
    <contour>
      <point x="720" y="1120" type="line"/>
      <point x="564" y="1570" type="line"/>
      <point x="430" y="1516" type="line"/>
      <point x="494" y="1394"/>
      <point x="582" y="1238"/>
      <point x="696" y="1110" type="curve"/>
    </contour>
  </outline>
</glyph>
<glyph name="dotbelowcomb" format="2">
  <unicode hex="0323"/>
  <anchor x="43" y="0" name="_bottom"/>
  <outline>
    <contour>
      <point x="-9" y="-398" type="curve" smooth="yes"/>
      <point x="57" y="-398"/>
      <point x="109" y="-340"/>
      <point x="109" y="-268" type="curve" smooth="yes"/>
      <point x="109" y="-212"/>
      <point x="77" y="-174"/>
      <point x="17" y="-174" type="curve" smooth="yes"/>
      <point x="-37" y="-174"/>
      <point x="-97" y="-228"/>
      <point x="-99" y="-298" type="curve" smooth="yes"/>
      <point x="-101" y="-356"/>
      <point x="-59" y="-398"/>
    </contour>
  </outline>
</glyph>
<glyph name="E-cy" format="2">
  <advance width="1306"/>
  <unicode hex="0404"/>
  <outline>
    <contour>
      <point x="693" y="-16" type="curve" smooth="yes"/>
      <point x="890" y="-16"/>
      <point x="1045" y="45"/>
      <point x="1127" y="73" type="curve"/>
      <point x="1164" y="390" type="line"/>
      <point x="1096" y="390" type="line"/>
      <point x="1075" y="318"/>
      <point x="1062" y="227"/>
      <point x="1040" y="156" type="curve"/>
      <point x="995" y="88"/>
      <point x="819" y="35"/>
      <point x="722" y="35" type="curve" smooth="yes"/>
      <point x="366" y="35"/>
      <point x="250" y="320"/>
      <point x="250" y="633" type="curve" smooth="yes"/>
      <point x="250" y="661"/>
      <point x="251" y="689"/>
      <point x="253" y="717" type="curve"/>
      <point x="450" y="705"/>
      <point x="810" y="703"/>
      <point x="942" y="699" type="curve"/>
      <point x="965" y="818" type="line"/>
      <point x="257" y="774" type="line"/>
      <point x="294" y="1121"/>
      <point x="469" y="1451"/>
      <point x="839" y="1451" type="curve" smooth="yes"/>
      <point x="1003" y="1451"/>
      <point x="1080" y="1402"/>
      <point x="1129" y="1374" type="curve"/>
      <point x="1141" y="1090" type="line"/>
      <point x="1206" y="1090" type="line"/>
      <point x="1267" y="1442" type="line"/>
      <point x="1200" y="1452"/>
      <point x="1057" y="1502"/>
      <point x="859" y="1502" type="curve" smooth="yes"/>
      <point x="431" y="1502"/>
      <point x="81" y="1155"/>
      <point x="81" y="614" type="curve" smooth="yes"/>
      <point x="81" y="309"/>
      <point x="230" y="-16"/>
    </contour>
  </outline>
</glyph>
<glyph name="Nje-cy" format="2">
  <advance width="1997"/>
  <unicode hex="040A"/>
  <outline>
    <contour>
      <point x="-42" y="0" type="line"/>
      <point x="407" y="0" type="line"/>
      <point x="412" y="36" type="line"/>
      <point x="264" y="67" type="line"/>
      <point x="452" y="1420" type="line"/>
      <point x="606" y="1450" type="line"/>
      <point x="611" y="1486" type="line"/>
      <point x="164" y="1486" type="line"/>
      <point x="159" y="1450" type="line"/>
      <point x="295" y="1420" type="line"/>
      <point x="109" y="67" type="line"/>
      <point x="-37" y="36" type="line"/>
    </contour>
    <contour>
      <point x="310" y="732" type="line"/>
      <point x="1162" y="732" type="line"/>
      <point x="1162" y="798" type="line"/>
      <point x="310" y="798" type="line"/>
    </contour>
    <contour>
      <point x="1311" y="-14" type="curve" smooth="yes"/>
      <point x="1686" y="-14"/>
      <point x="1955" y="159"/>
      <point x="1955" y="485" type="curve" smooth="yes"/>
      <point x="1955" y="774"/>
      <point x="1771" y="903"/>
      <point x="1460" y="903" type="curve" smooth="yes"/>
      <point x="1371" y="903"/>
      <point x="1229" y="880"/>
      <point x="1160" y="866" type="curve"/>
      <point x="1160" y="803" type="line"/>
      <point x="1227" y="815"/>
      <point x="1302" y="836"/>
      <point x="1406" y="836" type="curve" smooth="yes"/>
      <point x="1656" y="836"/>
      <point x="1787" y="743"/>
      <point x="1787" y="475" type="curve" smooth="yes"/>
      <point x="1787" y="193"/>
      <point x="1617" y="37"/>
      <point x="1336" y="37" type="curve" smooth="yes"/>
      <point x="1248" y="37"/>
      <point x="1166" y="53"/>
      <point x="1115" y="67" type="curve"/>
      <point x="1301" y="1420" type="line"/>
      <point x="1437" y="1450" type="line"/>
      <point x="1442" y="1486" type="line"/>
      <point x="1014" y="1486" type="line"/>
      <point x="1009" y="1450" type="line"/>
      <point x="1145" y="1420" type="line"/>
      <point x="959" y="67" type="line"/>
      <point x="813" y="36" type="line"/>
      <point x="808" y="0" type="line"/>
      <point x="1035" y="0" type="line" smooth="yes"/>
      <point x="1110" y="0"/>
      <point x="1206" y="-14"/>
    </contour>
  </outline>
</glyph>
<glyph name="Be-cy" format="2">
  <advance width="1192"/>
  <unicode hex="0411"/>
  <anchor x="536" y="-166" name="btm"/>
  <anchor x="734" y="1486" name="top"/>
  <outline>
    <contour>
      <point x="475" y="-6" type="curve" smooth="yes"/>
      <point x="842" y="-6"/>
      <point x="1122" y="161"/>
      <point x="1122" y="495" type="curve" smooth="yes"/>
      <point x="1122" y="782"/>
      <point x="933" y="896"/>
      <point x="679" y="904" type="curve" smooth="yes"/>
      <point x="577" y="907"/>
      <point x="462" y="893"/>
      <point x="387" y="882" type="curve"/>
      <point x="462" y="1420" type="line"/>
      <point x="1019" y="1404" type="line"/>
      <point x="1045" y="1062" type="line"/>
      <point x="1105" y="1062" type="line"/>
      <point x="1141" y="1486" type="line"/>
      <point x="173" y="1486" type="line"/>
      <point x="170" y="1450" type="line"/>
      <point x="306" y="1420" type="line"/>
      <point x="120" y="75" type="line"/>
      <point x="-26" y="44" type="line"/>
      <point x="-31" y="8" type="line"/>
      <point x="196" y="8" type="line" smooth="yes"/>
      <point x="272" y="8"/>
      <point x="363" y="-6"/>
    </contour>
    <contour>
      <point x="502" y="45" type="curve" smooth="yes"/>
      <point x="408" y="45"/>
      <point x="327" y="61"/>
      <point x="276" y="75" type="curve"/>
      <point x="379" y="818" type="line"/>
      <point x="433" y="827"/>
      <point x="490" y="837"/>
      <point x="577" y="837" type="curve" smooth="yes"/>
      <point x="814" y="837"/>
      <point x="958" y="752"/>
      <point x="958" y="485" type="curve" smooth="yes"/>
      <point x="958" y="201"/>
      <point x="777" y="45"/>
    </contour>
  </outline>
</glyph>
<glyph name="Ge-cy" format="2">
  <advance width="989"/>
  <unicode hex="0413"/>
  <anchor x="481" y="0" name="bottomright"/>
  <anchor x="647" y="1486" name="top"/>
  <outline>
    <contour>
      <point x="-24" y="0" type="line"/>
      <point x="476" y="0" type="line"/>
      <point x="481" y="36" type="line"/>
      <point x="273" y="67" type="line"/>
      <point x="459" y="1421" type="line"/>
      <point x="932" y="1404" type="line"/>
      <point x="965" y="1069" type="line"/>
      <point x="1024" y="1071" type="line"/>
      <point x="1052" y="1486" type="line"/>
      <point x="172" y="1486" type="line"/>
      <point x="167" y="1450" type="line"/>
      <point x="303" y="1421" type="line"/>
      <point x="117" y="67" type="line"/>
      <point x="-19" y="36" type="line"/>
    </contour>
  </outline>
</glyph>
<glyph name="De-cy" format="2">
  <advance width="1338"/>
  <unicode hex="0414"/>
  <outline>
    <contour>
      <point x="-108" y="-360" type="curve"/>
      <point x="-10" y="-360" type="line"/>
      <point x="19" y="-279"/>
      <point x="81" y="-99"/>
      <point x="113" y="0" type="curve"/>
      <point x="1087" y="0" type="line"/>
      <point x="1077" y="-95"/>
      <point x="1053" y="-246"/>
      <point x="1041" y="-360" type="curve"/>
      <point x="1139" y="-360" type="line"/>
      <point x="1155" y="-316"/>
      <point x="1216" y="-79"/>
      <point x="1248" y="67" type="curve"/>
      <point x="1068" y="67" type="line"/>
      <point x="1266" y="1420" type="line"/>
      <point x="1399" y="1450" type="line"/>
      <point x="1404" y="1486" type="line"/>
      <point x="403" y="1486" type="line"/>
      <point x="398" y="1450" type="line"/>
      <point x="555" y="1420" type="line"/>
      <point x="526" y="1240" type="line" smooth="yes"/>
      <point x="463" y="848"/>
      <point x="301" y="255"/>
      <point x="125" y="67" type="curve"/>
      <point x="-24" y="67" type="line"/>
      <point x="-48" y="-32"/>
      <point x="-91" y="-265"/>
    </contour>
    <contour>
      <point x="252" y="67" type="line"/>
      <point x="392" y="252"/>
      <point x="548" y="845"/>
      <point x="612" y="1232" type="curve" smooth="yes"/>
      <point x="643" y="1420" type="line"/>
      <point x="1110" y="1420" type="line"/>
      <point x="912" y="67" type="line"/>
    </contour>
  </outline>
</glyph>
<glyph name="Zhe-cy" format="2">
  <advance width="1974"/>
  <unicode hex="0416"/>
  <anchor x="1883" y="0" name="bottomright"/>
  <anchor x="1084" y="1486" name="top"/>
  <outline>
    <contour>
      <point x="-44" y="0" type="line"/>
      <point x="171" y="0" type="line" smooth="yes"/>
      <point x="277" y="0"/>
      <point x="600" y="723"/>
      <point x="753" y="723" type="curve" smooth="yes"/>
      <point x="914" y="723" type="line"/>
      <point x="922" y="794" type="line"/>
      <point x="758" y="794" type="line"/>
      <point x="400" y="1422" type="line"/>
      <point x="555" y="1450" type="line"/>
      <point x="559" y="1486" type="line"/>
      <point x="155" y="1486" type="line"/>
      <point x="151" y="1450" type="line"/>
      <point x="292" y="1420" type="line"/>
      <point x="706" y="731" type="line"/>
      <point x="684" y="783" type="line"/>
      <point x="557" y="795"/>
      <point x="404" y="552"/>
      <point x="255" y="327" type="curve" smooth="yes"/>
      <point x="165" y="191"/>
      <point x="85" y="71"/>
      <point x="45" y="60" type="curve" smooth="yes"/>
      <point x="-39" y="36" type="line"/>
    </contour>
    <contour>
      <point x="662" y="0" type="line"/>
      <point x="1118" y="0" type="line"/>
      <point x="1123" y="36" type="line"/>
      <point x="973" y="67" type="line"/>
      <point x="1154" y="1420" type="line"/>
      <point x="1296" y="1450" type="line"/>
      <point x="1300" y="1486" type="line"/>
      <point x="872" y="1486" type="line"/>
      <point x="868" y="1450" type="line"/>
      <point x="1001" y="1420" type="line"/>
      <point x="818" y="67" type="line"/>
      <point x="668" y="36" type="line"/>
    </contour>
    <contour>
      <point x="1658" y="0" type="curve" smooth="yes"/>
      <point x="1885" y="0" type="line"/>
      <point x="1886" y="36" type="line"/>
      <point x="1799" y="59" type="line"/>
      <point x="1747" y="76"/>
      <point x="1673" y="235"/>
      <point x="1600" y="415" type="curve" smooth="yes"/>
      <point x="1506" y="646"/>
      <point x="1397" y="811"/>
      <point x="1272" y="793" type="curve"/>
      <point x="1288" y="743" type="line"/>
      <point x="1888" y="1426" type="line"/>
      <point x="2019" y="1451" type="line"/>
      <point x="2025" y="1486" type="line"/>
      <point x="1634" y="1486" type="line"/>
      <point x="1628" y="1450" type="line"/>
      <point x="1783" y="1425" type="line"/>
      <point x="1252" y="795" type="line"/>
      <point x="1027" y="795" type="line"/>
      <point x="1018" y="723" type="line"/>
      <point x="1199" y="723" type="line" smooth="yes"/>
      <point x="1376" y="723"/>
      <point x="1551" y="0"/>
    </contour>
  </outline>
</glyph>
<glyph name="Ze-cy" format="2">
  <advance width="1123"/>
  <unicode hex="0417"/>
  <anchor x="514" y="0" name="bottom"/>
  <anchor x="682" y="1486" name="top"/>
  <outline>
    <contour>
      <point x="430" y="-16" type="curve" smooth="yes"/>
      <point x="779" y="-16"/>
      <point x="1071" y="150"/>
      <point x="1071" y="459" type="curve" smooth="yes"/>
      <point x="1071" y="638"/>
      <point x="933" y="757"/>
      <point x="721" y="776" type="curve"/>
      <point x="959" y="830"/>
      <point x="1114" y="971"/>
      <point x="1114" y="1171" type="curve" smooth="yes"/>
      <point x="1114" y="1367"/>
      <point x="946" y="1502"/>
      <point x="656" y="1502" type="curve" smooth="yes"/>
      <point x="465" y="1502"/>
      <point x="357" y="1443"/>
      <point x="258" y="1436" type="curve"/>
      <point x="213" y="1112" type="line"/>
      <point x="310" y="1112" type="line"/>
      <point x="382" y="1358" type="line"/>
      <point x="425" y="1405"/>
      <point x="514" y="1446"/>
      <point x="637" y="1446" type="curve" smooth="yes"/>
      <point x="833" y="1446"/>
      <point x="946" y="1348"/>
      <point x="946" y="1156" type="curve" smooth="yes"/>
      <point x="946" y="958"/>
      <point x="777" y="810"/>
      <point x="554" y="814" type="curve" smooth="yes"/>
      <point x="403" y="817" type="line"/>
      <point x="389" y="721" type="line"/>
      <point x="569" y="731" type="line"/>
      <point x="791" y="731"/>
      <point x="899" y="613"/>
      <point x="899" y="457" type="curve" smooth="yes"/>
      <point x="899" y="175"/>
      <point x="720" y="40"/>
      <point x="433" y="40" type="curve" smooth="yes"/>
      <point x="297" y="40"/>
      <point x="231" y="72"/>
      <point x="182" y="96" type="curve"/>
      <point x="162" y="389" type="line"/>
      <point x="79" y="389" type="line"/>
      <point x="18" y="53" type="line"/>
      <point x="89" y="31"/>
      <point x="237" y="-16"/>
    </contour>
  </outline>
</glyph>
<glyph name="U-cy" format="2">
  <advance width="1260"/>
  <unicode hex="0423"/>
  <anchor x="799" y="1486" name="top"/>
  <outline>
    <contour>
      <point x="356" y="-22" type="curve" smooth="yes"/>
      <point x="551" y="-22"/>
      <point x="675" y="175"/>
      <point x="738" y="306" type="curve" smooth="yes"/>
      <point x="1276" y="1432" type="line"/>
      <point x="1390" y="1450" type="line"/>
      <point x="1394" y="1486" type="line"/>
      <point x="1021" y="1486" type="line"/>
      <point x="1016" y="1450" type="line"/>
      <point x="1166" y="1430" type="line"/>
      <point x="816" y="631" type="line"/>
      <point x="694" y="362" type="line"/>
      <point x="730" y="349" type="line"/>
      <point x="652" y="633" type="line"/>
      <point x="415" y="1430" type="line"/>
      <point x="586" y="1450" type="line"/>
      <point x="591" y="1486" type="line"/>
      <point x="126" y="1486" type="line"/>
      <point x="120" y="1450" type="line"/>
      <point x="249" y="1430" type="line"/>
      <point x="645" y="224" type="line"/>
      <point x="691" y="367" type="line"/>
      <point x="560" y="109"/>
      <point x="444" y="115"/>
      <point x="370" y="115" type="curve" smooth="yes"/>
      <point x="303" y="115"/>
      <point x="246" y="129"/>
      <point x="206" y="144" type="curve"/>
      <point x="189" y="11" type="line"/>
      <point x="230" y="-7"/>
      <point x="271" y="-22"/>
    </contour>
  </outline>
</glyph>
<glyph name="Ef-cy" format="2">
  <advance width="1643"/>
  <unicode hex="0424"/>
  <outline>
    <contour>
      <point x="532" y="-18" type="line"/>
      <point x="982" y="-18" type="line"/>
      <point x="987" y="18" type="line"/>
      <point x="839" y="49" type="line"/>
      <point x="1027" y="1435" type="line"/>
      <point x="1163" y="1465" type="line"/>
      <point x="1168" y="1501" type="line"/>
      <point x="740" y="1501" type="line"/>
      <point x="735" y="1465" type="line"/>
      <point x="871" y="1435" type="line"/>
      <point x="683" y="49" type="line"/>
      <point x="537" y="18" type="line"/>
    </contour>
    <contour>
      <point x="722" y="212" type="curve"/>
      <point x="732" y="258" type="line"/>
      <point x="372" y="279"/>
      <point x="248" y="465"/>
      <point x="248" y="710" type="curve" smooth="yes"/>
      <point x="248" y="1049"/>
      <point x="483" y="1225"/>
      <point x="859" y="1242" type="curve"/>
      <point x="868" y="1287" type="line"/>
      <point x="387" y="1270"/>
      <point x="88" y="1061"/>
      <point x="88" y="703" type="curve" smooth="yes"/>
      <point x="88" y="381"/>
      <point x="331" y="224"/>
    </contour>
    <contour>
      <point x="842" y="213" type="line"/>
      <point x="1382" y="237"/>
      <point x="1627" y="525"/>
      <point x="1627" y="828" type="curve" smooth="yes"/>
      <point x="1627" y="1115"/>
      <point x="1406" y="1273"/>
      <point x="988" y="1287" type="curve"/>
      <point x="982" y="1242" type="line"/>
      <point x="1315" y="1227"/>
      <point x="1467" y="1088"/>
      <point x="1467" y="808" type="curve" smooth="yes"/>
      <point x="1467" y="456"/>
      <point x="1231" y="272"/>
      <point x="854" y="257" type="curve"/>
    </contour>
  </outline>
</glyph>
<glyph name="Tse-cy" format="2">
  <advance width="1409"/>
  <unicode hex="0426"/>
  <anchor x="876" y="1486" name="top"/>
  <outline>
    <contour>
      <point x="1119" y="-360" type="curve"/>
      <point x="1211" y="-360" type="line"/>
      <point x="1240" y="-277"/>
      <point x="1289" y="-66"/>
      <point x="1319" y="67" type="curve"/>
      <point x="1167" y="67" type="line"/>
      <point x="1354" y="1419" type="line"/>
      <point x="1500" y="1450" type="line"/>
      <point x="1505" y="1486" type="line"/>
      <point x="1054" y="1486" type="line"/>
      <point x="1049" y="1450" type="line"/>
      <point x="1197" y="1419" type="line"/>
      <point x="1011" y="66" type="line"/>
      <point x="285" y="66" type="line"/>
      <point x="471" y="1419" type="line"/>
      <point x="617" y="1450" type="line"/>
      <point x="622" y="1486" type="line"/>
      <point x="172" y="1486" type="line"/>
      <point x="167" y="1450" type="line"/>
      <point x="315" y="1419" type="line"/>
      <point x="129" y="66" type="line"/>
      <point x="-7" y="36" type="line"/>
      <point x="-12" y="0" type="line"/>
      <point x="1159" y="0" type="line"/>
      <point x="1147" y="-108"/>
      <point x="1129" y="-296"/>
    </contour>
  </outline>
</glyph>
<glyph name="Ereversed-cy" format="2">
  <advance width="1307"/>
  <unicode hex="042D"/>
  <anchor x="798" y="1486" name="top"/>
  <outline>
    <contour>
      <point x="513" y="-16" type="curve" smooth="yes"/>
      <point x="941" y="-16"/>
      <point x="1291" y="331"/>
      <point x="1291" y="872" type="curve" smooth="yes"/>
      <point x="1291" y="1177"/>
      <point x="1142" y="1502"/>
      <point x="679" y="1502" type="curve" smooth="yes"/>
      <point x="482" y="1502"/>
      <point x="327" y="1441"/>
      <point x="245" y="1413" type="curve"/>
      <point x="208" y="1096" type="line"/>
      <point x="276" y="1096" type="line"/>
      <point x="297" y="1168"/>
      <point x="310" y="1259"/>
      <point x="332" y="1330" type="curve"/>
      <point x="377" y="1398"/>
      <point x="553" y="1451"/>
      <point x="650" y="1451" type="curve" smooth="yes"/>
      <point x="1006" y="1451"/>
      <point x="1122" y="1166"/>
      <point x="1122" y="853" type="curve" smooth="yes"/>
      <point x="1122" y="826"/>
      <point x="1121" y="800"/>
      <point x="1120" y="773" type="curve"/>
      <point x="924" y="786"/>
      <point x="630" y="804"/>
      <point x="498" y="808" type="curve"/>
      <point x="470" y="680" type="line"/>
      <point x="1114" y="709" type="line"/>
      <point x="1077" y="363"/>
      <point x="902" y="35"/>
      <point x="533" y="35" type="curve" smooth="yes"/>
      <point x="369" y="35"/>
      <point x="292" y="84"/>
      <point x="243" y="112" type="curve"/>
      <point x="231" y="396" type="line"/>
      <point x="166" y="396" type="line"/>
      <point x="105" y="44" type="line"/>
      <point x="172" y="34"/>
      <point x="315" y="-16"/>
    </contour>
  </outline>
</glyph>
<glyph name="be-cy" format="2">
  <advance width="1051"/>
  <unicode hex="0431"/>
  <outline>
    <contour>
      <point x="1176" y="1724" type="line"/>
      <point x="1159" y="1724" type="line"/>
      <point x="1152" y="1709" type="line" smooth="yes"/>
      <point x="1065" y="1523"/>
      <point x="729" y="1600"/>
      <point x="476" y="1416" type="curve" smooth="yes"/>
      <point x="239" y="1244"/>
      <point x="55" y="879"/>
      <point x="55" y="477" type="curve" smooth="yes"/>
      <point x="55" y="203"/>
      <point x="193" y="-20"/>
      <point x="462" y="-20" type="curve" smooth="yes"/>
      <point x="740" y="-20"/>
      <point x="998" y="216"/>
      <point x="998" y="592" type="curve" smooth="yes"/>
      <point x="998" y="853"/>
      <point x="831" y="986"/>
      <point x="616" y="986" type="curve" smooth="yes"/>
      <point x="432" y="986"/>
      <point x="271" y="873"/>
      <point x="161" y="683" type="curve"/>
      <point x="185" y="945"/>
      <point x="330" y="1140"/>
      <point x="431" y="1247" type="curve" smooth="yes"/>
      <point x="519" y="1340"/>
      <point x="675" y="1384"/>
      <point x="785" y="1410" type="curve" smooth="yes"/>
      <point x="823" y="1419"/>
      <point x="852" y="1426"/>
      <point x="893" y="1436" type="curve" smooth="yes"/>
      <point x="1095" y="1485"/>
      <point x="1131" y="1530"/>
      <point x="1174" y="1715" type="curve"/>
    </contour>
    <contour>
      <point x="597" y="941" type="curve" smooth="yes"/>
      <point x="737" y="941"/>
      <point x="837" y="841"/>
      <point x="837" y="593" type="curve" smooth="yes"/>
      <point x="837" y="307"/>
      <point x="657" y="23"/>
      <point x="464" y="23" type="curve" smooth="yes"/>
      <point x="281" y="23"/>
      <point x="213" y="207"/>
      <point x="213" y="386" type="curve" smooth="yes"/>
      <point x="213" y="666"/>
      <point x="392" y="941"/>
    </contour>
  </outline>
</glyph>
<glyph name="em-cy" format="2">
  <advance width="1421"/>
  <unicode hex="043C"/>
  <anchor x="1302" y="0" name="bottomright"/>
  <anchor x="885" y="1110" name="top"/>
  <outline>
    <contour>
      <point x="1171" y="-21" type="curve" smooth="yes"/>
      <point x="1259" y="-21"/>
      <point x="1338" y="28"/>
      <point x="1380" y="94" type="curve"/>
      <point x="1362" y="124" type="line"/>
      <point x="1322" y="75"/>
      <point x="1276" y="58"/>
      <point x="1254" y="58" type="curve" smooth="yes"/>
      <point x="1229" y="58"/>
      <point x="1207" y="75"/>
      <point x="1216" y="134" type="curve" smooth="yes"/>
      <point x="1347" y="1004" type="line"/>
      <point x="1158" y="1004" type="line"/>
      <point x="823" y="336" type="line"/>
      <point x="723" y="135" type="line"/>
      <point x="700" y="323" type="line"/>
      <point x="618" y="1004" type="line"/>
      <point x="242" y="1004" type="line"/>
      <point x="238" y="976" type="line"/>
      <point x="407" y="922" type="line"/>
      <point x="358" y="715"/>
      <point x="279" y="444"/>
      <point x="207" y="275" type="curve" smooth="yes"/>
      <point x="173" y="196"/>
      <point x="131" y="143"/>
      <point x="89" y="143" type="curve" smooth="yes"/>
      <point x="61" y="143"/>
      <point x="-27" y="165"/>
      <point x="-37" y="173" type="curve"/>
      <point x="-68" y="8" type="line"/>
      <point x="-64" y="0"/>
      <point x="-8" y="-16"/>
      <point x="23" y="-16" type="curve" smooth="yes"/>
      <point x="117" y="-16"/>
      <point x="175" y="42"/>
      <point x="230" y="140" type="curve" smooth="yes"/>
      <point x="311" y="284"/>
      <point x="387" y="548"/>
      <point x="482" y="940" type="curve"/>
      <point x="520" y="633" type="line"/>
      <point x="615" y="-14" type="line"/>
      <point x="697" y="-14" type="line"/>
      <point x="1083" y="701" type="line"/>
      <point x="1195" y="947" type="line"/>
      <point x="1145" y="623" type="line"/>
      <point x="1069" y="124" type="line" smooth="yes"/>
      <point x="1054" y="23"/>
      <point x="1103" y="-21"/>
    </contour>
  </outline>
</glyph>
<glyph name="sha-cy" format="2">
  <advance width="1673"/>
  <unicode hex="0448"/>
  <anchor x="1552" y="0" name="bottomright"/>
  <anchor x="708" y="-166" name="btm"/>
  <anchor x="908" y="1660" name="top"/>
  <outline>
    <contour>
      <point x="285" y="540" type="curve" smooth="yes"/>
      <point x="355" y="1005" type="line"/>
      <point x="323" y="1025" type="line"/>
      <point x="69" y="979" type="line"/>
      <point x="65" y="954" type="line"/>
      <point x="202" y="923" type="line"/>
      <point x="145" y="558" type="line" smooth="yes"/>
      <point x="139" y="522"/>
      <point x="92" y="227"/>
      <point x="92" y="172" type="curve" smooth="yes"/>
      <point x="92" y="50"/>
      <point x="164" y="-21"/>
      <point x="274" y="-21" type="curve" smooth="yes"/>
      <point x="460" y="-21"/>
      <point x="630" y="138"/>
      <point x="753" y="408" type="curve"/>
      <point x="722" y="206" type="line" smooth="yes"/>
      <point x="696" y="38"/>
      <point x="793" y="-21"/>
      <point x="901" y="-21" type="curve" smooth="yes"/>
      <point x="1070" y="-21"/>
      <point x="1247" y="125"/>
      <point x="1369" y="407" type="curve"/>
      <point x="1325" y="129" type="line" smooth="yes"/>
      <point x="1311" y="39"/>
      <point x="1336" y="-21"/>
      <point x="1424" y="-21" type="curve" smooth="yes"/>
      <point x="1511" y="-21"/>
      <point x="1583" y="35"/>
      <point x="1632" y="94" type="curve"/>
      <point x="1615" y="124" type="line"/>
      <point x="1565" y="77"/>
      <point x="1532" y="58"/>
      <point x="1500" y="58" type="curve" smooth="yes"/>
      <point x="1465" y="58"/>
      <point x="1459" y="94"/>
      <point x="1466" y="141" type="curve" smooth="yes"/>
      <point x="1594" y="1005" type="line"/>
      <point x="1454" y="1005" type="line"/>
      <point x="1382" y="521" type="line"/>
      <point x="1277" y="241"/>
      <point x="1101" y="67"/>
      <point x="959" y="67" type="curve" smooth="yes"/>
      <point x="895" y="67"/>
      <point x="864" y="107"/>
      <point x="864" y="178" type="curve" smooth="yes"/>
      <point x="864" y="238"/>
      <point x="902" y="481"/>
      <point x="985" y="1005" type="curve"/>
      <point x="840" y="1005" type="line"/>
      <point x="825" y="902"/>
      <point x="808" y="798"/>
      <point x="794" y="695" type="curve" smooth="yes"/>
      <point x="786" y="638"/>
      <point x="777" y="581"/>
      <point x="768" y="524" type="curve"/>
      <point x="675" y="254"/>
      <point x="485" y="67"/>
      <point x="339" y="67" type="curve" smooth="yes"/>
      <point x="268" y="67"/>
      <point x="240" y="102"/>
      <point x="240" y="185" type="curve" smooth="yes"/>
      <point x="240" y="244"/>
      <point x="274" y="464"/>
    </contour>
  </outline>
</glyph>
<glyph name="softsign-cy" format="2">
  <advance width="998"/>
  <unicode hex="044C"/>
  <anchor x="620" y="-166" name="btm"/>
  <anchor x="552" y="1660" name="top"/>
  <outline>
    <contour>
      <point x="448" y="-22" type="curve" smooth="yes"/>
      <point x="711" y="-22"/>
      <point x="955" y="152"/>
      <point x="955" y="438" type="curve" smooth="yes"/>
      <point x="955" y="602"/>
      <point x="850" y="704"/>
      <point x="665" y="704" type="curve" smooth="yes"/>
      <point x="525" y="704"/>
      <point x="388" y="634"/>
      <point x="284" y="544" type="curve"/>
      <point x="352" y="1005" type="line"/>
      <point x="320" y="1025" type="line"/>
      <point x="76" y="979" type="line"/>
      <point x="72" y="954" type="line"/>
      <point x="192" y="924" type="line"/>
      <point x="123" y="476" type="line" smooth="yes"/>
      <point x="70" y="130"/>
      <point x="206" y="-22"/>
    </contour>
    <contour>
      <point x="463" y="25" type="curve" smooth="yes"/>
      <point x="323" y="25"/>
      <point x="253" y="118"/>
      <point x="252" y="280" type="curve" smooth="yes"/>
      <point x="252" y="343"/>
      <point x="257" y="426"/>
      <point x="272" y="486" type="curve"/>
      <point x="365" y="562"/>
      <point x="474" y="619"/>
      <point x="593" y="619" type="curve" smooth="yes"/>
      <point x="721" y="619"/>
      <point x="795" y="534"/>
      <point x="795" y="400" type="curve" smooth="yes"/>
      <point x="795" y="147"/>
      <point x="629" y="25"/>
    </contour>
  </outline>
</glyph>
<glyph name="nje-cy" format="2">
  <advance width="1665"/>
  <unicode hex="045A"/>
  <anchor x="1054" y="1110" name="top"/>
  <outline>
    <contour>
      <point x="943" y="535" type="curve"/>
      <point x="1011" y="1005" type="line"/>
      <point x="869" y="1005" type="line"/>
      <point x="805" y="547" type="line"/>
      <point x="299" y="547" type="line"/>
      <point x="367" y="1005" type="line"/>
      <point x="334" y="1025" type="line"/>
      <point x="79" y="979" type="line"/>
      <point x="75" y="954" type="line"/>
      <point x="211" y="923" type="line"/>
      <point x="76" y="0" type="line"/>
      <point x="220" y="0" type="line"/>
      <point x="288" y="486" type="line"/>
      <point x="799" y="486" type="line"/>
      <point x="788" y="404" type="line" smooth="yes"/>
      <point x="747" y="95"/>
      <point x="892" y="-22"/>
      <point x="1115" y="-22" type="curve" smooth="yes"/>
      <point x="1378" y="-22"/>
      <point x="1622" y="152"/>
      <point x="1622" y="438" type="curve" smooth="yes"/>
      <point x="1622" y="602"/>
      <point x="1517" y="704"/>
      <point x="1332" y="704" type="curve" smooth="yes"/>
      <point x="1192" y="704"/>
      <point x="1055" y="634"/>
    </contour>
    <contour>
      <point x="1130" y="25" type="curve" smooth="yes"/>
      <point x="990" y="25"/>
      <point x="917" y="118"/>
      <point x="917" y="280" type="curve" smooth="yes"/>
      <point x="917" y="343"/>
      <point x="922" y="426"/>
      <point x="937" y="486" type="curve"/>
      <point x="1030" y="562"/>
      <point x="1141" y="619"/>
      <point x="1260" y="619" type="curve" smooth="yes"/>
      <point x="1388" y="619"/>
      <point x="1462" y="534"/>
      <point x="1462" y="400" type="curve" smooth="yes"/>
      <point x="1462" y="147"/>
      <point x="1296" y="25"/>
    </contour>
  </outline>
</glyph>
<glyph name="yat-cy" format="2">
  <advance width="1681"/>
  <unicode hex="0463"/>
  <outline>
    <contour>
      <point x="310" y="616" type="curve"/>
      <point x="367" y="1005" type="line"/>
      <point x="335" y="1025" type="line"/>
      <point x="79" y="979" type="line"/>
      <point x="75" y="954" type="line"/>
      <point x="212" y="923" type="line"/>
      <point x="75" y="0" type="line"/>
      <point x="218" y="0" type="line"/>
      <point x="289" y="487" type="line"/>
      <point x="368" y="733"/>
      <point x="579" y="943"/>
      <point x="722" y="943" type="curve" smooth="yes"/>
      <point x="809" y="943"/>
      <point x="851" y="904"/>
      <point x="851" y="823" type="curve" smooth="yes"/>
      <point x="851" y="771"/>
      <point x="830" y="613"/>
      <point x="803" y="457" type="curve" smooth="yes"/>
      <point x="746" y="130"/>
      <point x="889" y="-22"/>
      <point x="1131" y="-22" type="curve" smooth="yes"/>
      <point x="1394" y="-22"/>
      <point x="1638" y="172"/>
      <point x="1638" y="438" type="curve" smooth="yes"/>
      <point x="1638" y="602"/>
      <point x="1541" y="704"/>
      <point x="1348" y="704" type="curve" smooth="yes"/>
      <point x="1208" y="704"/>
      <point x="1074" y="631"/>
      <point x="959" y="529" type="curve"/>
      <point x="974" y="607"/>
      <point x="998" y="766"/>
      <point x="998" y="828" type="curve" smooth="yes"/>
      <point x="998" y="960"/>
      <point x="918" y="1031"/>
      <point x="789" y="1031" type="curve" smooth="yes"/>
      <point x="594" y="1031"/>
      <point x="429" y="861"/>
    </contour>
    <contour>
      <point x="938" y="383" type="curve" smooth="yes"/>
      <point x="949" y="473" type="line"/>
      <point x="1051" y="559"/>
      <point x="1157" y="619"/>
      <point x="1276" y="619" type="curve" smooth="yes"/>
      <point x="1412" y="619"/>
      <point x="1478" y="534"/>
      <point x="1478" y="400" type="curve" smooth="yes"/>
      <point x="1478" y="167"/>
      <point x="1312" y="25"/>
      <point x="1146" y="25" type="curve" smooth="yes"/>
      <point x="1006" y="25"/>
      <point x="906" y="119"/>
    </contour>
  </outline>
</glyph>
<glyph name="fita-cy" format="2">
  <advance width="1014"/>
  <unicode hex="0473"/>
  <anchor x="443" y="-2" name="bottom"/>
  <anchor x="507" y="506" name="center"/>
  <anchor x="577" y="20" name="ogonek"/>
  <anchor x="595" y="1110" name="top"/>
  <anchor x="722" y="1005" name="topright"/>
  <outline>
    <contour>
      <point x="821" y="478" type="curve"/>
      <point x="831" y="550" type="line"/>
      <point x="795" y="495"/>
      <point x="734" y="459"/>
      <point x="685" y="459" type="curve" smooth="yes"/>
      <point x="585" y="459"/>
      <point x="531" y="615"/>
      <point x="393" y="615" type="curve" smooth="yes"/>
      <point x="308" y="615"/>
      <point x="231" y="557"/>
      <point x="193" y="507" type="curve"/>
      <point x="186" y="447" type="line"/>
      <point x="220" y="487"/>
      <point x="286" y="531"/>
      <point x="348" y="531" type="curve" smooth="yes"/>
      <point x="483" y="531"/>
      <point x="504" y="379"/>
      <point x="646" y="379" type="curve" smooth="yes"/>
      <point x="714" y="379"/>
      <point x="779" y="415"/>
    </contour>
    <contour>
      <point x="575" y="1031" type="curve" smooth="yes"/>
      <point x="253" y="1031"/>
      <point x="31" y="721"/>
      <point x="31" y="410" type="curve" smooth="yes"/>
      <point x="31" y="130"/>
      <point x="194" y="-20"/>
      <point x="437" y="-20" type="curve" smooth="yes"/>
      <point x="761" y="-20"/>
      <point x="984" y="289"/>
      <point x="984" y="601" type="curve" smooth="yes"/>
      <point x="984" y="881"/>
      <point x="820" y="1031"/>
    </contour>
    <contour>
      <point x="578" y="988" type="curve" smooth="yes"/>
      <point x="748" y="988"/>
      <point x="825" y="823"/>
      <point x="825" y="622" type="curve" smooth="yes"/>
      <point x="825" y="336"/>
      <point x="678" y="23"/>
      <point x="437" y="23" type="curve" smooth="yes"/>
      <point x="266" y="23"/>
      <point x="190" y="187"/>
      <point x="190" y="389" type="curve" smooth="yes"/>
      <point x="190" y="674"/>
      <point x="336" y="988"/>
    </contour>
  </outline>
</glyph>
<glyph name="Ghestroke-cy" format="2">
  <advance width="991"/>
  <unicode hex="0492"/>
  <anchor x="483" y="0" name="bottomright"/>
  <anchor x="649" y="1486" name="top"/>
  <outline>
    <contour>
      <point x="87" y="699" type="line"/>
      <point x="755" y="699" type="line"/>
      <point x="763" y="770" type="line"/>
      <point x="97" y="770" type="line"/>
    </contour>
    <component base="Ge-cy" xOffset="2"/>
  </outline>
</glyph>
<glyph name="Ghemiddlehook-cy" format="2">
  <advance width="1209"/>
  <unicode hex="0494"/>
  <outline>
    <contour>
      <point x="459" y="1421" type="line"/>
      <point x="1002" y="1404" type="line"/>
      <point x="1027" y="1062" type="line"/>
      <point x="1087" y="1062" type="line"/>
      <point x="1124" y="1486" type="line"/>
      <point x="172" y="1486" type="line"/>
      <point x="167" y="1450" type="line"/>
      <point x="303" y="1421" type="line"/>
      <point x="117" y="67" type="line"/>
      <point x="-19" y="36" type="line"/>
      <point x="-24" y="0" type="line"/>
      <point x="476" y="0" type="line"/>
      <point x="481" y="36" type="line"/>
      <point x="273" y="67" type="line"/>
      <point x="352" y="644" type="line"/>
      <point x="441" y="712"/>
      <point x="558" y="759"/>
      <point x="678" y="759" type="curve" smooth="yes"/>
      <point x="854" y="759"/>
      <point x="967" y="672"/>
      <point x="967" y="401" type="curve" smooth="yes"/>
      <point x="967" y="81"/>
      <point x="814" y="-267"/>
      <point x="449" y="-267" type="curve" smooth="yes"/>
      <point x="422" y="-267"/>
      <point x="388" y="-265"/>
      <point x="368" y="-257" type="curve"/>
      <point x="359" y="-319" type="line"/>
      <point x="379" y="-328"/>
      <point x="406" y="-332"/>
      <point x="452" y="-332" type="curve" smooth="yes"/>
      <point x="949" y="-332"/>
      <point x="1135" y="110"/>
      <point x="1135" y="430" type="curve" smooth="yes"/>
      <point x="1135" y="725"/>
      <point x="974" y="838"/>
      <point x="732" y="838" type="curve" smooth="yes"/>
      <point x="587" y="838"/>
      <point x="454" y="793"/>
      <point x="363" y="720" type="curve"/>
    </contour>
  </outline>
</glyph>
<glyph name="Kaverticalstroke-cy" format="2">
  <advance width="1413"/>
  <unicode hex="049C"/>
  <outline>
    <contour>
      <point x="448" y="445" type="line"/>
      <point x="528" y="445" type="line"/>
      <point x="616" y="1102" type="line"/>
      <point x="538" y="1102" type="line"/>
    </contour>
    <contour>
      <point x="1067" y="0" type="curve" smooth="yes"/>
      <point x="1306" y="0" type="line"/>
      <point x="1310" y="36" type="line"/>
      <point x="1194" y="70" type="line"/>
      <point x="1154" y="93"/>
      <point x="1061" y="237"/>
      <point x="906" y="501" type="curve" smooth="yes"/>
      <point x="779" y="717"/>
      <point x="736" y="790"/>
      <point x="709" y="790" type="curve"/>
      <point x="679" y="743" type="line"/>
      <point x="1286" y="1428" type="line"/>
      <point x="1429" y="1450" type="line"/>
      <point x="1435" y="1486" type="line"/>
      <point x="1010" y="1486" type="line"/>
      <point x="1004" y="1450" type="line"/>
      <point x="1167" y="1425" type="line"/>
      <point x="641" y="795" type="line"/>
      <point x="317" y="795" type="line"/>
      <point x="308" y="723" type="line"/>
      <point x="585" y="723" type="line" smooth="yes"/>
      <point x="661" y="723"/>
      <point x="981" y="0"/>
    </contour>
    <contour>
      <point x="-32" y="0" type="line"/>
      <point x="418" y="0" type="line"/>
      <point x="423" y="36" type="line"/>
      <point x="263" y="67" type="line"/>
      <point x="451" y="1420" type="line"/>
      <point x="599" y="1450" type="line"/>
      <point x="604" y="1486" type="line"/>
      <point x="174" y="1486" type="line"/>
      <point x="169" y="1450" type="line"/>
      <point x="295" y="1420" type="line"/>
      <point x="109" y="67" type="line"/>
      <point x="-27" y="36" type="line"/>
    </contour>
  </outline>
</glyph>
<glyph name="kabashkir-cy" format="2">
  <advance width="1093"/>
  <unicode hex="04A1"/>
  <outline>
    <contour>
      <point x="421" y="0" type="line"/>
      <point x="570" y="1004" type="line"/>
      <point x="76" y="1004" type="line"/>
      <point x="20" y="609" type="line"/>
      <point x="81" y="609" type="line"/>
      <point x="187" y="943" type="line"/>
      <point x="418" y="949" type="line"/>
      <point x="280" y="0" type="line"/>
    </contour>
    <contour>
      <point x="944" y="-21" type="curve" smooth="yes"/>
      <point x="1027" y="-21"/>
      <point x="1057" y="28"/>
      <point x="1076" y="66" type="curve"/>
      <point x="1057" y="95" type="line"/>
      <point x="1039" y="79"/>
      <point x="1021" y="76"/>
      <point x="1002" y="76" type="curve" smooth="yes"/>
      <point x="972" y="76"/>
      <point x="933" y="124"/>
      <point x="901" y="173" type="curve" smooth="yes"/>
      <point x="644" y="574" type="line"/>
      <point x="627" y="534" type="line"/>
      <point x="728" y="585"/>
      <point x="969" y="699"/>
      <point x="1063" y="834" type="curve"/>
      <point x="1092" y="876"/>
      <point x="1105" y="916"/>
      <point x="1104" y="949" type="curve" smooth="yes"/>
      <point x="1103" y="995"/>
      <point x="1077" y="1030"/>
      <point x="1035" y="1030" type="curve" smooth="yes"/>
      <point x="988" y="1030"/>
      <point x="950" y="999"/>
      <point x="939" y="939" type="curve"/>
      <point x="935" y="902"/>
      <point x="924" y="851"/>
      <point x="884" y="800" type="curve" smooth="yes"/>
      <point x="790" y="680"/>
      <point x="670" y="609"/>
      <point x="537" y="514" type="curve"/>
      <point x="789" y="79" type="line"/>
      <point x="829" y="10"/>
      <point x="884" y="-21"/>
    </contour>
  </outline>
</glyph>
<glyph name="enghe-cy" format="2">
  <advance width="1441"/>
  <unicode hex="04A5"/>
  <outline>
    <contour>
      <point x="805" y="547" type="curve"/>
      <point x="299" y="547" type="line"/>
      <point x="367" y="1005" type="line"/>
      <point x="334" y="1025" type="line"/>
      <point x="79" y="979" type="line"/>
      <point x="75" y="954" type="line"/>
      <point x="211" y="923" type="line"/>
      <point x="76" y="0" type="line"/>
      <point x="220" y="0" type="line"/>
      <point x="288" y="486" type="line"/>
      <point x="792" y="486" type="line"/>
      <point x="738" y="134" type="line" smooth="yes"/>
      <point x="721" y="22"/>
      <point x="773" y="-21"/>
      <point x="845" y="-21" type="curve" smooth="yes"/>
      <point x="931" y="-21"/>
      <point x="1006" y="27"/>
      <point x="1049" y="94" type="curve"/>
      <point x="1031" y="124" type="line"/>
      <point x="991" y="75"/>
      <point x="946" y="59"/>
      <point x="920" y="59" type="curve" smooth="yes"/>
      <point x="899" y="59"/>
      <point x="876" y="74"/>
      <point x="887" y="153" type="curve" smooth="yes"/>
      <point x="1000" y="949" type="line"/>
      <point x="1319" y="946" type="line"/>
      <point x="1311" y="609" type="line"/>
      <point x="1372" y="609" type="line"/>
      <point x="1458" y="1004" type="line"/>
      <point x="869" y="1004" type="line"/>
      <point x="849" y="855"/>
      <point x="826" y="699"/>
    </contour>
  </outline>
</glyph>
<glyph name="Pemiddlehook-cy" format="2">
  <advance width="2009"/>
  <unicode hex="04A6"/>
  <anchor x="735" y="-166" name="btm"/>
  <anchor x="715" y="1660" name="top"/>
  <outline>
    <contour>
      <point x="1307" y="-332" type="curve" smooth="yes"/>
      <point x="1763" y="-332"/>
      <point x="1933" y="109"/>
      <point x="1933" y="432" type="curve" smooth="yes"/>
      <point x="1933" y="723"/>
      <point x="1795" y="838"/>
      <point x="1572" y="838" type="curve" smooth="yes"/>
      <point x="1444" y="838"/>
      <point x="1322" y="800"/>
      <point x="1221" y="722" type="curve"/>
      <point x="1317" y="1420" type="line"/>
      <point x="1453" y="1450" type="line"/>
      <point x="1458" y="1486" type="line"/>
      <point x="174" y="1486" type="line"/>
      <point x="169" y="1450" type="line"/>
      <point x="305" y="1420" type="line"/>
      <point x="119" y="67" type="line"/>
      <point x="-27" y="36" type="line"/>
      <point x="-32" y="0" type="line"/>
      <point x="418" y="0" type="line"/>
      <point x="423" y="36" type="line"/>
      <point x="275" y="67" type="line"/>
      <point x="461" y="1420" type="line"/>
      <point x="1161" y="1420" type="line"/>
      <point x="975" y="67" type="line"/>
      <point x="829" y="36" type="line"/>
      <point x="824" y="0" type="line"/>
      <point x="1274" y="0" type="line"/>
      <point x="1279" y="36" type="line"/>
      <point x="1131" y="67" type="line"/>
      <point x="1211" y="647" type="line"/>
      <point x="1264" y="689"/>
      <point x="1397" y="759"/>
      <point x="1527" y="759" type="curve" smooth="yes"/>
      <point x="1671" y="759"/>
      <point x="1765" y="672"/>
      <point x="1765" y="403" type="curve" smooth="yes"/>
      <point x="1765" y="80"/>
      <point x="1630" y="-267"/>
      <point x="1305" y="-267" type="curve" smooth="yes"/>
      <point x="1280" y="-267"/>
      <point x="1246" y="-265"/>
      <point x="1226" y="-257" type="curve"/>
      <point x="1217" y="-319" type="line"/>
      <point x="1237" y="-328"/>
      <point x="1264" y="-332"/>
    </contour>
  </outline>
</glyph>
<glyph name="Haabkhasian-cy" format="2">
  <advance width="1648"/>
  <unicode hex="04A8"/>
  <outline>
    <contour>
      <point x="727" y="-22" type="curve" smooth="yes"/>
      <point x="847" y="-22"/>
      <point x="948" y="4"/>
      <point x="1036" y="43" type="curve"/>
      <point x="1113" y="6"/>
      <point x="1191" y="-12"/>
      <point x="1258" y="-12" type="curve" smooth="yes"/>
      <point x="1303" y="-12"/>
      <point x="1372" y="-5"/>
      <point x="1426" y="8" type="curve"/>
      <point x="1434" y="64" type="line"/>
      <point x="1413" y="58"/>
      <point x="1340" y="48"/>
      <point x="1282" y="48" type="curve" smooth="yes"/>
      <point x="1227" y="48"/>
      <point x="1169" y="57"/>
      <point x="1116" y="84" type="curve"/>
      <point x="1464" y="252"/>
      <point x="1629" y="530"/>
      <point x="1629" y="812" type="curve" smooth="yes"/>
      <point x="1629" y="1066"/>
      <point x="1473" y="1205"/>
      <point x="1238" y="1205" type="curve" smooth="yes"/>
      <point x="929" y="1205"/>
      <point x="671" y="967"/>
      <point x="671" y="585" type="curve" smooth="yes"/>
      <point x="671" y="343"/>
      <point x="793" y="190"/>
      <point x="969" y="82" type="curve"/>
      <point x="911" y="65"/>
      <point x="838" y="55"/>
      <point x="776" y="55" type="curve" smooth="yes"/>
      <point x="471" y="55"/>
      <point x="251" y="300"/>
      <point x="251" y="670" type="curve" smooth="yes"/>
      <point x="251" y="1051"/>
      <point x="485" y="1438"/>
      <point x="891" y="1438" type="curve" smooth="yes"/>
      <point x="1001" y="1438"/>
      <point x="1097" y="1410"/>
      <point x="1119" y="1386" type="curve"/>
      <point x="1154" y="1442" type="line"/>
      <point x="1107" y="1481"/>
      <point x="1004" y="1502"/>
      <point x="890" y="1502" type="curve" smooth="yes"/>
      <point x="421" y="1502"/>
      <point x="87" y="1145"/>
      <point x="87" y="669" type="curve" smooth="yes"/>
      <point x="87" y="262"/>
      <point x="331" y="-22"/>
    </contour>
    <contour>
      <point x="1060" y="118" type="curve"/>
      <point x="927" y="200"/>
      <point x="833" y="369"/>
      <point x="833" y="614" type="curve" smooth="yes"/>
      <point x="833" y="942"/>
      <point x="1001" y="1148"/>
      <point x="1223" y="1148" type="curve" smooth="yes"/>
      <point x="1404" y="1148"/>
      <point x="1466" y="998"/>
      <point x="1466" y="817" type="curve" smooth="yes"/>
      <point x="1466" y="541"/>
      <point x="1350" y="270"/>
    </contour>
  </outline>
</glyph>
<glyph name="haabkhasian-cy" format="2">
  <advance width="1162"/>
  <unicode hex="04A9"/>
  <outline>
    <contour>
      <point x="476" y="-22" type="curve" smooth="yes"/>
      <point x="573" y="-22"/>
      <point x="647" y="-2"/>
      <point x="735" y="27" type="curve"/>
      <point x="813" y="-5"/>
      <point x="871" y="-20"/>
      <point x="948" y="-20" type="curve" smooth="yes"/>
      <point x="985" y="-20"/>
      <point x="1036" y="-14"/>
      <point x="1055" y="-8" type="curve"/>
      <point x="1073" y="38" type="line"/>
      <point x="1049" y="34"/>
      <point x="994" y="31"/>
      <point x="965" y="31" type="curve" smooth="yes"/>
      <point x="917" y="31"/>
      <point x="859" y="43"/>
      <point x="807" y="71" type="curve"/>
      <point x="979" y="141"/>
      <point x="1120" y="327"/>
      <point x="1120" y="540" type="curve" smooth="yes"/>
      <point x="1120" y="724"/>
      <point x="1016" y="814"/>
      <point x="862" y="814" type="curve" smooth="yes"/>
      <point x="663" y="814"/>
      <point x="474" y="646"/>
      <point x="474" y="385" type="curve" smooth="yes"/>
      <point x="474" y="245"/>
      <point x="581" y="111"/>
      <point x="676" y="63" type="curve"/>
      <point x="582" y="39"/>
      <point x="546" y="37"/>
      <point x="498" y="37" type="curve" smooth="yes"/>
      <point x="296" y="37"/>
      <point x="189" y="197"/>
      <point x="189" y="416" type="curve" smooth="yes"/>
      <point x="189" y="776"/>
      <point x="399" y="978"/>
      <point x="625" y="978" type="curve" smooth="yes"/>
      <point x="722" y="978"/>
      <point x="767" y="961"/>
      <point x="811" y="943" type="curve"/>
      <point x="844" y="978" type="line"/>
      <point x="807" y="998"/>
      <point x="728" y="1030"/>
      <point x="610" y="1030" type="curve" smooth="yes"/>
      <point x="323" y="1030"/>
      <point x="31" y="795"/>
      <point x="31" y="409" type="curve" smooth="yes"/>
      <point x="31" y="128"/>
      <point x="232" y="-22"/>
    </contour>
    <contour>
      <point x="855" y="772" type="curve" smooth="yes"/>
      <point x="942" y="772"/>
      <point x="978" y="673"/>
      <point x="978" y="543" type="curve" smooth="yes"/>
      <point x="978" y="318"/>
      <point x="875" y="158"/>
      <point x="757" y="103" type="curve"/>
      <point x="696" y="155"/>
      <point x="616" y="268"/>
      <point x="616" y="395" type="curve" smooth="yes"/>
      <point x="616" y="589"/>
      <point x="709" y="772"/>
    </contour>
  </outline>
</glyph>
<glyph name="esdescender-cy" format="2">
  <advance width="855"/>
  <unicode hex="04AB"/>
  <outline>
    <contour>
      <point x="188" y="-451" type="curve"/>
      <point x="210" y="-478" type="line"/>
      <point x="305" y="-464"/>
      <point x="443" y="-394"/>
      <point x="443" y="-269" type="curve" smooth="yes"/>
      <point x="443" y="-207"/>
      <point x="401" y="-154"/>
      <point x="401" y="-98" type="curve" smooth="yes"/>
      <point x="401" y="-51"/>
      <point x="436" y="-27"/>
      <point x="482" y="-12" type="curve"/>
      <point x="602" y="12"/>
      <point x="697" y="73"/>
      <point x="761" y="150" type="curve"/>
      <point x="745" y="188" type="line"/>
      <point x="653" y="95"/>
      <point x="539" y="44"/>
      <point x="426" y="44" type="curve" smooth="yes"/>
      <point x="248" y="44"/>
      <point x="190" y="168"/>
      <point x="190" y="338" type="curve" smooth="yes"/>
      <point x="190" y="693"/>
      <point x="413" y="988"/>
      <point x="616" y="988" type="curve" smooth="yes"/>
      <point x="720" y="988"/>
      <point x="737" y="957"/>
      <point x="782" y="773" type="curve"/>
      <point x="790" y="773"/>
      <point x="797" y="773"/>
      <point x="805" y="773" type="curve"/>
      <point x="866" y="985" type="line"/>
      <point x="808" y="1016"/>
      <point x="720" y="1031"/>
      <point x="634" y="1031" type="curve" smooth="yes"/>
      <point x="278" y="1031"/>
      <point x="34" y="664"/>
      <point x="34" y="347" type="curve" smooth="yes"/>
      <point x="34" y="133"/>
      <point x="136" y="-7"/>
      <point x="367" y="-16" type="curve"/>
      <point x="307" y="-46"/>
      <point x="271" y="-98"/>
      <point x="271" y="-155" type="curve" smooth="yes"/>
      <point x="271" y="-222"/>
      <point x="306" y="-267"/>
      <point x="306" y="-315" type="curve" smooth="yes"/>
      <point x="306" y="-381"/>
      <point x="246" y="-433"/>
    </contour>
  </outline>
</glyph>
<glyph name="ustrait-cy" format="2">
  <advance width="958"/>
  <unicode hex="04AF"/>
  <anchor x="417" y="31" name="center"/>
  <outline>
    <contour>
      <point x="608" y="244" type="curve" smooth="yes"/>
      <point x="443" y="50" type="line"/>
      <point x="419" y="195" type="line"/>
      <point x="290" y="903" type="line" smooth="yes"/>
      <point x="275" y="983"/>
      <point x="257" y="1037"/>
      <point x="167" y="1037" type="curve" smooth="yes"/>
      <point x="73" y="1037"/>
      <point x="1" y="949"/>
      <point x="-15" y="925" type="curve"/>
      <point x="2" y="900" type="line"/>
      <point x="44" y="941"/>
      <point x="71" y="949"/>
      <point x="94" y="949" type="curve" smooth="yes"/>
      <point x="116" y="949"/>
      <point x="127" y="937"/>
      <point x="138" y="883" type="curve" smooth="yes"/>
      <point x="319" y="11" type="line"/>
      <point x="226" y="-349" type="line" smooth="yes"/>
      <point x="201" y="-447"/>
      <point x="230" y="-504"/>
      <point x="305" y="-504" type="curve" smooth="yes"/>
      <point x="396" y="-504"/>
      <point x="480" y="-453"/>
      <point x="523" y="-386" type="curve"/>
      <point x="506" y="-356" type="line"/>
      <point x="468" y="-402"/>
      <point x="418" y="-422"/>
      <point x="387" y="-422" type="curve" smooth="yes"/>
      <point x="359" y="-422"/>
      <point x="348" y="-395"/>
      <point x="372" y="-311" type="curve" smooth="yes"/>
      <point x="461" y="-3" type="line"/>
      <point x="520" y="59"/>
      <point x="611" y="163"/>
      <point x="667" y="234" type="curve" smooth="yes"/>
      <point x="837" y="447"/>
      <point x="948" y="638"/>
      <point x="948" y="856" type="curve" smooth="yes"/>
      <point x="948" y="964"/>
      <point x="909" y="1032"/>
      <point x="840" y="1032" type="curve" smooth="yes"/>
      <point x="794" y="1032"/>
      <point x="763" y="1009"/>
      <point x="763" y="950" type="curve" smooth="yes"/>
      <point x="763" y="878"/>
      <point x="844" y="870"/>
      <point x="844" y="760" type="curve" smooth="yes"/>
      <point x="844" y="595"/>
      <point x="747" y="408"/>
    </contour>
  </outline>
</glyph>
<glyph name="Tetse-cy" format="2">
  <advance width="1720"/>
  <unicode hex="04B4"/>
  <anchor x="714" y="-166" name="btm"/>
  <anchor x="720" y="1660" name="top"/>
  <outline>
    <contour>
      <point x="1430" y="-360" type="curve"/>
      <point x="1522" y="-360" type="line"/>
      <point x="1551" y="-277"/>
      <point x="1600" y="-66"/>
      <point x="1630" y="67" type="curve"/>
      <point x="1478" y="67" type="line"/>
      <point x="1665" y="1419" type="line"/>
      <point x="1811" y="1450" type="line"/>
      <point x="1816" y="1486" type="line"/>
      <point x="1365" y="1486" type="line"/>
      <point x="1360" y="1450" type="line"/>
      <point x="1508" y="1419" type="line"/>
      <point x="1322" y="66" type="line"/>
      <point x="588" y="66" type="line"/>
      <point x="770" y="1421" type="line"/>
      <point x="1078" y="1405" type="line"/>
      <point x="1111" y="1068" type="line"/>
      <point x="1170" y="1070" type="line"/>
      <point x="1197" y="1487" type="line"/>
      <point x="202" y="1487" type="line"/>
      <point x="121" y="1070" type="line"/>
      <point x="182" y="1072" type="line"/>
      <point x="312" y="1405" type="line"/>
      <point x="617" y="1421" type="line"/>
      <point x="431" y="66" type="line"/>
      <point x="215" y="36" type="line"/>
      <point x="210" y="0" type="line"/>
      <point x="1470" y="0" type="line"/>
      <point x="1458" y="-108"/>
      <point x="1440" y="-296"/>
    </contour>
  </outline>
</glyph>
<glyph name="Cheabkhasian-cy" format="2">
  <advance width="1570"/>
  <unicode hex="04BC"/>
  <anchor x="991" y="0" name="bottom"/>
  <outline>
    <contour>
      <point x="985" y="-16" type="curve" smooth="yes"/>
      <point x="1215" y="-16"/>
      <point x="1322" y="52"/>
      <point x="1407" y="73" type="curve"/>
      <point x="1448" y="394" type="line"/>
      <point x="1377" y="394" type="line"/>
      <point x="1322" y="157" type="line" smooth="yes"/>
      <point x="1317" y="135"/>
      <point x="1193" y="35"/>
      <point x="997" y="35" type="curve" smooth="yes"/>
      <point x="725" y="35"/>
      <point x="530" y="228"/>
      <point x="530" y="650" type="curve" smooth="yes"/>
      <point x="530" y="680"/>
      <point x="531" y="713"/>
      <point x="534" y="747" type="curve"/>
      <point x="1532" y="747" type="line"/>
      <point x="1552" y="803"/>
      <point x="1570" y="900"/>
      <point x="1570" y="1006" type="curve" smooth="yes"/>
      <point x="1570" y="1324"/>
      <point x="1401" y="1502"/>
      <point x="1113" y="1502" type="curve" smooth="yes"/>
      <point x="719" y="1502"/>
      <point x="444" y="1204"/>
      <point x="380" y="815" type="curve"/>
      <point x="263" y="819"/>
      <point x="217" y="860"/>
      <point x="217" y="932" type="curve" smooth="yes"/>
      <point x="217" y="990"/>
      <point x="246" y="1044"/>
      <point x="275" y="1069" type="curve"/>
      <point x="152" y="1094" type="line"/>
      <point x="110" y="1049"/>
      <point x="81" y="990"/>
      <point x="81" y="933" type="curve" smooth="yes"/>
      <point x="81" y="813"/>
      <point x="207" y="755"/>
      <point x="371" y="752" type="curve"/>
      <point x="367" y="713"/>
      <point x="365" y="674"/>
      <point x="365" y="634" type="curve" smooth="yes"/>
      <point x="365" y="216"/>
      <point x="574" y="-16"/>
    </contour>
    <contour>
      <point x="1390" y="811" type="curve"/>
      <point x="539" y="811" type="line"/>
      <point x="580" y="1127"/>
      <point x="771" y="1447"/>
      <point x="1075" y="1447" type="curve" smooth="yes"/>
      <point x="1329" y="1447"/>
      <point x="1420" y="1247"/>
      <point x="1420" y="1034" type="curve" smooth="yes"/>
      <point x="1420" y="960"/>
      <point x="1406" y="878"/>
    </contour>
  </outline>
</glyph>
<glyph name="kahook-cy" format="2">
  <advance width="1039"/>
  <unicode hex="04C4"/>
  <outline>
    <contour>
      <point x="77" y="0" type="line"/>
      <point x="219" y="0" type="line"/>
      <point x="284" y="445" type="line"/>
      <point x="330" y="460"/>
      <point x="403" y="474"/>
      <point x="453" y="474" type="curve" smooth="yes"/>
      <point x="672" y="474"/>
      <point x="789" y="359"/>
      <point x="789" y="135" type="curve" smooth="yes"/>
      <point x="789" y="-123"/>
      <point x="571" y="-342"/>
      <point x="391" y="-342" type="curve" smooth="yes"/>
      <point x="364" y="-342"/>
      <point x="333" y="-340"/>
      <point x="303" y="-337" type="curve"/>
      <point x="294" y="-370" type="line"/>
      <point x="321" y="-377"/>
      <point x="370" y="-384"/>
      <point x="412" y="-384" type="curve" smooth="yes"/>
      <point x="662" y="-384"/>
      <point x="950" y="-144"/>
      <point x="950" y="156" type="curve" smooth="yes"/>
      <point x="950" y="348"/>
      <point x="835" y="521"/>
      <point x="492" y="525" type="curve"/>
      <point x="623" y="592"/>
      <point x="793" y="731"/>
      <point x="892" y="832" type="curve" smooth="yes"/>
      <point x="933" y="874"/>
      <point x="950" y="913"/>
      <point x="950" y="958" type="curve" smooth="yes"/>
      <point x="950" y="997"/>
      <point x="924" y="1037"/>
      <point x="884" y="1037" type="curve" smooth="yes"/>
      <point x="837" y="1037"/>
      <point x="794" y="1008"/>
      <point x="783" y="929" type="curve" smooth="yes"/>
      <point x="777" y="887"/>
      <point x="770" y="843"/>
      <point x="730" y="796" type="curve" smooth="yes"/>
      <point x="666" y="720"/>
      <point x="562" y="609"/>
      <point x="430" y="530" type="curve"/>
      <point x="384" y="518"/>
      <point x="359" y="515"/>
      <point x="293" y="502" type="curve"/>
      <point x="371" y="1005" type="line"/>
      <point x="340" y="1025" type="line"/>
      <point x="79" y="980" type="line"/>
      <point x="75" y="954" type="line"/>
      <point x="213" y="923" type="line"/>
    </contour>
  </outline>
</glyph>
<glyph name="hahook-cy" format="2">
  <advance width="904"/>
  <unicode hex="04FD"/>
  <outline>
    <contour>
      <point x="216" y="880" type="curve" smooth="yes"/>
      <point x="407" y="497" type="line"/>
      <point x="-60" y="0" type="line"/>
      <point x="130" y="0" type="line"/>
      <point x="428" y="451" type="line"/>
      <point x="509" y="257"/>
      <point x="604" y="64"/>
      <point x="604" y="-121" type="curve" smooth="yes"/>
      <point x="604" y="-289"/>
      <point x="494" y="-434"/>
      <point x="311" y="-510" type="curve"/>
      <point x="322" y="-532" type="line"/>
      <point x="581" y="-440"/>
      <point x="736" y="-270"/>
      <point x="736" y="-52" type="curve" smooth="yes"/>
      <point x="736" y="107"/>
      <point x="642" y="290"/>
      <point x="519" y="529" type="curve"/>
      <point x="973" y="1005" type="line"/>
      <point x="789" y="1005" type="line"/>
      <point x="500" y="572" type="line"/>
      <point x="368" y="901" type="line" smooth="yes"/>
      <point x="333" y="989"/>
      <point x="313" y="1022"/>
      <point x="248" y="1022" type="curve" smooth="yes"/>
      <point x="163" y="1022"/>
      <point x="92" y="966"/>
      <point x="57" y="917" type="curve"/>
      <point x="74" y="886" type="line"/>
      <point x="98" y="911"/>
      <point x="132" y="937"/>
      <point x="165" y="937" type="curve" smooth="yes"/>
      <point x="187" y="937"/>
      <point x="196" y="920"/>
    </contour>
  </outline>
</glyph>
<glyph name="komidzje-cy" format="2">
  <advance width="857"/>
  <unicode hex="0507"/>
  <outline>
    <contour>
      <point x="46" y="388" type="line"/>
      <point x="81" y="383"/>
      <point x="149" y="379"/>
      <point x="222" y="380" type="curve"/>
      <point x="328" y="333"/>
      <point x="374" y="-21"/>
      <point x="569" y="-21" type="curve" smooth="yes"/>
      <point x="593" y="-21"/>
      <point x="614" y="-19"/>
      <point x="633" y="-16" type="curve"/>
      <point x="616" y="-41"/>
      <point x="605" y="-71"/>
      <point x="598" y="-103" type="curve" smooth="yes"/>
      <point x="581" y="-184"/>
      <point x="599" y="-272"/>
      <point x="565" y="-330" type="curve" smooth="yes"/>
      <point x="539" y="-374"/>
      <point x="500" y="-395"/>
      <point x="440" y="-422" type="curve"/>
      <point x="452" y="-477" type="line"/>
      <point x="541" y="-462"/>
      <point x="585" y="-444"/>
      <point x="628" y="-413" type="curve" smooth="yes"/>
      <point x="731" y="-339"/>
      <point x="726" y="-237"/>
      <point x="721" y="-105" type="curve" smooth="yes"/>
      <point x="719" y="-45"/>
      <point x="722" y="0"/>
      <point x="730" y="32" type="curve"/>
      <point x="748" y="50"/>
      <point x="764" y="72"/>
      <point x="781" y="96" type="curve"/>
      <point x="762" y="126" type="line"/>
      <point x="718" y="78"/>
      <point x="695" y="60"/>
      <point x="660" y="60" type="curve" smooth="yes"/>
      <point x="570" y="60"/>
      <point x="487" y="338"/>
      <point x="359" y="395" type="curve"/>
      <point x="547" y="433"/>
      <point x="718" y="556"/>
      <point x="718" y="758" type="curve" smooth="yes"/>
      <point x="718" y="932"/>
      <point x="570" y="1017"/>
      <point x="323" y="1017" type="curve" smooth="yes"/>
      <point x="246" y="1017"/>
      <point x="193" y="1005"/>
      <point x="129" y="1005" type="curve"/>
      <point x="121" y="944" type="line"/>
      <point x="193" y="966"/>
      <point x="263" y="975"/>
      <point x="311" y="975" type="curve" smooth="yes"/>
      <point x="465" y="975"/>
      <point x="541" y="893"/>
      <point x="541" y="755" type="curve" smooth="yes"/>
      <point x="541" y="570"/>
      <point x="443" y="426"/>
      <point x="253" y="426" type="curve" smooth="yes"/>
      <point x="200" y="426"/>
      <point x="95" y="431"/>
      <point x="51" y="435" type="curve"/>
    </contour>
  </outline>
</glyph>
<glyph name="komilje-cy" format="2">
  <advance width="1376"/>
  <unicode hex="0509"/>
  <outline>
    <contour>
      <point x="977" y="-22" type="curve" smooth="yes"/>
      <point x="1176" y="-22"/>
      <point x="1297" y="106"/>
      <point x="1334" y="380" type="curve" smooth="yes"/>
      <point x="1359" y="565" type="line"/>
      <point x="1244" y="565" type="line"/>
      <point x="1219" y="374" type="line" smooth="yes"/>
      <point x="1190" y="154"/>
      <point x="1120" y="19"/>
      <point x="993" y="19" type="curve" smooth="yes"/>
      <point x="829" y="19"/>
      <point x="808" y="119"/>
      <point x="845" y="364" type="curve" smooth="yes"/>
      <point x="941" y="1004" type="line"/>
      <point x="239" y="1004" type="line"/>
      <point x="235" y="976" type="line"/>
      <point x="403" y="923" type="line"/>
      <point x="367" y="737"/>
      <point x="258" y="385"/>
      <point x="195" y="255" type="curve" smooth="yes"/>
      <point x="163" y="187"/>
      <point x="128" y="143"/>
      <point x="89" y="143" type="curve" smooth="yes"/>
      <point x="61" y="143"/>
      <point x="-27" y="165"/>
      <point x="-37" y="173" type="curve"/>
      <point x="-68" y="8" type="line"/>
      <point x="-64" y="0"/>
      <point x="-8" y="-16"/>
      <point x="22" y="-16" type="curve" smooth="yes"/>
      <point x="117" y="-16"/>
      <point x="175" y="42"/>
      <point x="230" y="140" type="curve" smooth="yes"/>
      <point x="311" y="284"/>
      <point x="386" y="548"/>
      <point x="480" y="940" type="curve"/>
      <point x="789" y="940" type="line"/>
      <point x="759" y="746"/>
      <point x="730" y="551"/>
      <point x="702" y="357" type="curve" smooth="yes"/>
      <point x="657" y="48"/>
      <point x="802" y="-22"/>
    </contour>
  </outline>
</glyph>
<glyph name="kominje-cy" format="2">
  <advance width="1431"/>
  <unicode hex="050B"/>
  <anchor x="659" y="-166" name="btm"/>
  <anchor x="661" y="1660" name="top"/>
  <outline>
    <contour>
      <point x="902" y="381" type="curve" smooth="yes"/>
      <point x="993" y="1005" type="line"/>
      <point x="851" y="1005" type="line"/>
      <point x="784" y="547" type="line"/>
      <point x="289" y="547" type="line"/>
      <point x="357" y="1005" type="line"/>
      <point x="324" y="1025" type="line"/>
      <point x="74" y="979" type="line"/>
      <point x="70" y="954" type="line"/>
      <point x="206" y="923" type="line"/>
      <point x="68" y="0" type="line"/>
      <point x="210" y="0" type="line"/>
      <point x="278" y="486" type="line"/>
      <point x="774" y="486" type="line"/>
      <point x="756" y="359" type="line" smooth="yes"/>
      <point x="712" y="49"/>
      <point x="854" y="-22"/>
      <point x="1034" y="-22" type="curve" smooth="yes"/>
      <point x="1233" y="-22"/>
      <point x="1352" y="106"/>
      <point x="1389" y="380" type="curve" smooth="yes"/>
      <point x="1414" y="565" type="line"/>
      <point x="1299" y="565" type="line"/>
      <point x="1274" y="374" type="line" smooth="yes"/>
      <point x="1245" y="153"/>
      <point x="1175" y="19"/>
      <point x="1048" y="19" type="curve" smooth="yes"/>
      <point x="885" y="19"/>
      <point x="864" y="119"/>
    </contour>
  </outline>
</glyph>
<glyph name="Komitje-cy" format="2">
  <advance width="1429"/>
  <unicode hex="050E"/>
  <anchor x="714" y="-166" name="btm"/>
  <outline>
    <contour>
      <point x="121" y="1070" type="line"/>
      <point x="182" y="1072" type="line"/>
      <point x="312" y="1405" type="line"/>
      <point x="697" y="1421" type="line"/>
      <point x="554" y="384" type="line" smooth="yes"/>
      <point x="550" y="356"/>
      <point x="549" y="330"/>
      <point x="549" y="305" type="curve" smooth="yes"/>
      <point x="549" y="86"/>
      <point x="687" y="-16"/>
      <point x="902" y="-16" type="curve" smooth="yes"/>
      <point x="1106" y="-16"/>
      <point x="1328" y="119"/>
      <point x="1366" y="445" type="curve"/>
      <point x="1387" y="628" type="line"/>
      <point x="1246" y="628" type="line"/>
      <point x="1222" y="434" type="line"/>
      <point x="1185" y="134"/>
      <point x="1035" y="36"/>
      <point x="923" y="36" type="curve" smooth="yes"/>
      <point x="780" y="36"/>
      <point x="706" y="120"/>
      <point x="706" y="298" type="curve" smooth="yes"/>
      <point x="706" y="332"/>
      <point x="708" y="370"/>
      <point x="714" y="411" type="curve" smooth="yes"/>
      <point x="851" y="1421" type="line"/>
      <point x="1238" y="1405" type="line"/>
      <point x="1271" y="1068" type="line"/>
      <point x="1330" y="1070" type="line"/>
      <point x="1357" y="1487" type="line"/>
      <point x="202" y="1487" type="line"/>
    </contour>
  </outline>
</glyph>
<glyph name="EnLeftHook-cy" format="2">
  <advance width="1468"/>
  <unicode hex="0528"/>
  <outline>
    <contour>
      <point x="-198" y="-309" type="line"/>
      <point x="4" y="-275"/>
      <point x="231" y="-164"/>
      <point x="286" y="74" type="curve" smooth="yes"/>
      <point x="309" y="174"/>
      <point x="340" y="409"/>
      <point x="384" y="732" type="curve"/>
      <point x="1182" y="732" type="line"/>
      <point x="1091" y="67" type="line"/>
      <point x="942" y="36" type="line"/>
      <point x="937" y="0" type="line"/>
      <point x="1362" y="0" type="line"/>
      <point x="1367" y="36" type="line"/>
      <point x="1247" y="67" type="line"/>
      <point x="1433" y="1420" type="line"/>
      <point x="1549" y="1450" type="line"/>
      <point x="1554" y="1486" type="line"/>
      <point x="1133" y="1486" type="line"/>
      <point x="1128" y="1450" type="line"/>
      <point x="1277" y="1420" type="line"/>
      <point x="1191" y="798" type="line"/>
      <point x="392" y="798" type="line"/>
      <point x="477" y="1419" type="line"/>
      <point x="629" y="1450" type="line"/>
      <point x="634" y="1486" type="line"/>
      <point x="201" y="1486" type="line"/>
      <point x="196" y="1450" type="line"/>
      <point x="322" y="1421" type="line"/>
      <point x="138" y="88" type="line"/>
      <point x="110" y="-70"/>
      <point x="-1" y="-209"/>
      <point x="-219" y="-266" type="curve"/>
    </contour>
  </outline>
</glyph>
<glyph name="enlefthook-cy" format="2">
  <advance width="1113"/>
  <unicode hex="0529"/>
  <outline>
    <contour>
      <point x="911" y="153" type="curve" smooth="yes"/>
      <point x="1037" y="1005" type="line"/>
      <point x="895" y="1005" type="line"/>
      <point x="827" y="547" type="line"/>
      <point x="332" y="547" type="line"/>
      <point x="400" y="1005" type="line"/>
      <point x="367" y="1025" type="line"/>
      <point x="112" y="979" type="line"/>
      <point x="108" y="954" type="line"/>
      <point x="250" y="923" type="line"/>
      <point x="111" y="0" type="line" smooth="yes"/>
      <point x="67" y="-290"/>
      <point x="1" y="-457"/>
      <point x="-161" y="-457" type="curve" smooth="yes"/>
      <point x="-208" y="-457"/>
      <point x="-242" y="-443"/>
      <point x="-268" y="-435" type="curve"/>
      <point x="-279" y="-471" type="line"/>
      <point x="-251" y="-484"/>
      <point x="-186" y="-506"/>
      <point x="-131" y="-506" type="curve" smooth="yes"/>
      <point x="92" y="-506"/>
      <point x="202" y="-365"/>
      <point x="245" y="-61" type="curve" smooth="yes"/>
      <point x="323" y="486" type="line"/>
      <point x="818" y="486" type="line"/>
      <point x="800" y="369"/>
      <point x="782" y="251"/>
      <point x="764" y="134" type="curve" smooth="yes"/>
      <point x="747" y="22"/>
      <point x="799" y="-21"/>
      <point x="871" y="-21" type="curve" smooth="yes"/>
      <point x="957" y="-21"/>
      <point x="1029" y="27"/>
      <point x="1072" y="94" type="curve"/>
      <point x="1054" y="124" type="line"/>
      <point x="1014" y="75"/>
      <point x="972" y="59"/>
      <point x="946" y="59" type="curve" smooth="yes"/>
      <point x="925" y="59"/>
      <point x="899" y="74"/>
    </contour>
  </outline>
</glyph>
<glyph name="dram-arm" format="2">
  <advance width="1538"/>
  <unicode hex="058F"/>
  <outline>
    <contour>
      <point x="1159" y="394" type="line"/>
      <point x="1441" y="394" type="line"/>
      <point x="1449" y="448" type="line"/>
      <point x="1167" y="448" type="line"/>
      <point x="1193" y="636" type="line"/>
      <point x="1475" y="636" type="line"/>
      <point x="1482" y="690" type="line"/>
      <point x="1200" y="690" type="line"/>
      <point x="1241" y="991" type="line"/>
      <point x="1287" y="1278"/>
      <point x="1171" y="1502"/>
      <point x="807" y="1502" type="curve" smooth="yes"/>
      <point x="512" y="1502"/>
      <point x="239" y="1354"/>
      <point x="195" y="1028" type="curve" smooth="yes"/>
      <point x="182" y="931" type="line"/>
      <point x="46" y="901" type="line"/>
      <point x="41" y="865" type="line"/>
      <point x="461" y="865" type="line"/>
      <point x="466" y="901" type="line"/>
      <point x="337" y="933" type="line"/>
      <point x="351" y="1036" type="line" smooth="yes"/>
      <point x="393" y="1343"/>
      <point x="594" y="1453"/>
      <point x="791" y="1453" type="curve" smooth="yes"/>
      <point x="1063" y="1453"/>
      <point x="1122" y="1243"/>
      <point x="1084" y="971" type="curve"/>
      <point x="1045" y="690" type="line"/>
      <point x="747" y="690" type="line"/>
      <point x="740" y="636" type="line"/>
      <point x="1038" y="636" type="line"/>
      <point x="1012" y="448" type="line"/>
      <point x="714" y="448" type="line"/>
      <point x="706" y="394" type="line"/>
      <point x="1004" y="394" type="line"/>
      <point x="960" y="66" type="line"/>
      <point x="787" y="36" type="line"/>
      <point x="783" y="0" type="line"/>
      <point x="1264" y="0" type="line"/>
      <point x="1268" y="36" type="line"/>
      <point x="1115" y="66" type="line"/>
    </contour>
  </outline>
</glyph>
<glyph name="endash" format="2">
  <advance width="1506"/>
  <unicode hex="2013"/>
  <outline>
    <contour>
      <point x="1379" y="600" type="line"/>
      <point x="154" y="600" type="line"/>
      <point x="142" y="520" type="line"/>
      <point x="1367" y="520" type="line"/>
    </contour>
  </outline>
</glyph>
<glyph name="emdash" format="2">
  <advance width="2115"/>
  <unicode hex="2014"/>
  <outline>
    <contour>
      <point x="1988" y="600" type="line"/>
      <point x="154" y="600" type="line"/>
      <point x="142" y="520" type="line"/>
      <point x="1976" y="520" type="line"/>
    </contour>
  </outline>
</glyph>
<glyph name="quoteleft" format="2">
  <advance width="357"/>
  <unicode hex="2018"/>
  <outline>
    <contour>
      <point x="344" y="1062" type="curve"/>
      <point x="417" y="1156" type="line"/>
      <point x="418" y="1181" type="line"/>
      <point x="359" y="1193"/>
      <point x="299" y="1280"/>
      <point x="299" y="1369" type="curve" smooth="yes"/>
      <point x="299" y="1476"/>
      <point x="326" y="1559"/>
      <point x="415" y="1647" type="curve"/>
      <point x="415" y="1655" type="line"/>
      <point x="387" y="1674" type="line"/>
      <point x="286" y="1601"/>
      <point x="193" y="1461"/>
      <point x="193" y="1295" type="curve" smooth="yes"/>
      <point x="193" y="1197"/>
      <point x="245" y="1089"/>
    </contour>
  </outline>
</glyph>
<glyph name="daggerdbl" format="2">
  <advance width="825"/>
  <unicode hex="2021"/>
  <outline>
    <contour>
      <point x="324" y="114" type="line"/>
      <point x="384" y="114" type="line"/>
      <point x="463" y="380" type="line"/>
      <point x="461" y="672" type="line"/>
      <point x="749" y="626" type="line"/>
      <point x="769" y="772" type="line"/>
      <point x="468" y="723" type="line"/>
      <point x="541" y="848" type="line"/>
      <point x="530" y="1140" type="line"/>
      <point x="836" y="1094" type="line"/>
      <point x="856" y="1240" type="line"/>
      <point x="539" y="1191" type="line"/>
      <point x="637" y="1542" type="line"/>
      <point x="646" y="1610" type="line"/>
      <point x="495" y="1610" type="line"/>
      <point x="485" y="1542" type="line"/>
      <point x="482" y="1191" type="line"/>
      <point x="181" y="1240" type="line"/>
      <point x="161" y="1094" type="line"/>
      <point x="474" y="1140" type="line"/>
      <point x="387" y="848" type="line"/>
      <point x="415" y="723" type="line"/>
      <point x="135" y="772" type="line"/>
      <point x="115" y="626" type="line"/>
      <point x="408" y="672" type="line"/>
      <point x="328" y="380" type="line"/>
    </contour>
  </outline>
</glyph>
<glyph name="perthousand" format="2">
  <advance width="2662"/>
  <unicode hex="2030"/>
  <outline>
    <contour>
      <point x="514" y="729" type="curve" smooth="yes"/>
      <point x="688" y="729"/>
      <point x="910" y="886"/>
      <point x="910" y="1157" type="curve" smooth="yes"/>
      <point x="910" y="1326"/>
      <point x="824" y="1443"/>
      <point x="650" y="1443" type="curve" smooth="yes"/>
      <point x="436" y="1443"/>
      <point x="244" y="1279"/>
      <point x="244" y="1030" type="curve" smooth="yes"/>
      <point x="244" y="825"/>
      <point x="375" y="729"/>
    </contour>
    <contour>
      <point x="539" y="767" type="curve" smooth="yes"/>
      <point x="450" y="767"/>
      <point x="374" y="851"/>
      <point x="374" y="1037" type="curve" smooth="yes"/>
      <point x="374" y="1274"/>
      <point x="498" y="1405"/>
      <point x="615" y="1405" type="curve" smooth="yes"/>
      <point x="701" y="1405"/>
      <point x="781" y="1327"/>
      <point x="781" y="1142" type="curve" smooth="yes"/>
      <point x="781" y="908"/>
      <point x="649" y="767"/>
    </contour>
    <contour>
      <point x="1368" y="1494" type="line"/>
      <point x="423" y="0" type="line"/>
      <point x="532" y="0" type="line"/>
      <point x="1478" y="1495" type="line"/>
    </contour>
    <contour>
      <point x="1015" y="364" type="curve" smooth="yes"/>
      <point x="1015" y="158"/>
      <point x="1151" y="62"/>
      <point x="1292" y="62" type="curve" smooth="yes"/>
      <point x="1466" y="62"/>
      <point x="1681" y="219"/>
      <point x="1681" y="490" type="curve" smooth="yes"/>
      <point x="1681" y="659"/>
      <point x="1599" y="776"/>
      <point x="1426" y="776" type="curve" smooth="yes"/>
      <point x="1213" y="776"/>
      <point x="1015" y="611"/>
    </contour>
    <contour>
      <point x="1145" y="371" type="curve" smooth="yes"/>
      <point x="1145" y="607"/>
      <point x="1275" y="738"/>
      <point x="1392" y="738" type="curve" smooth="yes"/>
      <point x="1478" y="738"/>
      <point x="1552" y="659"/>
      <point x="1552" y="476" type="curve" smooth="yes"/>
      <point x="1552" y="241"/>
      <point x="1426" y="100"/>
      <point x="1317" y="100" type="curve" smooth="yes"/>
      <point x="1227" y="100"/>
      <point x="1145" y="183"/>
    </contour>
    <contour>
      <point x="1805" y="364" type="curve" smooth="yes"/>
      <point x="1805" y="158"/>
      <point x="1941" y="62"/>
      <point x="2082" y="62" type="curve" smooth="yes"/>
      <point x="2256" y="62"/>
      <point x="2471" y="219"/>
      <point x="2471" y="490" type="curve" smooth="yes"/>
      <point x="2471" y="659"/>
      <point x="2389" y="776"/>
      <point x="2216" y="776" type="curve" smooth="yes"/>
      <point x="2003" y="776"/>
      <point x="1805" y="611"/>
    </contour>
    <contour>
      <point x="1935" y="371" type="curve" smooth="yes"/>
      <point x="1935" y="607"/>
      <point x="2065" y="738"/>
      <point x="2182" y="738" type="curve" smooth="yes"/>
      <point x="2268" y="738"/>
      <point x="2342" y="659"/>
      <point x="2342" y="476" type="curve" smooth="yes"/>
      <point x="2342" y="241"/>
      <point x="2216" y="100"/>
      <point x="2107" y="100" type="curve" smooth="yes"/>
      <point x="2017" y="100"/>
      <point x="1935" y="183"/>
    </contour>
  </outline>
</glyph>
<glyph name="minute" format="2">
  <advance width="524"/>
  <unicode hex="2032"/>
  <outline>
    <contour>
      <point x="375" y="1740" type="line"/>
      <point x="252" y="1020" type="line"/>
      <point x="320" y="1020" type="line"/>
      <point x="504" y="1740" type="line"/>
    </contour>
  </outline>
</glyph>
<glyph name="guilsinglleft" format="2">
  <advance width="706"/>
  <unicode hex="2039"/>
  <outline>
    <contour>
      <point x="673" y="1116" type="line"/>
      <point x="128" y="686" type="line"/>
      <point x="99" y="571" type="line"/>
      <point x="495" y="131" type="line"/>
      <point x="524" y="152" type="line"/>
      <point x="272" y="622" type="line"/>
      <point x="697" y="1091" type="line"/>
    </contour>
  </outline>
</glyph>
<glyph name="guilsinglright" format="2">
  <advance width="707"/>
  <unicode hex="203A"/>
  <outline>
    <contour>
      <point x="67" y="131" type="line"/>
      <point x="612" y="561" type="line"/>
      <point x="641" y="676" type="line"/>
      <point x="245" y="1116" type="line"/>
      <point x="216" y="1095" type="line"/>
      <point x="468" y="625" type="line"/>
      <point x="43" y="156" type="line"/>
    </contour>
  </outline>
</glyph>
<glyph name="franc" format="2">
  <advance width="1178"/>
  <unicode hex="20A3"/>
  <outline>
    <contour>
      <point x="41" y="437" type="line"/>
      <point x="31" y="367" type="line"/>
      <point x="263" y="367" type="line"/>
      <point x="222" y="67" type="line"/>
      <point x="65" y="36" type="line"/>
      <point x="60" y="0" type="line"/>
      <point x="627" y="0" type="line"/>
      <point x="632" y="36" type="line"/>
      <point x="380" y="67" type="line"/>
      <point x="421" y="367" type="line"/>
      <point x="719" y="367" type="line"/>
      <point x="729" y="437" type="line"/>
      <point x="431" y="437" type="line"/>
      <point x="476" y="753" type="line"/>
      <point x="988" y="739" type="line"/>
      <point x="1001" y="829" type="line"/>
      <point x="484" y="819" type="line"/>
      <point x="566" y="1420" type="line"/>
      <point x="1102" y="1399" type="line"/>
      <point x="1151" y="1180" type="line"/>
      <point x="1202" y="1180" type="line"/>
      <point x="1206" y="1486" type="line"/>
      <point x="267" y="1486" type="line"/>
      <point x="262" y="1450" type="line"/>
      <point x="408" y="1420" type="line"/>
      <point x="273" y="437" type="line"/>
    </contour>
  </outline>
</glyph>
<glyph name="dong" format="2">
  <advance width="1278"/>
  <unicode hex="20AB"/>
  <outline>
    <contour>
      <point x="493" y="258" type="curve" smooth="yes"/>
      <point x="640" y="258"/>
      <point x="759" y="336"/>
      <point x="838" y="410" type="curve"/>
      <point x="834" y="375"/>
      <point x="824" y="334"/>
      <point x="824" y="309" type="curve" smooth="yes"/>
      <point x="824" y="267"/>
      <point x="852" y="249"/>
      <point x="909" y="249" type="curve" smooth="yes"/>
      <point x="967" y="249"/>
      <point x="1029" y="266"/>
      <point x="1070" y="282" type="curve"/>
      <point x="1071" y="314" type="line"/>
      <point x="1009" y="312"/>
      <point x="953" y="315"/>
      <point x="954" y="325" type="curve"/>
      <point x="1084" y="1306" type="line"/>
      <point x="1260" y="1306" type="line"/>
      <point x="1266" y="1362" type="line"/>
      <point x="1092" y="1362" type="line"/>
      <point x="1125" y="1612" type="line"/>
      <point x="1095" y="1636" type="line"/>
      <point x="798" y="1602" type="line"/>
      <point x="797" y="1577" type="line"/>
      <point x="991" y="1565" type="line"/>
      <point x="963" y="1362" type="line"/>
      <point x="660" y="1362" type="line"/>
      <point x="654" y="1306" type="line"/>
      <point x="955" y="1306" type="line"/>
      <point x="926" y="1095" type="line"/>
      <point x="868" y="1120"/>
      <point x="802" y="1140"/>
      <point x="712" y="1140" type="curve" smooth="yes"/>
      <point x="402" y="1140"/>
      <point x="175" y="901"/>
      <point x="175" y="607" type="curve" smooth="yes"/>
      <point x="175" y="374"/>
      <point x="317" y="258"/>
    </contour>
    <contour>
      <point x="543" y="322" type="curve" smooth="yes"/>
      <point x="434" y="322"/>
      <point x="320" y="404"/>
      <point x="320" y="613" type="curve" smooth="yes"/>
      <point x="320" y="843"/>
      <point x="459" y="1098"/>
      <point x="716" y="1098" type="curve" smooth="yes"/>
      <point x="812" y="1098"/>
      <point x="897" y="1062"/>
      <point x="918" y="1026" type="curve"/>
      <point x="840" y="470" type="line"/>
      <point x="763" y="386"/>
      <point x="640" y="322"/>
    </contour>
    <contour>
      <point x="138" y="0" type="line"/>
      <point x="999" y="0" type="line"/>
      <point x="1004" y="57" type="line"/>
      <point x="144" y="57" type="line"/>
    </contour>
  </outline>
</glyph>
<glyph name="euro" format="2">
  <advance width="1500"/>
  <unicode hex="20AC"/>
  <outline>
    <contour>
      <point x="183" y="920" type="line"/>
      <point x="158" y="860" type="line"/>
      <point x="323" y="860" type="line"/>
      <point x="311" y="791"/>
      <point x="305" y="750"/>
      <point x="307" y="620" type="curve"/>
      <point x="130" y="620" type="line"/>
      <point x="105" y="560" type="line"/>
      <point x="311" y="560" type="line"/>
      <point x="333" y="261"/>
      <point x="487" y="-18"/>
      <point x="830" y="-18" type="curve" smooth="yes"/>
      <point x="965" y="-18"/>
      <point x="1097" y="25"/>
      <point x="1142" y="40" type="curve" smooth="yes"/>
      <point x="1198" y="58"/>
      <point x="1240" y="66"/>
      <point x="1278" y="66" type="curve"/>
      <point x="1334" y="371" type="line"/>
      <point x="1261" y="371" type="line"/>
      <point x="1177" y="121" type="line"/>
      <point x="1065" y="62"/>
      <point x="967" y="35"/>
      <point x="884" y="35" type="curve" smooth="yes"/>
      <point x="649" y="35"/>
      <point x="481" y="240"/>
      <point x="465" y="560" type="curve"/>
      <point x="1031" y="560" type="line"/>
      <point x="1057" y="620" type="line"/>
      <point x="461" y="620" type="line"/>
      <point x="457" y="709"/>
      <point x="462" y="773"/>
      <point x="477" y="860" type="curve"/>
      <point x="1083" y="860" type="line"/>
      <point x="1111" y="920" type="line"/>
      <point x="488" y="920" type="line"/>
      <point x="551" y="1210"/>
      <point x="730" y="1452"/>
      <point x="1025" y="1452" type="curve" smooth="yes"/>
      <point x="1147" y="1452"/>
      <point x="1254" y="1408"/>
      <point x="1290" y="1373" type="curve"/>
      <point x="1300" y="1150" type="line"/>
      <point x="1375" y="1150" type="line"/>
      <point x="1430" y="1433" type="line"/>
      <point x="1408" y="1439"/>
      <point x="1398" y="1440"/>
      <point x="1358" y="1453" type="curve" smooth="yes"/>
      <point x="1334" y="1461"/>
      <point x="1209" y="1503"/>
      <point x="1060" y="1503" type="curve" smooth="yes"/>
      <point x="706" y="1503"/>
      <point x="421" y="1268"/>
      <point x="336" y="920" type="curve"/>
    </contour>
  </outline>
</glyph>
<glyph name="peso" format="2">
  <advance width="1562"/>
  <unicode hex="20B1"/>
  <outline>
    <contour>
      <point x="102" y="0" type="line"/>
      <point x="666" y="0" type="line"/>
      <point x="671" y="36" type="line"/>
      <point x="423" y="67" type="line"/>
      <point x="478" y="505" type="line"/>
      <point x="537" y="497"/>
      <point x="612" y="490"/>
      <point x="683" y="490" type="curve" smooth="yes"/>
      <point x="955" y="490"/>
      <point x="1174" y="593"/>
      <point x="1289" y="769" type="curve"/>
      <point x="1542" y="769" type="line"/>
      <point x="1549" y="829" type="line"/>
      <point x="1324" y="829" type="line"/>
      <point x="1362" y="905"/>
      <point x="1379" y="991"/>
      <point x="1378" y="1088" type="curve"/>
      <point x="1605" y="1088" type="line"/>
      <point x="1612" y="1148" type="line"/>
      <point x="1374" y="1148" type="line"/>
      <point x="1349" y="1390"/>
      <point x="1191" y="1502"/>
      <point x="852" y="1502" type="curve" smooth="yes"/>
      <point x="724" y="1502"/>
      <point x="646" y="1486"/>
      <point x="526" y="1486" type="curve" smooth="yes"/>
      <point x="291" y="1486" type="line"/>
      <point x="286" y="1450" type="line"/>
      <point x="437" y="1420" type="line"/>
      <point x="404" y="1148" type="line"/>
      <point x="187" y="1148" type="line"/>
      <point x="178" y="1088" type="line"/>
      <point x="397" y="1088" type="line"/>
      <point x="365" y="829" type="line"/>
      <point x="124" y="829" type="line"/>
      <point x="115" y="769" type="line"/>
      <point x="357" y="769" type="line"/>
      <point x="272" y="67" type="line"/>
      <point x="107" y="36" type="line"/>
    </contour>
    <contour>
      <point x="716" y="542" type="curve" smooth="yes"/>
      <point x="641" y="542"/>
      <point x="576" y="551"/>
      <point x="486" y="568" type="curve"/>
      <point x="510" y="769" type="line"/>
      <point x="1146" y="769" type="line"/>
      <point x="1048" y="606"/>
      <point x="917" y="542"/>
    </contour>
    <contour>
      <point x="517" y="829" type="line"/>
      <point x="550" y="1088" type="line"/>
      <point x="1225" y="1088" type="line"/>
      <point x="1223" y="989"/>
      <point x="1207" y="906"/>
      <point x="1175" y="829" type="curve"/>
    </contour>
    <contour>
      <point x="557" y="1148" type="line"/>
      <point x="590" y="1428" type="line"/>
      <point x="690" y="1441"/>
      <point x="761" y="1450"/>
      <point x="837" y="1450" type="curve" smooth="yes"/>
      <point x="1087" y="1450"/>
      <point x="1206" y="1348"/>
      <point x="1223" y="1148" type="curve"/>
    </contour>
  </outline>
</glyph>
<glyph name="guarani" format="2">
  <advance width="1425"/>
  <unicode hex="20B2"/>
  <outline>
    <contour>
      <point x="606" y="-260" type="line"/>
      <point x="705" y="-260" type="line"/>
      <point x="738" y="-16" type="line"/>
      <point x="863" y="-15"/>
      <point x="983" y="27"/>
      <point x="1065" y="53" type="curve" smooth="yes"/>
      <point x="1145" y="78"/>
      <point x="1184" y="88"/>
      <point x="1224" y="92" type="curve"/>
      <point x="1313" y="707" type="line"/>
      <point x="888" y="707" type="line"/>
      <point x="881" y="643" type="line"/>
      <point x="1155" y="629" type="line"/>
      <point x="1091" y="161" type="line"/>
      <point x="1010" y="96"/>
      <point x="871" y="37"/>
      <point x="736" y="37" type="curve" smooth="yes"/>
      <point x="432" y="37"/>
      <point x="292" y="339"/>
      <point x="292" y="667" type="curve" smooth="yes"/>
      <point x="292" y="1016"/>
      <point x="450" y="1449"/>
      <point x="925" y="1449" type="curve" smooth="yes"/>
      <point x="1087" y="1449"/>
      <point x="1180" y="1399"/>
      <point x="1229" y="1368" type="curve"/>
      <point x="1235" y="1149" type="line"/>
      <point x="1298" y="1149" type="line"/>
      <point x="1354" y="1442" type="line"/>
      <point x="1319" y="1448" type="line"/>
      <point x="1234" y="1461"/>
      <point x="1121" y="1499"/>
      <point x="947" y="1502" type="curve"/>
      <point x="979" y="1738" type="line"/>
      <point x="880" y="1738" type="line"/>
      <point x="847" y="1498" type="line"/>
      <point x="426" y="1454"/>
      <point x="128" y="1129"/>
      <point x="128" y="654" type="curve" smooth="yes"/>
      <point x="128" y="342"/>
      <point x="256" y="29"/>
      <point x="640" y="-11" type="curve"/>
    </contour>
  </outline>
</glyph>
<glyph name="liraTurkish" format="2">
  <advance width="1326"/>
  <unicode hex="20BA"/>
  <outline>
    <contour>
      <point x="296" y="0" type="line"/>
      <point x="418" y="0" type="line" smooth="yes"/>
      <point x="888" y="0"/>
      <point x="1253" y="256"/>
      <point x="1288" y="568" type="curve" smooth="yes"/>
      <point x="1294" y="622" type="line"/>
      <point x="1137" y="636" type="line"/>
      <point x="1082" y="235"/>
      <point x="842" y="48"/>
      <point x="447" y="50" type="curve"/>
      <point x="533" y="778" type="line"/>
      <point x="452" y="675" type="line"/>
      <point x="850" y="841" type="line"/>
      <point x="857" y="917" type="line"/>
      <point x="462" y="753" type="line"/>
      <point x="527" y="710" type="line"/>
      <point x="574" y="1112" type="line"/>
      <point x="494" y="1009" type="line"/>
      <point x="915" y="1186" type="line"/>
      <point x="923" y="1264" type="line"/>
      <point x="504" y="1085" type="line"/>
      <point x="567" y="1042" type="line"/>
      <point x="620" y="1486" type="line"/>
      <point x="477" y="1486" type="line"/>
      <point x="417" y="976" type="line"/>
      <point x="493" y="1079" type="line"/>
      <point x="96" y="913" type="line"/>
      <point x="88" y="835" type="line"/>
      <point x="482" y="1002" type="line"/>
      <point x="422" y="1045" type="line"/>
      <point x="375" y="643" type="line"/>
      <point x="452" y="746" type="line"/>
      <point x="60" y="583" type="line"/>
      <point x="52" y="505" type="line"/>
      <point x="440" y="668" type="line"/>
      <point x="380" y="711" type="line"/>
    </contour>
  </outline>
</glyph>
<glyph name="manat" format="2">
  <advance width="1689"/>
  <unicode hex="20BC"/>
  <outline>
    <contour>
      <point x="977" y="1386" type="curve" smooth="yes"/>
      <point x="623" y="1386"/>
      <point x="364" y="1194"/>
      <point x="305" y="760" type="curve" smooth="yes"/>
      <point x="210" y="66" type="line"/>
      <point x="56" y="36" type="line"/>
      <point x="51" y="0" type="line"/>
      <point x="498" y="0" type="line"/>
      <point x="503" y="36" type="line"/>
      <point x="352" y="68" type="line"/>
      <point x="448" y="768" type="line" smooth="yes"/>
      <point x="499" y="1139"/>
      <point x="660" y="1337"/>
      <point x="951" y="1337" type="curve" smooth="yes"/>
      <point x="1375" y="1337"/>
      <point x="1325" y="918"/>
      <point x="1302" y="752" type="curve" smooth="yes"/>
      <point x="1209" y="66" type="line"/>
      <point x="1039" y="36" type="line"/>
      <point x="1034" y="0" type="line"/>
      <point x="1496" y="0" type="line"/>
      <point x="1501" y="36" type="line"/>
      <point x="1357" y="66" type="line"/>
      <point x="1448" y="734" type="line" smooth="yes"/>
      <point x="1485" y="1005"/>
      <point x="1481" y="1386"/>
    </contour>
    <contour>
      <point x="1065" y="1690" type="line"/>
      <point x="935" y="1690" type="line"/>
      <point x="741" y="276" type="line"/>
      <point x="871" y="276" type="line"/>
    </contour>
  </outline>
</glyph>
<glyph name="ruble" format="2">
  <advance width="1250"/>
  <unicode hex="20BD"/>
  <outline>
    <contour>
      <point x="59" y="0" type="line"/>
      <point x="585" y="0" type="line"/>
      <point x="588" y="36" type="line"/>
      <point x="379" y="67" type="line"/>
      <point x="414" y="358" type="line"/>
      <point x="823" y="358" type="line"/>
      <point x="830" y="412" type="line"/>
      <point x="421" y="412" type="line"/>
      <point x="449" y="636" type="line"/>
      <point x="663" y="633" type="line"/>
      <point x="1020" y="633"/>
      <point x="1299" y="788"/>
      <point x="1291" y="1126" type="curve" smooth="yes"/>
      <point x="1285" y="1377"/>
      <point x="1124" y="1502"/>
      <point x="813" y="1502" type="curve" smooth="yes"/>
      <point x="701" y="1502"/>
      <point x="611" y="1486"/>
      <point x="490" y="1486" type="curve" smooth="yes"/>
      <point x="250" y="1486" type="line"/>
      <point x="246" y="1450" type="line"/>
      <point x="390" y="1420" type="line"/>
      <point x="299" y="690" type="line"/>
      <point x="105" y="690" type="line"/>
      <point x="98" y="636" type="line"/>
      <point x="292" y="636" type="line"/>
      <point x="264" y="412" type="line"/>
      <point x="76" y="412" type="line"/>
      <point x="69" y="358" type="line"/>
      <point x="257" y="358" type="line"/>
      <point x="220" y="67" type="line"/>
      <point x="64" y="36" type="line"/>
    </contour>
    <contour>
      <point x="455" y="688" type="curve"/>
      <point x="546" y="1427" type="line"/>
      <point x="677" y="1444"/>
      <point x="726" y="1449"/>
      <point x="779" y="1449" type="curve" smooth="yes"/>
      <point x="1020" y="1449"/>
      <point x="1125" y="1345"/>
      <point x="1125" y="1108" type="curve" smooth="yes"/>
      <point x="1125" y="839"/>
      <point x="989" y="683"/>
      <point x="671" y="686" type="curve" smooth="yes"/>
      <point x="659" y="686"/>
      <point x="469" y="688"/>
    </contour>
  </outline>
</glyph>
<glyph name="careof" format="2">
  <advance width="1902"/>
  <unicode hex="2105"/>
  <outline>
    <contour>
      <point x="483" y="731" type="curve" smooth="yes"/>
      <point x="579" y="731"/>
      <point x="676" y="772"/>
      <point x="732" y="820" type="curve"/>
      <point x="713" y="860" type="line"/>
      <point x="644" y="809"/>
      <point x="572" y="783"/>
      <point x="517" y="783" type="curve" smooth="yes"/>
      <point x="422" y="783"/>
      <point x="344" y="872"/>
      <point x="344" y="1040" type="curve" smooth="yes"/>
      <point x="344" y="1205"/>
      <point x="423" y="1403"/>
      <point x="584" y="1403" type="curve" smooth="yes"/>
      <point x="632" y="1403"/>
      <point x="679" y="1388"/>
      <point x="698" y="1364" type="curve"/>
      <point x="692" y="1194" type="line"/>
      <point x="768" y="1194" type="line"/>
      <point x="801" y="1406" type="line"/>
      <point x="770" y="1413"/>
      <point x="703" y="1441"/>
      <point x="614" y="1441" type="curve" smooth="yes"/>
      <point x="392" y="1441"/>
      <point x="214" y="1258"/>
      <point x="214" y="1032" type="curve" smooth="yes"/>
      <point x="214" y="852"/>
      <point x="322" y="731"/>
    </contour>
    <contour>
      <point x="435" y="0" type="line"/>
      <point x="544" y="0" type="line"/>
      <point x="1490" y="1495" type="line"/>
      <point x="1380" y="1494" type="line"/>
    </contour>
    <contour>
      <point x="1334" y="62" type="curve" smooth="yes"/>
      <point x="1508" y="62"/>
      <point x="1723" y="219"/>
      <point x="1723" y="490" type="curve" smooth="yes"/>
      <point x="1723" y="659"/>
      <point x="1641" y="776"/>
      <point x="1468" y="776" type="curve" smooth="yes"/>
      <point x="1255" y="776"/>
      <point x="1057" y="611"/>
      <point x="1057" y="364" type="curve" smooth="yes"/>
      <point x="1057" y="158"/>
      <point x="1193" y="62"/>
    </contour>
    <contour>
      <point x="1359" y="100" type="curve" smooth="yes"/>
      <point x="1269" y="100"/>
      <point x="1187" y="183"/>
      <point x="1187" y="371" type="curve" smooth="yes"/>
      <point x="1187" y="607"/>
      <point x="1317" y="738"/>
      <point x="1434" y="738" type="curve" smooth="yes"/>
      <point x="1520" y="738"/>
      <point x="1594" y="659"/>
      <point x="1594" y="476" type="curve" smooth="yes"/>
      <point x="1594" y="241"/>
      <point x="1468" y="100"/>
    </contour>
  </outline>
</glyph>
<glyph name="trademark" format="2">
  <advance width="1822"/>
  <unicode hex="2122"/>
  <outline>
    <contour>
      <point x="805" y="921" type="line"/>
      <point x="802" y="897" type="line"/>
      <point x="1037" y="897" type="line"/>
      <point x="1040" y="921" type="line"/>
      <point x="957" y="938" type="line"/>
      <point x="1029" y="1280" type="line"/>
      <point x="1066" y="1461" type="line"/>
      <point x="1120" y="1286" type="line"/>
      <point x="1239" y="890" type="line"/>
      <point x="1293" y="890" type="line"/>
      <point x="1518" y="1338" type="line"/>
      <point x="1578" y="1461" type="line"/>
      <point x="1562" y="1232" type="line"/>
      <point x="1549" y="938" type="line"/>
      <point x="1463" y="921" type="line"/>
      <point x="1460" y="897" type="line"/>
      <point x="1734" y="897" type="line"/>
      <point x="1737" y="921" type="line"/>
      <point x="1652" y="938" type="line"/>
      <point x="1665" y="1452" type="line"/>
      <point x="1764" y="1470" type="line"/>
      <point x="1767" y="1495" type="line"/>
      <point x="1552" y="1495" type="line"/>
      <point x="1297" y="989" type="line"/>
      <point x="1237" y="1206" type="line"/>
      <point x="1158" y="1495" type="line"/>
      <point x="915" y="1495" type="line"/>
      <point x="913" y="1470" type="line"/>
      <point x="1014" y="1452" type="line"/>
      <point x="897" y="938" type="line"/>
    </contour>
    <contour>
      <point x="250" y="921" type="line"/>
      <point x="247" y="897" type="line"/>
      <point x="578" y="897" type="line"/>
      <point x="581" y="921" type="line"/>
      <point x="463" y="939" type="line"/>
      <point x="535" y="1459" type="line"/>
      <point x="728" y="1445" type="line"/>
      <point x="738" y="1286" type="line"/>
      <point x="774" y="1287" type="line"/>
      <point x="802" y="1495" type="line"/>
      <point x="187" y="1495" type="line"/>
      <point x="152" y="1287" type="line"/>
      <point x="188" y="1287" type="line"/>
      <point x="243" y="1445" type="line"/>
      <point x="438" y="1457" type="line"/>
      <point x="366" y="939" type="line"/>
    </contour>
  </outline>
</glyph>
<glyph name="emptyset" format="2">
  <advance width="1414"/>
  <unicode hex="2205"/>
  <outline>
    <contour>
      <point x="714" y="-19" type="curve" smooth="yes"/>
      <point x="1027" y="-19"/>
      <point x="1275" y="235"/>
      <point x="1275" y="549" type="curve" smooth="yes"/>
      <point x="1275" y="862"/>
      <point x="1027" y="1116"/>
      <point x="714" y="1116" type="curve" smooth="yes"/>
      <point x="400" y="1116"/>
      <point x="152" y="862"/>
      <point x="152" y="549" type="curve" smooth="yes"/>
      <point x="152" y="235"/>
      <point x="400" y="-19"/>
    </contour>
    <contour>
      <point x="714" y="62" type="curve" smooth="yes"/>
      <point x="451" y="62"/>
      <point x="244" y="286"/>
      <point x="244" y="549" type="curve" smooth="yes"/>
      <point x="244" y="811"/>
      <point x="451" y="1035"/>
      <point x="714" y="1035" type="curve" smooth="yes"/>
      <point x="976" y="1035"/>
      <point x="1183" y="811"/>
      <point x="1183" y="549" type="curve" smooth="yes"/>
      <point x="1183" y="286"/>
      <point x="976" y="62"/>
    </contour>
    <contour>
      <point x="237" y="-102" type="line"/>
      <point x="1244" y="1148" type="line"/>
      <point x="1186" y="1197" type="line"/>
      <point x="181" y="-53" type="line"/>
    </contour>
  </outline>
</glyph>
<glyph name="bulletoperator" format="2">
  <advance width="456"/>
  <unicode hex="2219"/>
  <outline>
    <contour>
      <point x="174" y="745" type="curve" smooth="yes"/>
      <point x="174" y="696"/>
      <point x="200" y="664"/>
      <point x="245" y="664" type="curve" smooth="yes"/>
      <point x="302" y="664"/>
      <point x="353" y="713"/>
      <point x="353" y="782" type="curve" smooth="yes"/>
      <point x="353" y="824"/>
      <point x="334" y="862"/>
      <point x="279" y="862" type="curve" smooth="yes"/>
      <point x="221" y="862"/>
      <point x="174" y="811"/>
    </contour>
  </outline>
</glyph>
<glyph name="approxequal" format="2">
  <advance width="1183"/>
  <unicode hex="2248"/>
  <outline>
    <contour>
      <point x="177" y="775" type="curve"/>
      <point x="204" y="718" type="line"/>
      <point x="273" y="809"/>
      <point x="338" y="858"/>
      <point x="425" y="858" type="curve" smooth="yes"/>
      <point x="600" y="858"/>
      <point x="617" y="650"/>
      <point x="825" y="650" type="curve" smooth="yes"/>
      <point x="932" y="650"/>
      <point x="1045" y="710"/>
      <point x="1084" y="810" type="curve"/>
      <point x="1051" y="874" type="line"/>
      <point x="988" y="779"/>
      <point x="923" y="730"/>
      <point x="838" y="730" type="curve" smooth="yes"/>
      <point x="661" y="730"/>
      <point x="645" y="938"/>
      <point x="437" y="938" type="curve" smooth="yes"/>
      <point x="330" y="938"/>
      <point x="216" y="878"/>
    </contour>
    <contour>
      <point x="115" y="315" type="curve"/>
      <point x="142" y="258" type="line"/>
      <point x="211" y="349"/>
      <point x="276" y="398"/>
      <point x="363" y="398" type="curve" smooth="yes"/>
      <point x="538" y="398"/>
      <point x="555" y="190"/>
      <point x="763" y="190" type="curve" smooth="yes"/>
      <point x="870" y="190"/>
      <point x="983" y="250"/>
      <point x="1022" y="350" type="curve"/>
      <point x="989" y="414" type="line"/>
      <point x="926" y="319"/>
      <point x="861" y="270"/>
      <point x="776" y="270" type="curve" smooth="yes"/>
      <point x="599" y="270"/>
      <point x="583" y="478"/>
      <point x="375" y="478" type="curve" smooth="yes"/>
      <point x="268" y="478"/>
      <point x="154" y="418"/>
    </contour>
  </outline>
</glyph>
<glyph name="De-cy.loclBGR" format="2">
  <advance width="1518"/>
  <outline>
    <contour>
      <point x="-108" y="-360" type="curve"/>
      <point x="-9" y="-360" type="line"/>
      <point x="20" y="-279"/>
      <point x="82" y="-99"/>
      <point x="112" y="0" type="curve"/>
      <point x="1287" y="0" type="line"/>
      <point x="1277" y="-112"/>
      <point x="1252" y="-246"/>
      <point x="1242" y="-360" type="curve"/>
      <point x="1338" y="-360" type="line"/>
      <point x="1360" y="-306"/>
      <point x="1422" y="-70"/>
      <point x="1448" y="67" type="curve"/>
      <point x="1276" y="67" type="line"/>
      <point x="980" y="1498" type="line"/>
      <point x="855" y="1498" type="line"/>
      <point x="129" y="67" type="line"/>
      <point x="-24" y="67" type="line"/>
      <point x="-48" y="-32"/>
      <point x="-91" y="-265"/>
    </contour>
    <contour>
      <point x="233" y="66" type="line"/>
      <point x="801" y="1213" type="line"/>
      <point x="898" y="1432" type="line"/>
      <point x="861" y="1438" type="line"/>
      <point x="882" y="1246" type="line"/>
      <point x="1117" y="66" type="line"/>
    </contour>
  </outline>
</glyph>
<glyph name="Ii-cy.loclBGR" format="2">
  <advance width="1446"/>
  <anchor x="1344" y="0" name="bottomright"/>
  <anchor x="850" y="1486" name="top"/>
  <outline>
    <contour>
      <point x="110" y="0" type="line"/>
      <point x="163" y="0" type="line"/>
      <point x="1073" y="1054" type="line"/>
      <point x="1241" y="1262" type="line"/>
      <point x="1204" y="1256" type="line"/>
      <point x="1041" y="67" type="line"/>
      <point x="870" y="36" type="line"/>
      <point x="865" y="0" type="line"/>
      <point x="1335" y="0" type="line"/>
      <point x="1340" y="36" type="line"/>
      <point x="1197" y="67" type="line"/>
      <point x="1391" y="1486" type="line"/>
      <point x="1352" y="1487" type="line"/>
      <point x="468" y="460" type="line"/>
      <point x="254" y="189" type="line"/>
      <point x="291" y="195" type="line"/>
      <point x="460" y="1420" type="line"/>
      <point x="629" y="1450" type="line"/>
      <point x="634" y="1486" type="line"/>
      <point x="177" y="1486" type="line"/>
      <point x="172" y="1450" type="line"/>
      <point x="305" y="1420" type="line"/>
    </contour>
  </outline>
</glyph>
<glyph name="a.sc" format="2">
  <advance width="1189"/>
  <anchor x="497" y="-4" name="bottom"/>
  <anchor x="1017" y="0" name="ogonek"/>
  <anchor x="693" y="1383" name="top"/>
  <outline>
    <contour>
      <point x="-144" y="0" type="line"/>
      <point x="293" y="0" type="line"/>
      <point x="298" y="35" type="line"/>
      <point x="113" y="62" type="line"/>
      <point x="622" y="1110" type="line"/>
      <point x="686" y="1238" type="line"/>
      <point x="638" y="1231" type="line"/>
      <point x="676" y="1063" type="line"/>
      <point x="900" y="62" type="line"/>
      <point x="721" y="35" type="line"/>
      <point x="716" y="0" type="line"/>
      <point x="1205" y="0" type="line"/>
      <point x="1210" y="35" type="line"/>
      <point x="1058" y="60" type="line"/>
      <point x="762" y="1292" type="line"/>
      <point x="639" y="1292" type="line"/>
      <point x="5" y="61" type="line"/>
      <point x="-139" y="35" type="line"/>
    </contour>
    <contour>
      <point x="196" y="383" type="line"/>
      <point x="906" y="383" type="line"/>
      <point x="904" y="447" type="line"/>
      <point x="216" y="447" type="line"/>
    </contour>
  </outline>
</glyph>
<glyph name="be-cy.loclSRB" format="2">
  <advance width="1019"/>
  <outline>
    <contour>
      <point x="25" y="370" type="curve" smooth="yes"/>
      <point x="25" y="120"/>
      <point x="172" y="-20"/>
      <point x="432" y="-20" type="curve" smooth="yes"/>
      <point x="739" y="-20"/>
      <point x="983" y="245"/>
      <point x="983" y="552" type="curve" smooth="yes"/>
      <point x="983" y="794"/>
      <point x="851" y="888"/>
      <point x="663" y="949" type="curve" smooth="yes"/>
      <point x="484" y="1007"/>
      <point x="342" y="1135"/>
      <point x="342" y="1258" type="curve" smooth="yes"/>
      <point x="342" y="1373"/>
      <point x="421" y="1440"/>
      <point x="613" y="1440" type="curve" smooth="yes"/>
      <point x="823" y="1440" type="line" smooth="yes"/>
      <point x="969" y="1440"/>
      <point x="1028" y="1470"/>
      <point x="1072" y="1637" type="curve" smooth="yes"/>
      <point x="1091" y="1708" type="line"/>
      <point x="1072" y="1708" type="line"/>
      <point x="1050" y="1663" type="line" smooth="yes"/>
      <point x="1009" y="1578"/>
      <point x="923" y="1566"/>
      <point x="793" y="1566" type="curve" smooth="yes"/>
      <point x="569" y="1566" type="line" smooth="yes"/>
      <point x="311" y="1566"/>
      <point x="219" y="1423"/>
      <point x="219" y="1271" type="curve" smooth="yes"/>
      <point x="219" y="1150"/>
      <point x="308" y="1018"/>
      <point x="509" y="952" type="curve"/>
      <point x="239" y="906"/>
      <point x="25" y="679"/>
    </contour>
    <contour>
      <point x="182" y="356" type="curve" smooth="yes"/>
      <point x="182" y="626"/>
      <point x="337" y="909"/>
      <point x="579" y="909" type="curve" smooth="yes"/>
      <point x="716" y="909"/>
      <point x="817" y="813"/>
      <point x="817" y="568" type="curve" smooth="yes"/>
      <point x="817" y="299"/>
      <point x="654" y="25"/>
      <point x="442" y="25" type="curve" smooth="yes"/>
      <point x="260" y="25"/>
      <point x="182" y="165"/>
    </contour>
  </outline>
</glyph>
<glyph name="be-cy.sc" format="2">
  <advance width="1128"/>
  <outline>
    <contour>
      <point x="399" y="763" type="curve"/>
      <point x="461" y="1226" type="line"/>
      <point x="955" y="1209" type="line"/>
      <point x="978" y="916" type="line"/>
      <point x="1034" y="916" type="line"/>
      <point x="1069" y="1292" type="line"/>
      <point x="149" y="1292" type="line"/>
      <point x="144" y="1257" type="line"/>
      <point x="302" y="1231" type="line"/>
      <point x="144" y="61" type="line"/>
      <point x="-21" y="35" type="line"/>
      <point x="-26" y="0" type="line"/>
      <point x="210" y="0" type="line" smooth="yes"/>
      <point x="237" y="0"/>
      <point x="436" y="-14"/>
      <point x="494" y="-14" type="curve" smooth="yes"/>
      <point x="819" y="-14"/>
      <point x="1092" y="100"/>
      <point x="1092" y="425" type="curve" smooth="yes"/>
      <point x="1092" y="697"/>
      <point x="886" y="789"/>
      <point x="614" y="789" type="curve" smooth="yes"/>
      <point x="537" y="789"/>
      <point x="452" y="776"/>
    </contour>
    <contour>
      <point x="304" y="61" type="curve"/>
      <point x="390" y="701" type="line"/>
      <point x="436" y="711"/>
      <point x="501" y="721"/>
      <point x="570" y="721" type="curve" smooth="yes"/>
      <point x="786" y="721"/>
      <point x="922" y="635"/>
      <point x="922" y="419" type="curve" smooth="yes"/>
      <point x="922" y="159"/>
      <point x="768" y="36"/>
      <point x="508" y="36" type="curve" smooth="yes"/>
      <point x="421" y="36"/>
      <point x="352" y="51"/>
    </contour>
  </outline>
</glyph>
<glyph name="brevecomb_gravecomb.case" format="2">
  <anchor x="466" y="1486" name="_top"/>
  <outline>
    <contour>
      <point x="588" y="1903" type="curve"/>
      <point x="608" y="1922" type="line"/>
      <point x="348" y="2234" type="line"/>
      <point x="234" y="2136" type="line"/>
      <point x="321" y="2064"/>
      <point x="459" y="1978"/>
    </contour>
    <contour>
      <point x="474" y="1601" type="curve" smooth="yes"/>
      <point x="662" y="1601"/>
      <point x="779" y="1718"/>
      <point x="779" y="1868" type="curve" smooth="yes"/>
      <point x="779" y="1880"/>
      <point x="778" y="1891"/>
      <point x="778" y="1903" type="curve"/>
      <point x="729" y="1903" type="line"/>
      <point x="729" y="1787"/>
      <point x="611" y="1722"/>
      <point x="483" y="1722" type="curve" smooth="yes"/>
      <point x="343" y="1722"/>
      <point x="276" y="1781"/>
      <point x="276" y="1854" type="curve" smooth="yes"/>
      <point x="276" y="1881"/>
      <point x="280" y="1892"/>
      <point x="282" y="1903" type="curve"/>
      <point x="235" y="1903" type="line"/>
      <point x="227" y="1882"/>
      <point x="219" y="1859"/>
      <point x="219" y="1817" type="curve" smooth="yes"/>
      <point x="219" y="1702"/>
      <point x="311" y="1601"/>
    </contour>
  </outline>
</glyph>
<glyph name="breveinvertedcomb.case" format="2">
  <anchor x="416" y="1486" name="_top"/>
  <outline>
    <contour>
      <point x="474" y="1929" type="curve" smooth="yes"/>
      <point x="271" y="1929"/>
      <point x="169" y="1803"/>
      <point x="169" y="1642" type="curve" smooth="yes"/>
      <point x="169" y="1621"/>
      <point x="170" y="1619"/>
      <point x="170" y="1607" type="curve"/>
      <point x="219" y="1607" type="line"/>
      <point x="219" y="1731"/>
      <point x="322" y="1808"/>
      <point x="465" y="1808" type="curve" smooth="yes"/>
      <point x="614" y="1808"/>
      <point x="671" y="1733"/>
      <point x="671" y="1656" type="curve" smooth="yes"/>
      <point x="671" y="1620"/>
      <point x="667" y="1615"/>
      <point x="666" y="1607" type="curve"/>
      <point x="713" y="1607" type="line"/>
      <point x="721" y="1634"/>
      <point x="729" y="1655"/>
      <point x="729" y="1700" type="curve" smooth="yes"/>
      <point x="729" y="1825"/>
      <point x="646" y="1929"/>
    </contour>
  </outline>
</glyph>
<glyph name="c.sc" format="2">
  <advance width="1246"/>
  <anchor x="611" y="0" name="bottom"/>
  <anchor x="804" y="1383" name="top"/>
  <outline>
    <contour>
      <point x="1110" y="359" type="line"/>
      <point x="1037" y="359" type="line"/>
      <point x="1025" y="296"/>
      <point x="1008" y="186"/>
      <point x="988" y="132" type="curve"/>
      <point x="948" y="74"/>
      <point x="788" y="40"/>
      <point x="694" y="40" type="curve" smooth="yes"/>
      <point x="349" y="40"/>
      <point x="240" y="281"/>
      <point x="240" y="587" type="curve" smooth="yes"/>
      <point x="240" y="910"/>
      <point x="414" y="1250"/>
      <point x="779" y="1250" type="curve" smooth="yes"/>
      <point x="939" y="1250"/>
      <point x="1011" y="1220"/>
      <point x="1055" y="1197" type="curve"/>
      <point x="1074" y="923" type="line"/>
      <point x="1143" y="923" type="line"/>
      <point x="1192" y="1252" type="line"/>
      <point x="1126" y="1259"/>
      <point x="988" y="1303"/>
      <point x="797" y="1303" type="curve" smooth="yes"/>
      <point x="372" y="1303"/>
      <point x="67" y="1001"/>
      <point x="67" y="573" type="curve" smooth="yes"/>
      <point x="67" y="259"/>
      <point x="255" y="-13"/>
      <point x="663" y="-13" type="curve" smooth="yes"/>
      <point x="861" y="-13"/>
      <point x="1003" y="44"/>
      <point x="1082" y="61" type="curve"/>
    </contour>
  </outline>
</glyph>
<glyph name="dblgravecomb.case" format="2">
  <anchor x="676" y="1488" name="_top"/>
  <outline>
    <contour>
      <point x="956" y="1627" type="line"/>
      <point x="714" y="1956" type="line"/>
      <point x="602" y="1864" type="line"/>
      <point x="696" y="1784"/>
      <point x="782" y="1692"/>
      <point x="935" y="1607" type="curve"/>
    </contour>
    <contour>
      <point x="591" y="1627" type="line"/>
      <point x="309" y="1956" type="line"/>
      <point x="197" y="1864" type="line"/>
      <point x="291" y="1784"/>
      <point x="417" y="1692"/>
      <point x="570" y="1607" type="curve"/>
    </contour>
  </outline>
</glyph>
<glyph name="de-cy.loclBGR.sc" format="2">
  <advance width="1418"/>
  <outline>
    <contour>
      <point x="1339" y="72" type="curve"/>
      <point x="1173" y="72" type="line"/>
      <point x="879" y="1292" type="line"/>
      <point x="757" y="1292" type="line"/>
      <point x="126" y="72" type="line"/>
      <point x="-27" y="72" type="line"/>
      <point x="-51" y="-26"/>
      <point x="-94" y="-265"/>
      <point x="-110" y="-360" type="curve"/>
      <point x="-12" y="-360" type="line"/>
      <point x="16" y="-277"/>
      <point x="76" y="-102"/>
      <point x="112" y="0" type="curve"/>
      <point x="1172" y="0" type="line"/>
      <point x="1177" y="-70"/>
      <point x="1143" y="-269"/>
      <point x="1131" y="-360" type="curve"/>
      <point x="1226" y="-360" type="line"/>
      <point x="1252" y="-287"/>
      <point x="1311" y="-130"/>
    </contour>
    <contour>
      <point x="770" y="1172" type="line"/>
      <point x="794" y="1060" type="line"/>
      <point x="1016" y="72" type="line"/>
      <point x="234" y="72" type="line"/>
      <point x="715" y="1060" type="line"/>
    </contour>
  </outline>
</glyph>
<glyph name="dieresis-cy" format="2">
  <anchor x="77" y="1110" name="_top"/>
  <anchor x="128" y="1476" name="top"/>
  <outline>
    <contour>
      <point x="-49" y="1156" type="curve" smooth="yes"/>
      <point x="17" y="1156"/>
      <point x="68" y="1211"/>
      <point x="69" y="1282" type="curve" smooth="yes"/>
      <point x="70" y="1334"/>
      <point x="35" y="1374"/>
      <point x="-22" y="1374" type="curve" smooth="yes"/>
      <point x="-79" y="1374"/>
      <point x="-131" y="1324"/>
      <point x="-134" y="1251" type="curve" smooth="yes"/>
      <point x="-136" y="1198"/>
      <point x="-94" y="1156"/>
    </contour>
    <contour>
      <point x="223" y="1156" type="curve" smooth="yes"/>
      <point x="287" y="1156"/>
      <point x="340" y="1211"/>
      <point x="341" y="1283" type="curve" smooth="yes"/>
      <point x="342" y="1331"/>
      <point x="307" y="1374"/>
      <point x="248" y="1374" type="curve" smooth="yes"/>
      <point x="188" y="1374"/>
      <point x="140" y="1321"/>
      <point x="137" y="1251" type="curve" smooth="yes"/>
      <point x="135" y="1200"/>
      <point x="176" y="1156"/>
    </contour>
  </outline>
</glyph>
<glyph name="dieresiscomb.case" format="2">
  <anchor x="448" y="1486" name="_top"/>
  <anchor x="501" y="1828" name="top"/>
  <outline>
    <contour>
      <point x="280" y="1631" type="curve" smooth="yes"/>
      <point x="353" y="1631"/>
      <point x="403" y="1683"/>
      <point x="403" y="1773" type="curve" smooth="yes"/>
      <point x="403" y="1824"/>
      <point x="371" y="1865"/>
      <point x="311" y="1865" type="curve" smooth="yes"/>
      <point x="240" y="1865"/>
      <point x="191" y="1805"/>
      <point x="191" y="1738" type="curve" smooth="yes"/>
      <point x="191" y="1667"/>
      <point x="228" y="1631"/>
    </contour>
    <contour>
      <point x="679" y="1631" type="curve" smooth="yes"/>
      <point x="752" y="1631"/>
      <point x="802" y="1683"/>
      <point x="802" y="1773" type="curve" smooth="yes"/>
      <point x="802" y="1824"/>
      <point x="770" y="1865"/>
      <point x="710" y="1865" type="curve" smooth="yes"/>
      <point x="639" y="1865"/>
      <point x="590" y="1805"/>
      <point x="590" y="1738" type="curve" smooth="yes"/>
      <point x="590" y="1667"/>
      <point x="627" y="1631"/>
    </contour>
  </outline>
</glyph>
<glyph name="dollar.ss01" format="2">
  <advance width="1268"/>
  <outline>
    <contour>
      <point x="466" y="-252" type="line"/>
      <point x="551" y="-252" type="line"/>
      <point x="590" y="-20" type="line"/>
      <point x="885" y="-1"/>
      <point x="1083" y="184"/>
      <point x="1083" y="406" type="curve" smooth="yes"/>
      <point x="1083" y="615"/>
      <point x="909" y="713"/>
      <point x="742" y="806" type="curve" smooth="yes"/>
      <point x="566" y="905"/>
      <point x="423" y="974"/>
      <point x="423" y="1136" type="curve" smooth="yes"/>
      <point x="423" y="1310"/>
      <point x="587" y="1451"/>
      <point x="780" y="1451" type="curve"/>
      <point x="874" y="1452"/>
      <point x="978" y="1423"/>
      <point x="1023" y="1391" type="curve"/>
      <point x="1040" y="1181" type="line"/>
      <point x="1116" y="1181" type="line"/>
      <point x="1149" y="1426" type="line"/>
      <point x="1098" y="1448"/>
      <point x="985" y="1490"/>
      <point x="826" y="1502" type="curve"/>
      <point x="860" y="1720" type="line"/>
      <point x="773" y="1720" type="line"/>
      <point x="739" y="1500" type="line"/>
      <point x="477" y="1471"/>
      <point x="291" y="1312"/>
      <point x="291" y="1104" type="curve" smooth="yes"/>
      <point x="291" y="890"/>
      <point x="488" y="771"/>
      <point x="626" y="699" type="curve" smooth="yes"/>
      <point x="759" y="629"/>
      <point x="946" y="549"/>
      <point x="946" y="363" type="curve" smooth="yes"/>
      <point x="946" y="183"/>
      <point x="769" y="31"/>
      <point x="548" y="31" type="curve" smooth="yes"/>
      <point x="442" y="31"/>
      <point x="321" y="66"/>
      <point x="276" y="111" type="curve"/>
      <point x="271" y="335" type="line"/>
      <point x="192" y="335" type="line"/>
      <point x="143" y="68" type="line"/>
      <point x="188" y="42"/>
      <point x="339" y="-9"/>
      <point x="504" y="-20" type="curve"/>
    </contour>
    <contour>
      <point x="735" y="1467" type="line"/>
      <point x="512" y="4" type="line"/>
      <point x="588" y="4" type="line"/>
      <point x="809" y="1467" type="line"/>
    </contour>
  </outline>
</glyph>
<glyph name="dotbelowcomb.case" format="2">
  <anchor x="41" y="0" name="_bottom"/>
  <outline>
    <contour>
      <point x="-6" y="-376" type="curve" smooth="yes"/>
      <point x="58" y="-376"/>
      <point x="111" y="-318"/>
      <point x="111" y="-245" type="curve" smooth="yes"/>
      <point x="111" y="-191"/>
      <point x="78" y="-152"/>
      <point x="19" y="-152" type="curve" smooth="yes"/>
      <point x="-35" y="-152"/>
      <point x="-94" y="-205"/>
      <point x="-96" y="-276" type="curve" smooth="yes"/>
      <point x="-98" y="-334"/>
      <point x="-57" y="-376"/>
    </contour>
  </outline>
</glyph>
<glyph name="dzhe_desc.part" format="2">
  <advance width="1054"/>
  <anchor x="438.406" y="0" name="_bottom"/>
  <outline>
    <contour>
      <point x="534" y="-27" type="line"/>
      <point x="457" y="-50"/>
      <point x="384" y="-100"/>
      <point x="384" y="-198" type="curve" smooth="yes"/>
      <point x="384" y="-260"/>
      <point x="399" y="-283"/>
      <point x="399" y="-339" type="curve" smooth="yes"/>
      <point x="399" y="-403"/>
      <point x="366" y="-464"/>
      <point x="318" y="-492" type="curve"/>
      <point x="340" y="-516" type="line"/>
      <point x="440" y="-480"/>
      <point x="525" y="-420"/>
      <point x="525" y="-322" type="curve" smooth="yes"/>
      <point x="525" y="-252"/>
      <point x="506" y="-197"/>
      <point x="506" y="-159" type="curve" smooth="yes"/>
      <point x="506" y="-95"/>
      <point x="516" y="-77"/>
      <point x="556" y="-49" type="curve"/>
    </contour>
  </outline>
</glyph>
<glyph name="eight.dnom" format="2">
  <advance width="845"/>
  <outline>
    <contour>
      <point x="47" y="212" type="curve" smooth="yes"/>
      <point x="47" y="73"/>
      <point x="165" y="-21"/>
      <point x="368" y="-21" type="curve" smooth="yes"/>
      <point x="574" y="-21"/>
      <point x="724" y="109"/>
      <point x="724" y="251" type="curve" smooth="yes"/>
      <point x="724" y="385"/>
      <point x="610" y="442"/>
      <point x="490" y="513" type="curve"/>
      <point x="662" y="567"/>
      <point x="754" y="682"/>
      <point x="754" y="772" type="curve" smooth="yes"/>
      <point x="754" y="903"/>
      <point x="638" y="971"/>
      <point x="481" y="971" type="curve" smooth="yes"/>
      <point x="312" y="971"/>
      <point x="160" y="882"/>
      <point x="160" y="720" type="curve" smooth="yes"/>
      <point x="160" y="622"/>
      <point x="200" y="542"/>
      <point x="313" y="475" type="curve"/>
      <point x="122" y="429"/>
      <point x="47" y="322"/>
    </contour>
    <contour>
      <point x="459" y="532" type="curve"/>
      <point x="332" y="605"/>
      <point x="292" y="652"/>
      <point x="292" y="762" type="curve" smooth="yes"/>
      <point x="292" y="880"/>
      <point x="375" y="938"/>
      <point x="475" y="938" type="curve" smooth="yes"/>
      <point x="580" y="938"/>
      <point x="631" y="868"/>
      <point x="631" y="781" type="curve" smooth="yes"/>
      <point x="631" y="686"/>
      <point x="566" y="583"/>
    </contour>
    <contour>
      <point x="182" y="210" type="curve" smooth="yes"/>
      <point x="182" y="307"/>
      <point x="215" y="407"/>
      <point x="349" y="449" type="curve"/>
      <point x="456" y="389"/>
      <point x="587" y="343"/>
      <point x="587" y="204" type="curve" smooth="yes"/>
      <point x="587" y="68"/>
      <point x="479" y="15"/>
      <point x="381" y="15" type="curve" smooth="yes"/>
      <point x="246" y="15"/>
      <point x="182" y="111"/>
    </contour>
  </outline>
</glyph>
<glyph name="el-cy.loclBGR" format="2">
  <advance width="988"/>
  <outline>
    <contour>
      <point x="751" y="199" type="curve" smooth="yes"/>
      <point x="696" y="1003" type="line"/>
      <point x="307" y="1003" type="line"/>
      <point x="302" y="975" type="line"/>
      <point x="496" y="923" type="line"/>
      <point x="440" y="761"/>
      <point x="348" y="535"/>
      <point x="261" y="336" type="curve" smooth="yes"/>
      <point x="193" y="184"/>
      <point x="157" y="142"/>
      <point x="123" y="142" type="curve" smooth="yes"/>
      <point x="79" y="142"/>
      <point x="21" y="152"/>
      <point x="-20" y="166" type="curve"/>
      <point x="-56" y="8" type="line"/>
      <point x="-38" y="-2"/>
      <point x="-10" y="-16"/>
      <point x="46" y="-16" type="curve" smooth="yes"/>
      <point x="125" y="-16"/>
      <point x="210" y="45"/>
      <point x="307" y="282" type="curve" smooth="yes"/>
      <point x="565" y="920" type="line"/>
      <point x="601" y="119" type="line" smooth="yes"/>
      <point x="605" y="17"/>
      <point x="651" y="-20"/>
      <point x="729" y="-20" type="curve" smooth="yes"/>
      <point x="832" y="-20"/>
      <point x="917" y="58"/>
      <point x="939" y="97" type="curve"/>
      <point x="920" y="127" type="line"/>
      <point x="878" y="86"/>
      <point x="839" y="63"/>
      <point x="806" y="63" type="curve" smooth="yes"/>
      <point x="767" y="63"/>
      <point x="756" y="109"/>
    </contour>
  </outline>
</glyph>
<glyph name="elhook-cy.sc" format="2">
  <advance width="1179"/>
  <outline>
    <contour>
      <point x="1241" y="1256" type="line"/>
      <point x="1246" y="1292" type="line"/>
      <point x="322" y="1292" type="line"/>
      <point x="317" y="1256" type="line"/>
      <point x="450" y="1226" type="line"/>
      <point x="420" y="1045" type="line" smooth="yes"/>
      <point x="358" y="672"/>
      <point x="307" y="436"/>
      <point x="247" y="301" type="curve" smooth="yes"/>
      <point x="200" y="195"/>
      <point x="147" y="151"/>
      <point x="79" y="151" type="curve" smooth="yes"/>
      <point x="48" y="151"/>
      <point x="18" y="155"/>
      <point x="-15" y="166" type="curve"/>
      <point x="-52" y="9" type="line"/>
      <point x="-23" y="-6"/>
      <point x="20" y="-18"/>
      <point x="66" y="-18" type="curve" smooth="yes"/>
      <point x="162" y="-18"/>
      <point x="231" y="35"/>
      <point x="285" y="134" type="curve" smooth="yes"/>
      <point x="381" y="310"/>
      <point x="431" y="632"/>
      <point x="506" y="1068" type="curve" smooth="yes"/>
      <point x="533" y="1226" type="line"/>
      <point x="945" y="1226" type="line"/>
      <point x="877" y="721" type="line" smooth="yes"/>
      <point x="838" y="421"/>
      <point x="800" y="173"/>
      <point x="779" y="93" type="curve" smooth="yes"/>
      <point x="738" y="-62"/>
      <point x="678" y="-174"/>
      <point x="460" y="-231" type="curve"/>
      <point x="481" y="-274" type="line"/>
      <point x="718" y="-227"/>
      <point x="885" y="-136"/>
      <point x="942" y="79" type="curve" smooth="yes"/>
      <point x="958" y="139"/>
      <point x="994" y="387"/>
      <point x="1034" y="692" type="curve" smooth="yes"/>
      <point x="1105" y="1230" type="line"/>
    </contour>
  </outline>
</glyph>
<glyph name="eng.sc" format="2">
  <advance width="1347"/>
  <outline>
    <contour>
      <point x="655" y="-329" type="line"/>
      <point x="953" y="-280"/>
      <point x="1087" y="-178"/>
      <point x="1116" y="35" type="curve" smooth="yes"/>
      <point x="1278" y="1231" type="line"/>
      <point x="1430" y="1257" type="line"/>
      <point x="1436" y="1292" type="line"/>
      <point x="1029" y="1292" type="line"/>
      <point x="1025" y="1257" type="line"/>
      <point x="1185" y="1231" type="line"/>
      <point x="1070" y="159" type="line"/>
      <point x="979" y="346" type="line"/>
      <point x="459" y="1292" type="line"/>
      <point x="142" y="1292" type="line"/>
      <point x="138" y="1258" type="line"/>
      <point x="295" y="1231" type="line"/>
      <point x="137" y="61" type="line"/>
      <point x="-28" y="35" type="line"/>
      <point x="-33" y="0" type="line"/>
      <point x="386" y="0" type="line"/>
      <point x="390" y="35" type="line"/>
      <point x="230" y="61" type="line"/>
      <point x="350" y="1192" type="line"/>
      <point x="452" y="982" type="line"/>
      <point x="998" y="0" type="line"/>
      <point x="975" y="-147"/>
      <point x="790" y="-259"/>
      <point x="634" y="-294" type="curve"/>
    </contour>
  </outline>
</glyph>
<glyph name="enhook-cy.sc" format="2">
  <advance width="1369"/>
  <outline>
    <contour>
      <point x="1070" y="686" type="line"/>
      <point x="368" y="686" type="line"/>
      <point x="442" y="1231" type="line"/>
      <point x="580" y="1257" type="line"/>
      <point x="585" y="1292" type="line"/>
      <point x="149" y="1292" type="line"/>
      <point x="144" y="1257" type="line"/>
      <point x="282" y="1231" type="line"/>
      <point x="124" y="61" type="line"/>
      <point x="-11" y="35" type="line"/>
      <point x="-16" y="0" type="line"/>
      <point x="423" y="0" type="line"/>
      <point x="428" y="35" type="line"/>
      <point x="284" y="61" type="line"/>
      <point x="360" y="622" type="line"/>
      <point x="1062" y="622" type="line"/>
      <point x="1036" y="402"/>
      <point x="1013" y="231"/>
      <point x="987" y="109" type="curve" smooth="yes"/>
      <point x="956" y="-35"/>
      <point x="919" y="-165"/>
      <point x="673" y="-237" type="curve"/>
      <point x="693" y="-272" type="line"/>
      <point x="913" y="-253"/>
      <point x="1075" y="-130"/>
      <point x="1133" y="81" type="curve" smooth="yes"/>
      <point x="1174" y="230"/>
      <point x="1240" y="723"/>
      <point x="1303" y="1231" type="curve"/>
      <point x="1448" y="1257" type="line"/>
      <point x="1453" y="1292" type="line"/>
      <point x="1001" y="1292" type="line"/>
      <point x="996" y="1257" type="line"/>
      <point x="1147" y="1231" type="line"/>
    </contour>
  </outline>
</glyph>
<glyph name="enlefthook-cy.sc" format="2">
  <advance width="1431"/>
  <outline>
    <contour>
      <point x="396" y="622" type="curve"/>
      <point x="1097" y="622" type="line"/>
      <point x="1021" y="61" type="line"/>
      <point x="856" y="35" type="line"/>
      <point x="851" y="0" type="line"/>
      <point x="1321" y="0" type="line"/>
      <point x="1326" y="35" type="line"/>
      <point x="1181" y="61" type="line"/>
      <point x="1339" y="1231" type="line"/>
      <point x="1480" y="1257" type="line"/>
      <point x="1485" y="1292" type="line"/>
      <point x="1029" y="1292" type="line"/>
      <point x="1024" y="1257" type="line"/>
      <point x="1179" y="1231" type="line"/>
      <point x="1105" y="686" type="line"/>
      <point x="404" y="686" type="line"/>
      <point x="476" y="1231" type="line"/>
      <point x="614" y="1257" type="line"/>
      <point x="619" y="1292" type="line"/>
      <point x="177" y="1292" type="line"/>
      <point x="172" y="1257" type="line"/>
      <point x="313" y="1231" type="line"/>
      <point x="165" y="109" type="line"/>
      <point x="138" y="-37"/>
      <point x="42" y="-167"/>
      <point x="-138" y="-237" type="curve"/>
      <point x="-118" y="-272" type="line"/>
      <point x="92" y="-233"/>
      <point x="255" y="-128"/>
      <point x="299" y="30" type="curve" smooth="yes"/>
      <point x="337" y="169"/>
      <point x="367" y="369"/>
    </contour>
  </outline>
</glyph>
<glyph name="ereversed-cy.sc" format="2">
  <advance width="1205"/>
  <anchor x="669" y="1383" name="top"/>
  <outline>
    <contour>
      <point x="176" y="931" type="line"/>
      <point x="249" y="931" type="line"/>
      <point x="298" y="1158" type="line"/>
      <point x="338" y="1216"/>
      <point x="498" y="1250"/>
      <point x="592" y="1250" type="curve" smooth="yes"/>
      <point x="897" y="1250"/>
      <point x="1006" y="1009"/>
      <point x="1006" y="703" type="curve" smooth="yes"/>
      <point x="1006" y="693"/>
      <point x="1006" y="683"/>
      <point x="1005" y="672" type="curve"/>
      <point x="433" y="711" type="line"/>
      <point x="409" y="593" type="line"/>
      <point x="1001" y="614" type="line"/>
      <point x="965" y="267"/>
      <point x="758" y="40"/>
      <point x="507" y="40" type="curve" smooth="yes"/>
      <point x="347" y="40"/>
      <point x="275" y="70"/>
      <point x="231" y="93" type="curve"/>
      <point x="212" y="367" type="line"/>
      <point x="143" y="367" type="line"/>
      <point x="94" y="38" type="line"/>
      <point x="160" y="31"/>
      <point x="298" y="-13"/>
      <point x="489" y="-13" type="curve" smooth="yes"/>
      <point x="872" y="-13"/>
      <point x="1177" y="289"/>
      <point x="1177" y="717" type="curve" smooth="yes"/>
      <point x="1177" y="1031"/>
      <point x="989" y="1303"/>
      <point x="623" y="1303" type="curve" smooth="yes"/>
      <point x="425" y="1303"/>
      <point x="283" y="1246"/>
      <point x="204" y="1229" type="curve"/>
    </contour>
  </outline>
</glyph>
